{
.appVersion = "1342";
DisplayStrings = (
"nn/Placeholder no/Placeholder oonn\012noabcdefghnijkolmnopqrsdtuvkwoxo\012yoz\012hugoanamurcielagon/space alarma/space ilumina/space holograma\012/space ä/nbspace a/dieresiscomb/dotaccentcomb/gravecomb/acutecomb/hungarumlautcomb/caroncomb.alt/circumflexcomb/caroncomb/brevecomb/ringcomb/tildecomb/macroncomb/hookabovecomb/dblgravecomb/breveinvertedcomb/commaturnedabovecomb/horncomb/dotbelowcomb/dieresisbelowcomb/commaaccentcomb/cedillacomb/ogonekcomb/brevebelowcomb/macronbelowcomb/strokeshortcomb/brevecomb_acutecomb/brevecomb_gravecomb/brevecomb_hookabovecomb/brevecomb_tildecomb/circumflexcomb_acutecomb/circumflexcomb_gravecomb/circumflexcomb_hookabovecomb/circumflexcomb_tildecomb",
"o/brevecomb/obreve",
"L/commaaccentcomb/Lcommaaccent eon",
"/nbspace",
"ABCDEFGHIG/Gcommaaccent A/gravecomb ÀH/Hbar/circumflexcomb/Hcircumflex S/Scommaaccent JKLMNOPQRSTUVWXYZ"
);
copyright = "Copyright 2004 The RUSerius Project Authors (https://github.com/googlefonts/are-you-serious)";
customParameters = (
{
name = licenseURL;
value = "https://scripts.sil.org/OFL";
},
{
name = license;
value = "This Font Software is licensed under the SIL Open Font License, Version 1.1. This license is available with a FAQ at: https://scripts.sil.org/OFL";
},
{
name = vendorID;
value = GOOG;
},
{
name = panose;
value = (
2,
0,
5,
3,
6,
0,
0,
2,
0,
3
);
},
{
name = unicodeRanges;
value = (
0,
1
);
},
{
name = blueScale;
value = 0.21429;
},
{
name = glyphOrder;
value = (
.notdef,
CR,
NULL,
space,
nbspace
);
},
{
name = fsType;
value = (
);
},
{
name = "Use Typo Metrics";
value = 1;
},
{
name = Axes;
value = (
{
Name = Weight;
Tag = wght;
}
);
}
);
date = "2021-02-17 05:58:38 +0000";
designer = "Robert E. Leuschke";
designerURL = www.typesetit.com;
disablesNiceNames = 1;
familyName = RUSerius;
featurePrefixes = (
{
automatic = 1;

glyphs = (
{
glyphname = .notdef;
lastChange = "2021-06-16 04:17:10 +0000";
layers = (
{
layerId = "5C71BA0D-BC2C-47B0-9323-6F63B3241D58";
paths = (
{
closed = 1;
nodes = (
"60 0 LINE",
"389 0 LINE",
"389 650 LINE",
"60 650 LINE"
);
},
{
closed = 1;
nodes = (
"315 584 LINE",
"222 374 LINE",
"129 584 LINE"
);
},
{
closed = 1;
nodes = (
"331 537 LINE",
"331 127 LINE",
"241 330 LINE"
);
},
{
closed = 1;
nodes = (
"114 129 LINE",
"114 534 LINE",
"203 330 LINE"
);
},
{
closed = 1;
nodes = (
"319 64 LINE",
"125 64 LINE",
"222 287 LINE"
);
}
);
width = 449;
}
);
note = .notdef;
},
{
glyphname = A;
lastChange = "2021-06-16 04:24:08 +0000";
layers = (
{
anchors = (
{
name = bottom;
position = "{392, 0}";
},
{
name = ogonek;
position = "{705, 10}";
},
{
name = top;
position = "{603, 660}";
}
);
hints = (
{
horizontal = 1;
place = "{-100, 29}";
type = Stem;
},
{
horizontal = 1;
place = "{644, -20}";
target = down;
type = TopGhost;
},
{
place = "{-3, 53}";
type = Stem;
},
{
place = "{307, 29}";
type = Stem;
},
{
place = "{642, 54}";
type = Stem;
},
{
place = "{812, 29}";
type = Stem;
}
);
layerId = "5C71BA0D-BC2C-47B0-9323-6F63B3241D58";
paths = (
{
closed = 1;
nodes = (
"767 -43 OFFCURVE",
"755 -35 OFFCURVE",
"741 -45 CURVE SMOOTH",
"740 -46 OFFCURVE",
"736 -48 OFFCURVE",
"733 -48 CURVE SMOOTH",
"721 -48 LINE",
"720 -48 LINE",
"685 -31 OFFCURVE",
"697 80 OFFCURVE",
"699 103 CURVE",
"705 105 OFFCURVE",
"701 152 OFFCURVE",
"701 158 CURVE SMOOTH",
"701 243 LINE SMOOTH",
"701 264 OFFCURVE",
"703 285 OFFCURVE",
"704 307 CURVE",
"720 304 OFFCURVE",
"736 300 OFFCURVE",
"750 299 CURVE SMOOTH",
"773 296 OFFCURVE",
"782 318 OFFCURVE",
"763 332 CURVE SMOOTH",
"745 345 OFFCURVE",
"726 351 OFFCURVE",
"706 353 CURVE",
"706 373 OFFCURVE",
"705 389 OFFCURVE",
"705 403 CURVE SMOOTH",
"705 431 OFFCURVE",
"706 459 OFFCURVE",
"703 487 CURVE SMOOTH",
"698 545 OFFCURVE",
"685 609 OFFCURVE",
"606 614 CURVE",
"597 616 OFFCURVE",
"585 616 OFFCURVE",
"569 616 CURVE SMOOTH",
"486 616 OFFCURVE",
"447 440 OFFCURVE",
"435 387 CURVE SMOOTH",
"431 369 OFFCURVE",
"427 352 OFFCURVE",
"422 334 CURVE",
"401 328 OFFCURVE",
"380 319 OFFCURVE",
"363 309 CURVE",
"356 306 OFFCURVE",
"353 301 OFFCURVE",
"352 296 CURVE",
"341 285 OFFCURVE",
"350 260 OFFCURVE",
"370 265 CURVE SMOOTH",
"407 274 LINE",
"399 244 OFFCURVE",
"391 215 OFFCURVE",
"384 185 CURVE SMOOTH",
"366 112 OFFCURVE",
"302 43 OFFCURVE",
"228 17 CURVE",
"224 20 OFFCURVE",
"217 20 OFFCURVE",
"210 16 CURVE",
"209 15 LINE",
"206 16 OFFCURVE",
"203 16 OFFCURVE",
"199 16 CURVE SMOOTH",
"191 16 OFFCURVE",
"184 12 OFFCURVE",
"176 12 CURVE SMOOTH",
"156 12 OFFCURVE",
"112 24 OFFCURVE",
"98 38 CURVE SMOOTH",
"97 39 LINE",
"96 54 OFFCURVE",
"90 63 OFFCURVE",
"75 68 CURVE",
"84 93 OFFCURVE",
"60 106 OFFCURVE",
"51 124 CURVE SMOOTH",
"50 126 LINE",
"57 143 OFFCURVE",
"62 156 OFFCURVE",
"50 168 CURVE",
"60 176 OFFCURVE",
"68 188 OFFCURVE",
"58 202 CURVE",
"60 204 LINE SMOOTH",
"73 217 OFFCURVE",
"71 228 OFFCURVE",
"67 245 CURVE SMOOTH",
"66 249 LINE",
"81 263 OFFCURVE",
"99 260 OFFCURVE",
"95 290 CURVE",
"96 291 LINE",
"113 294 OFFCURVE",
"128 292 OFFCURVE",
"134 313 CURVE",
"160 317 OFFCURVE",
"176 319 OFFCURVE",
"201 319 CURVE SMOOTH",
"203 319 OFFCURVE",
"206 319 OFFCURVE",
"207 319 CURVE",
"237 306 OFFCURVE",
"260 279 OFFCURVE",
"260 244 CURVE SMOOTH",
"260 223 OFFCURVE",
"255 207 OFFCURVE",
"245 197 CURVE",
"230 192 OFFCURVE",
"212 192 OFFCURVE",
"197 192 CURVE SMOOTH",
"195 192 OFFCURVE",
"194 193 OFFCURVE",
"192 193 CURVE",
"177 209 OFFCURVE",
"152 214 OFFCURVE",
"160 182 CURVE",
"161 181 OFFCURVE",
"161 179 OFFCURVE",
"162 178 CURVE",
"161 171 OFFCURVE",
"164 164 OFFCURVE",
"170 161 CURVE",
"179 151 OFFCURVE",
"191 147 OFFCURVE",
"208 147 CURVE SMOOTH",
"233 147 OFFCURVE",
"252 154 OFFCURVE",
"266 166 CURVE",
"291 176 OFFCURVE",
"309 196 OFFCURVE",
"309 233 CURVE SMOOTH",
"309 307 OFFCURVE",
"268 368 OFFCURVE",
"181 368 CURVE SMOOTH",
"167 368 OFFCURVE",
"156 366 OFFCURVE",
"146 363 CURVE",
"46 347 OFFCURVE",
"1 228 OFFCURVE",
"1 144 CURVE SMOOTH",
"1 28 OFFCURVE",
"60 -31 OFFCURVE",
"168 -31 CURVE SMOOTH",
"255 -31 OFFCURVE",
"351 36 OFFCURVE",
"393 108 CURVE SMOOTH",
"418 150 OFFCURVE",
"421 196 OFFCURVE",
"437 241 CURVE SMOOTH",
"441 255 OFFCURVE",
"445 270 OFFCURVE",
"449 284 CURVE",
"512 299 OFFCURVE",
"575 312 OFFCURVE",
"640 316 CURVE",
"639 297 OFFCURVE",
"648 300 OFFCURVE",
"650 281 CURVE",
"650 281 OFFCURVE",
"647 251 OFFCURVE",
"646 230 CURVE SMOOTH",
"644 202 OFFCURVE",
"639 117 OFFCURVE",
"639 88 CURVE SMOOTH",
"639 81 OFFCURVE",
"627 67 OFFCURVE",
"627 49 CURVE SMOOTH",
"627 37 OFFCURVE",
"631 29 OFFCURVE",
"635 22 CURVE SMOOTH",
"658 -14 OFFCURVE",
"636 -85 OFFCURVE",
"709 -85 CURVE SMOOTH",
"713 -85 LINE SMOOTH",
"718 -85 OFFCURVE",
"724 -86 OFFCURVE",
"730 -86 CURVE SMOOTH",
"735 -86 OFFCURVE",
"740 -87 OFFCURVE",
"745 -86 CURVE SMOOTH",
"769 -83 OFFCURVE",
"773 -67 OFFCURVE",
"769 -55 CURVE"
);
},
{
closed = 1;
nodes = (
"635 361 OFFCURVE",
"620 363 OFFCURVE",
"606 363 CURVE SMOOTH",
"581 363 OFFCURVE",
"552 354 OFFCURVE",
"528 354 CURVE",
"522 356 OFFCURVE",
"517 359 OFFCURVE",
"510 359 CURVE SMOOTH",
"494 359 OFFCURVE",
"489 350 OFFCURVE",
"477 343 CURVE",
"472 343 OFFCURVE",
"467 342 OFFCURVE",
"463 342 CURVE",
"475 398 OFFCURVE",
"486 455 OFFCURVE",
"508 508 CURVE SMOOTH",
"514 522 OFFCURVE",
"538 563 OFFCURVE",
"558 576 CURVE",
"560 575 OFFCURVE",
"562 575 OFFCURVE",
"565 575 CURVE SMOOTH",
"586 575 OFFCURVE",
"603 568 OFFCURVE",
"615 557 CURVE",
"626 532 OFFCURVE",
"644 487 OFFCURVE",
"646 482 CURVE SMOOTH",
"647 480 OFFCURVE",
"648 477 OFFCURVE",
"649 475 CURVE",
"654 434 OFFCURVE",
"651 389 OFFCURVE",
"651 358 CURVE"
);
}
);
width = 783;
}
);
note = A;
unicode = 0041;
},
{
glyphname = Aacute;
lastChange = "2021-04-16 08:59:17 +0000";
layers = (
{
hints = (
{
horizontal = 1;
place = "{-87, 39}";
type = Stem;
},
{
horizontal = 1;
place = "{-31, 47}";
type = Stem;
},
{
horizontal = 1;
place = "{148, 45}";
type = Stem;
},
{
horizontal = 1;
place = "{319, 50}";
type = Stem;
},
{
horizontal = 1;
place = "{575, 42}";
type = Stem;
},
{
place = "{2, 61}";
type = Stem;
},
{
place = "{260, 49}";
type = Stem;
},
{
place = "{650, 52}";
type = Stem;
}
);
layerId = "5C71BA0D-BC2C-47B0-9323-6F63B3241D58";
paths = (
{
closed = 1;
nodes = (
"767 -43 OFFCURVE",
"755 -35 OFFCURVE",
"741 -45 CURVE SMOOTH",
"740 -46 OFFCURVE",
"736 -48 OFFCURVE",
"733 -48 CURVE SMOOTH",
"721 -48 LINE",
"720 -48 LINE",
"685 -31 OFFCURVE",
"697 80 OFFCURVE",
"699 103 CURVE",
"705 105 OFFCURVE",
"701 152 OFFCURVE",
"701 158 CURVE SMOOTH",
"701 243 LINE SMOOTH",
"701 264 OFFCURVE",
"703 285 OFFCURVE",
"704 307 CURVE",
"720 304 OFFCURVE",
"736 300 OFFCURVE",
"750 299 CURVE SMOOTH",
"773 296 OFFCURVE",
"782 318 OFFCURVE",
"763 332 CURVE SMOOTH",
"745 345 OFFCURVE",
"726 351 OFFCURVE",
"706 353 CURVE",
"706 373 OFFCURVE",
"705 389 OFFCURVE",
"705 403 CURVE SMOOTH",
"705 431 OFFCURVE",
"706 459 OFFCURVE",
"703 487 CURVE SMOOTH",
"698 545 OFFCURVE",
"685 609 OFFCURVE",
"606 614 CURVE",
"597 616 OFFCURVE",
"585 616 OFFCURVE",
"569 616 CURVE SMOOTH",
"486 616 OFFCURVE",
"447 440 OFFCURVE",
"435 387 CURVE SMOOTH",
"431 369 OFFCURVE",
"427 352 OFFCURVE",
"422 334 CURVE",
"401 328 OFFCURVE",
"380 319 OFFCURVE",
"363 309 CURVE",
"356 306 OFFCURVE",
"353 301 OFFCURVE",
"352 296 CURVE",
"341 285 OFFCURVE",
"350 260 OFFCURVE",
"370 265 CURVE SMOOTH",
"407 274 LINE",
"399 244 OFFCURVE",
"391 215 OFFCURVE",
"384 185 CURVE SMOOTH",
"366 112 OFFCURVE",
"302 43 OFFCURVE",
"228 17 CURVE",
"224 20 OFFCURVE",
"217 20 OFFCURVE",
"210 16 CURVE",
"209 15 LINE",
"206 16 OFFCURVE",
"203 16 OFFCURVE",
"199 16 CURVE SMOOTH",
"191 16 OFFCURVE",
"184 12 OFFCURVE",
"176 12 CURVE SMOOTH",
"156 12 OFFCURVE",
"114 27 OFFCURVE",
"98 38 CURVE SMOOTH",
"97 39 LINE",
"96 54 OFFCURVE",
"90 63 OFFCURVE",
"75 68 CURVE",
"84 93 OFFCURVE",
"62 107 OFFCURVE",
"51 124 CURVE SMOOTH",
"50 126 LINE",
"57 143 OFFCURVE",
"62 156 OFFCURVE",
"50 168 CURVE",
"60 176 OFFCURVE",
"68 188 OFFCURVE",
"58 202 CURVE",
"60 204 LINE SMOOTH",
"73 217 OFFCURVE",
"73 229 OFFCURVE",
"67 245 CURVE SMOOTH",
"66 249 LINE",
"81 263 OFFCURVE",
"99 260 OFFCURVE",
"95 290 CURVE",
"96 291 LINE",
"113 294 OFFCURVE",
"128 292 OFFCURVE",
"134 313 CURVE",
"160 317 OFFCURVE",
"176 319 OFFCURVE",
"201 319 CURVE SMOOTH",
"203 319 OFFCURVE",
"206 319 OFFCURVE",
"207 319 CURVE",
"237 306 OFFCURVE",
"260 279 OFFCURVE",
"260 244 CURVE SMOOTH",
"260 223 OFFCURVE",
"255 207 OFFCURVE",
"245 197 CURVE",
"230 192 OFFCURVE",
"212 192 OFFCURVE",
"197 192 CURVE SMOOTH",
"195 192 OFFCURVE",
"194 193 OFFCURVE",
"192 193 CURVE",
"177 209 OFFCURVE",
"152 214 OFFCURVE",
"160 182 CURVE",
"161 181 OFFCURVE",
"161 179 OFFCURVE",
"162 178 CURVE",
"161 171 OFFCURVE",
"164 164 OFFCURVE",
"170 161 CURVE",
"179 151 OFFCURVE",
"191 147 OFFCURVE",
"208 147 CURVE SMOOTH",
"233 147 OFFCURVE",
"252 154 OFFCURVE",
"266 166 CURVE",
"291 176 OFFCURVE",
"309 196 OFFCURVE",
"309 233 CURVE SMOOTH",
"309 307 OFFCURVE",
"268 368 OFFCURVE",
"181 368 CURVE SMOOTH",
"167 368 OFFCURVE",
"156 366 OFFCURVE",
"146 363 CURVE",
"46 347 OFFCURVE",
"1 228 OFFCURVE",
"1 144 CURVE SMOOTH",
"1 28 OFFCURVE",
"60 -31 OFFCURVE",
"168 -31 CURVE SMOOTH",
"255 -31 OFFCURVE",
"351 36 OFFCURVE",
"393 108 CURVE SMOOTH",
"418 150 OFFCURVE",
"421 196 OFFCURVE",
"437 241 CURVE SMOOTH",
"441 255 OFFCURVE",
"445 270 OFFCURVE",
"449 284 CURVE",
"512 299 OFFCURVE",
"575 312 OFFCURVE",
"640 316 CURVE",
"639 297 OFFCURVE",
"648 300 OFFCURVE",
"650 281 CURVE",
"650 281 OFFCURVE",
"648 251 OFFCURVE",
"646 230 CURVE SMOOTH",
"644 202 OFFCURVE",
"639 117 OFFCURVE",
"639 88 CURVE SMOOTH",
"639 81 OFFCURVE",
"627 67 OFFCURVE",
"627 49 CURVE SMOOTH",
"627 37 OFFCURVE",
"631 29 OFFCURVE",
"635 22 CURVE SMOOTH",
"658 -14 OFFCURVE",
"636 -85 OFFCURVE",
"709 -85 CURVE SMOOTH",
"713 -85 LINE SMOOTH",
"718 -86 OFFCURVE",
"724 -86 OFFCURVE",
"730 -86 CURVE SMOOTH",
"735 -86 OFFCURVE",
"740 -87 OFFCURVE",
"745 -86 CURVE SMOOTH",
"768 -83 OFFCURVE",
"773 -67 OFFCURVE",
"769 -55 CURVE"
);
},
{
closed = 1;
nodes = (
"635 361 OFFCURVE",
"620 363 OFFCURVE",
"606 363 CURVE SMOOTH",
"581 363 OFFCURVE",
"552 354 OFFCURVE",
"528 354 CURVE",
"522 356 OFFCURVE",
"517 359 OFFCURVE",
"510 359 CURVE SMOOTH",
"494 359 OFFCURVE",
"489 350 OFFCURVE",
"477 343 CURVE",
"472 343 OFFCURVE",
"467 342 OFFCURVE",
"463 342 CURVE",
"475 398 OFFCURVE",
"486 455 OFFCURVE",
"508 508 CURVE SMOOTH",
"514 522 OFFCURVE",
"538 563 OFFCURVE",
"558 576 CURVE",
"560 575 OFFCURVE",
"562 575 OFFCURVE",
"565 575 CURVE SMOOTH",
"586 575 OFFCURVE",
"603 568 OFFCURVE",
"615 557 CURVE",
"626 532 OFFCURVE",
"644 487 OFFCURVE",
"646 482 CURVE SMOOTH",
"647 480 OFFCURVE",
"648 477 OFFCURVE",
"649 475 CURVE",
"654 434 OFFCURVE",
"651 389 OFFCURVE",
"651 358 CURVE"
);
},
{
closed = 1;
nodes = (
"717 782 OFFCURVE",
"716 805 OFFCURVE",
"694 805 CURVE SMOOTH",
"650 805 OFFCURVE",
"611 739 OFFCURVE",
"578 717 CURVE SMOOTH",
"574 714 OFFCURVE",
"572 711 OFFCURVE",
"572 708 CURVE",
"570 706 LINE",
"557 697 OFFCURVE",
"564 682 OFFCURVE",
"579 684 CURVE SMOOTH",
"605 688 OFFCURVE",
"622 702 OFFCURVE",
"641 713 CURVE SMOOTH",
"657 721 OFFCURVE",
"675 730 OFFCURVE",
"688 741 CURVE",
"700 746 OFFCURVE",
"717 753 OFFCURVE",
"717 766 CURVE SMOOTH"
);
}
);
width = 783;
}
);
note = Aacute;
unicode = 00C1;
},
{
glyphname = Acircumflex;
lastChange = "2021-04-16 08:59:17 +0000";
layers = (
{
hints = (
{
horizontal = 1;
place = "{-87, 39}";
type = Stem;
},
{
horizontal = 1;
place = "{-31, 47}";
type = Stem;
},
{
horizontal = 1;
place = "{148, 45}";
type = Stem;
},
{
horizontal = 1;
place = "{318, 50}";
type = Stem;
},
{
horizontal = 1;
place = "{575, 42}";
type = Stem;
},
{
place = "{2, 61}";
type = Stem;
},
{
place = "{260, 49}";
type = Stem;
},
{
place = "{650, 52}";
type = Stem;
}
);
layerId = "5C71BA0D-BC2C-47B0-9323-6F63B3241D58";
paths = (
{
closed = 1;
nodes = (
"767 -43 OFFCURVE",
"755 -35 OFFCURVE",
"741 -45 CURVE SMOOTH",
"740 -46 OFFCURVE",
"736 -48 OFFCURVE",
"733 -48 CURVE SMOOTH",
"721 -48 LINE",
"720 -48 LINE",
"685 -31 OFFCURVE",
"697 80 OFFCURVE",
"699 103 CURVE",
"705 105 OFFCURVE",
"701 152 OFFCURVE",
"701 158 CURVE SMOOTH",
"701 243 LINE SMOOTH",
"701 264 OFFCURVE",
"703 285 OFFCURVE",
"704 307 CURVE",
"720 304 OFFCURVE",
"736 300 OFFCURVE",
"750 299 CURVE SMOOTH",
"773 296 OFFCURVE",
"782 318 OFFCURVE",
"763 332 CURVE SMOOTH",
"745 345 OFFCURVE",
"726 351 OFFCURVE",
"706 353 CURVE",
"706 373 OFFCURVE",
"705 389 OFFCURVE",
"705 403 CURVE SMOOTH",
"705 431 OFFCURVE",
"706 459 OFFCURVE",
"703 487 CURVE SMOOTH",
"698 545 OFFCURVE",
"685 609 OFFCURVE",
"606 614 CURVE",
"597 616 OFFCURVE",
"585 616 OFFCURVE",
"569 616 CURVE SMOOTH",
"486 616 OFFCURVE",
"447 440 OFFCURVE",
"435 387 CURVE SMOOTH",
"431 369 OFFCURVE",
"427 352 OFFCURVE",
"422 334 CURVE",
"401 328 OFFCURVE",
"380 319 OFFCURVE",
"363 309 CURVE",
"356 306 OFFCURVE",
"353 301 OFFCURVE",
"352 296 CURVE",
"341 285 OFFCURVE",
"350 260 OFFCURVE",
"370 265 CURVE SMOOTH",
"407 274 LINE",
"399 244 OFFCURVE",
"391 215 OFFCURVE",
"384 185 CURVE SMOOTH",
"366 112 OFFCURVE",
"302 43 OFFCURVE",
"228 17 CURVE",
"224 20 OFFCURVE",
"217 20 OFFCURVE",
"210 16 CURVE",
"209 15 LINE",
"206 16 OFFCURVE",
"203 16 OFFCURVE",
"199 16 CURVE SMOOTH",
"191 16 OFFCURVE",
"184 12 OFFCURVE",
"176 12 CURVE SMOOTH",
"156 12 OFFCURVE",
"114 27 OFFCURVE",
"98 38 CURVE SMOOTH",
"97 39 LINE",
"96 54 OFFCURVE",
"90 63 OFFCURVE",
"75 68 CURVE",
"84 93 OFFCURVE",
"62 107 OFFCURVE",
"51 124 CURVE SMOOTH",
"50 126 LINE",
"57 143 OFFCURVE",
"62 156 OFFCURVE",
"50 168 CURVE",
"60 176 OFFCURVE",
"68 188 OFFCURVE",
"58 202 CURVE",
"60 204 LINE SMOOTH",
"73 217 OFFCURVE",
"73 229 OFFCURVE",
"67 245 CURVE SMOOTH",
"66 249 LINE",
"81 263 OFFCURVE",
"99 260 OFFCURVE",
"95 290 CURVE",
"96 291 LINE",
"113 294 OFFCURVE",
"128 292 OFFCURVE",
"134 313 CURVE",
"160 317 OFFCURVE",
"176 319 OFFCURVE",
"201 319 CURVE SMOOTH",
"203 319 OFFCURVE",
"206 319 OFFCURVE",
"207 319 CURVE",
"237 306 OFFCURVE",
"260 279 OFFCURVE",
"260 244 CURVE SMOOTH",
"260 223 OFFCURVE",
"255 207 OFFCURVE",
"245 197 CURVE",
"230 192 OFFCURVE",
"212 192 OFFCURVE",
"197 192 CURVE SMOOTH",
"195 192 OFFCURVE",
"194 193 OFFCURVE",
"192 193 CURVE",
"177 209 OFFCURVE",
"152 214 OFFCURVE",
"160 182 CURVE",
"161 181 OFFCURVE",
"161 179 OFFCURVE",
"162 178 CURVE",
"161 171 OFFCURVE",
"164 164 OFFCURVE",
"170 161 CURVE",
"179 151 OFFCURVE",
"191 147 OFFCURVE",
"208 147 CURVE SMOOTH",
"233 147 OFFCURVE",
"252 154 OFFCURVE",
"266 166 CURVE",
"291 176 OFFCURVE",
"309 196 OFFCURVE",
"309 233 CURVE SMOOTH",
"309 307 OFFCURVE",
"268 368 OFFCURVE",
"181 368 CURVE SMOOTH",
"167 368 OFFCURVE",
"156 366 OFFCURVE",
"146 363 CURVE",
"46 347 OFFCURVE",
"1 228 OFFCURVE",
"1 144 CURVE SMOOTH",
"1 28 OFFCURVE",
"60 -31 OFFCURVE",
"168 -31 CURVE SMOOTH",
"255 -31 OFFCURVE",
"351 36 OFFCURVE",
"393 108 CURVE SMOOTH",
"418 150 OFFCURVE",
"421 196 OFFCURVE",
"437 241 CURVE SMOOTH",
"441 255 OFFCURVE",
"445 270 OFFCURVE",
"449 284 CURVE",
"512 299 OFFCURVE",
"575 312 OFFCURVE",
"640 316 CURVE",
"639 297 OFFCURVE",
"648 300 OFFCURVE",
"650 281 CURVE",
"650 281 OFFCURVE",
"648 251 OFFCURVE",
"646 230 CURVE SMOOTH",
"644 202 OFFCURVE",
"639 117 OFFCURVE",
"639 88 CURVE SMOOTH",
"639 81 OFFCURVE",
"627 67 OFFCURVE",
"627 49 CURVE SMOOTH",
"627 37 OFFCURVE",
"631 29 OFFCURVE",
"635 22 CURVE SMOOTH",
"658 -14 OFFCURVE",
"636 -85 OFFCURVE",
"709 -85 CURVE SMOOTH",
"713 -85 LINE SMOOTH",
"718 -86 OFFCURVE",
"724 -86 OFFCURVE",
"730 -86 CURVE SMOOTH",
"735 -86 OFFCURVE",
"740 -87 OFFCURVE",
"745 -86 CURVE SMOOTH",
"768 -83 OFFCURVE",
"773 -67 OFFCURVE",
"769 -55 CURVE"
);
},
{
closed = 1;
nodes = (
"635 361 OFFCURVE",
"620 363 OFFCURVE",
"606 363 CURVE SMOOTH",
"581 363 OFFCURVE",
"552 354 OFFCURVE",
"528 354 CURVE",
"522 356 OFFCURVE",
"517 359 OFFCURVE",
"510 359 CURVE SMOOTH",
"494 359 OFFCURVE",
"489 350 OFFCURVE",
"477 343 CURVE",
"472 343 OFFCURVE",
"467 342 OFFCURVE",
"463 342 CURVE",
"475 398 OFFCURVE",
"486 455 OFFCURVE",
"508 508 CURVE SMOOTH",
"514 522 OFFCURVE",
"538 563 OFFCURVE",
"558 576 CURVE",
"560 575 OFFCURVE",
"562 575 OFFCURVE",
"565 575 CURVE SMOOTH",
"586 575 OFFCURVE",
"603 568 OFFCURVE",
"615 557 CURVE",
"626 532 OFFCURVE",
"644 487 OFFCURVE",
"646 482 CURVE SMOOTH",
"647 480 OFFCURVE",
"648 477 OFFCURVE",
"649 475 CURVE",
"654 434 OFFCURVE",
"651 389 OFFCURVE",
"651 358 CURVE"
);
},
{
closed = 1;
nodes = (
"731 653 OFFCURVE",
"730 655 OFFCURVE",
"729 656 CURVE SMOOTH",
"714 679 OFFCURVE",
"688 690 OFFCURVE",
"672 711 CURVE SMOOTH",
"660 726 OFFCURVE",
"650 742 OFFCURVE",
"635 754 CURVE SMOOTH",
"632 756 OFFCURVE",
"630 759 OFFCURVE",
"628 761 CURVE SMOOTH",
"624 766 OFFCURVE",
"620 768 OFFCURVE",
"614 770 CURVE",
"613 771 OFFCURVE",
"610 772 OFFCURVE",
"607 772 CURVE SMOOTH",
"604 772 OFFCURVE",
"591 763 OFFCURVE",
"590 762 CURVE",
"574 759 OFFCURVE",
"571 757 OFFCURVE",
"569 745 CURVE SMOOTH",
"569 744 OFFCURVE",
"560 738 OFFCURVE",
"559 738 CURVE",
"551 729 LINE SMOOTH",
"548 726 OFFCURVE",
"542 727 OFFCURVE",
"535 719 CURVE SMOOTH",
"511 691 OFFCURVE",
"499 684 OFFCURVE",
"474 657 CURVE SMOOTH",
"467 649 OFFCURVE",
"479 635 OFFCURVE",
"486 643 CURVE SMOOTH",
"511 670 OFFCURVE",
"519 670 OFFCURVE",
"543 699 CURVE SMOOTH",
"547 703 OFFCURVE",
"562 716 OFFCURVE",
"567 715 CURVE SMOOTH",
"571 715 LINE SMOOTH",
"588 714 OFFCURVE",
"592 720 OFFCURVE",
"592 729 CURVE",
"598 731 OFFCURVE",
"605 726 OFFCURVE",
"609 722 CURVE",
"612 714 OFFCURVE",
"615 715 OFFCURVE",
"621 713 CURVE",
"621 713 OFFCURVE",
"622 712 OFFCURVE",
"622 711 CURVE SMOOTH",
"623 708 OFFCURVE",
"628 710 OFFCURVE",
"629 706 CURVE SMOOTH",
"634 688 OFFCURVE",
"658 671 OFFCURVE",
"661 662 CURVE SMOOTH",
"663 658 OFFCURVE",
"668 663 OFFCURVE",
"671 659 CURVE SMOOTH",
"674 656 OFFCURVE",
"696 636 OFFCURVE",
"703 636 CURVE SMOOTH",
"710 636 OFFCURVE",
"733 646 OFFCURVE",
"731 652 CURVE"
);
}
);
width = 783;
}
);
note = Acircumflex;
unicode = 00C2;
},
{
glyphname = Adieresis;
lastChange = "2021-04-16 08:59:17 +0000";
layers = (
{
hints = (
{
horizontal = 1;
place = "{-87, 39}";
type = Stem;
},
{
horizontal = 1;
place = "{-31, 47}";
type = Stem;
},
{
horizontal = 1;
place = "{148, 45}";
type = Stem;
},
{
horizontal = 1;
place = "{318, 50}";
type = Stem;
},
{
horizontal = 1;
place = "{575, 42}";
type = Stem;
},
{
place = "{2, 76}";
type = Stem;
},
{
place = "{260, 49}";
type = Stem;
},
{
place = "{650, 52}";
type = Stem;
}
);
layerId = "5C71BA0D-BC2C-47B0-9323-6F63B3241D58";
paths = (
{
closed = 1;
nodes = (
"767 -43 OFFCURVE",
"755 -35 OFFCURVE",
"741 -45 CURVE SMOOTH",
"740 -46 OFFCURVE",
"736 -48 OFFCURVE",
"733 -48 CURVE SMOOTH",
"721 -48 LINE",
"720 -48 LINE",
"685 -31 OFFCURVE",
"697 80 OFFCURVE",
"699 103 CURVE",
"705 105 OFFCURVE",
"701 152 OFFCURVE",
"701 158 CURVE SMOOTH",
"701 243 LINE SMOOTH",
"701 264 OFFCURVE",
"703 285 OFFCURVE",
"704 307 CURVE",
"720 304 OFFCURVE",
"736 300 OFFCURVE",
"750 299 CURVE SMOOTH",
"773 296 OFFCURVE",
"782 318 OFFCURVE",
"763 332 CURVE SMOOTH",
"745 345 OFFCURVE",
"726 351 OFFCURVE",
"706 353 CURVE",
"706 373 OFFCURVE",
"705 389 OFFCURVE",
"705 403 CURVE SMOOTH",
"705 431 OFFCURVE",
"706 459 OFFCURVE",
"703 487 CURVE SMOOTH",
"698 545 OFFCURVE",
"685 609 OFFCURVE",
"606 614 CURVE",
"597 616 OFFCURVE",
"585 616 OFFCURVE",
"569 616 CURVE SMOOTH",
"486 616 OFFCURVE",
"447 440 OFFCURVE",
"435 387 CURVE SMOOTH",
"431 369 OFFCURVE",
"427 352 OFFCURVE",
"422 334 CURVE",
"401 328 OFFCURVE",
"380 319 OFFCURVE",
"363 309 CURVE",
"356 306 OFFCURVE",
"353 301 OFFCURVE",
"352 296 CURVE",
"341 285 OFFCURVE",
"350 260 OFFCURVE",
"370 265 CURVE SMOOTH",
"407 274 LINE",
"399 244 OFFCURVE",
"391 215 OFFCURVE",
"384 185 CURVE SMOOTH",
"366 112 OFFCURVE",
"302 43 OFFCURVE",
"228 17 CURVE",
"224 20 OFFCURVE",
"217 20 OFFCURVE",
"210 16 CURVE",
"209 15 LINE",
"206 16 OFFCURVE",
"203 16 OFFCURVE",
"199 16 CURVE SMOOTH",
"191 16 OFFCURVE",
"184 12 OFFCURVE",
"176 12 CURVE SMOOTH",
"156 12 OFFCURVE",
"114 27 OFFCURVE",
"98 38 CURVE SMOOTH",
"97 39 LINE",
"96 54 OFFCURVE",
"90 63 OFFCURVE",
"75 68 CURVE",
"84 93 OFFCURVE",
"62 107 OFFCURVE",
"51 124 CURVE SMOOTH",
"50 126 LINE",
"57 143 OFFCURVE",
"62 156 OFFCURVE",
"50 168 CURVE",
"60 176 OFFCURVE",
"68 188 OFFCURVE",
"58 202 CURVE",
"60 204 LINE SMOOTH",
"73 217 OFFCURVE",
"73 229 OFFCURVE",
"67 245 CURVE SMOOTH",
"66 249 LINE",
"81 263 OFFCURVE",
"99 260 OFFCURVE",
"95 290 CURVE",
"96 291 LINE",
"113 294 OFFCURVE",
"128 292 OFFCURVE",
"134 313 CURVE",
"160 317 OFFCURVE",
"176 319 OFFCURVE",
"201 319 CURVE SMOOTH",
"203 319 OFFCURVE",
"206 319 OFFCURVE",
"207 319 CURVE",
"237 306 OFFCURVE",
"260 279 OFFCURVE",
"260 244 CURVE SMOOTH",
"260 223 OFFCURVE",
"255 207 OFFCURVE",
"245 197 CURVE",
"230 192 OFFCURVE",
"212 192 OFFCURVE",
"197 192 CURVE SMOOTH",
"195 192 OFFCURVE",
"194 193 OFFCURVE",
"192 193 CURVE",
"177 209 OFFCURVE",
"152 214 OFFCURVE",
"160 182 CURVE",
"161 181 OFFCURVE",
"161 179 OFFCURVE",
"162 178 CURVE",
"161 171 OFFCURVE",
"164 164 OFFCURVE",
"170 161 CURVE",
"179 151 OFFCURVE",
"191 147 OFFCURVE",
"208 147 CURVE SMOOTH",
"233 147 OFFCURVE",
"252 154 OFFCURVE",
"266 166 CURVE",
"291 176 OFFCURVE",
"309 196 OFFCURVE",
"309 233 CURVE SMOOTH",
"309 307 OFFCURVE",
"268 368 OFFCURVE",
"181 368 CURVE SMOOTH",
"167 368 OFFCURVE",
"156 366 OFFCURVE",
"146 363 CURVE",
"46 347 OFFCURVE",
"1 228 OFFCURVE",
"1 144 CURVE SMOOTH",
"1 28 OFFCURVE",
"60 -31 OFFCURVE",
"168 -31 CURVE SMOOTH",
"255 -31 OFFCURVE",
"351 36 OFFCURVE",
"393 108 CURVE SMOOTH",
"418 150 OFFCURVE",
"421 196 OFFCURVE",
"437 241 CURVE SMOOTH",
"441 255 OFFCURVE",
"445 270 OFFCURVE",
"449 284 CURVE",
"512 299 OFFCURVE",
"575 312 OFFCURVE",
"640 316 CURVE",
"639 297 OFFCURVE",
"648 300 OFFCURVE",
"650 281 CURVE",
"650 281 OFFCURVE",
"648 251 OFFCURVE",
"646 230 CURVE SMOOTH",
"644 202 OFFCURVE",
"639 117 OFFCURVE",
"639 88 CURVE SMOOTH",
"639 81 OFFCURVE",
"627 67 OFFCURVE",
"627 49 CURVE SMOOTH",
"627 37 OFFCURVE",
"631 29 OFFCURVE",
"635 22 CURVE SMOOTH",
"658 -14 OFFCURVE",
"636 -85 OFFCURVE",
"709 -85 CURVE SMOOTH",
"713 -85 LINE SMOOTH",
"718 -86 OFFCURVE",
"724 -86 OFFCURVE",
"730 -86 CURVE SMOOTH",
"735 -86 OFFCURVE",
"740 -87 OFFCURVE",
"745 -86 CURVE SMOOTH",
"768 -83 OFFCURVE",
"773 -67 OFFCURVE",
"769 -55 CURVE"
);
},
{
closed = 1;
nodes = (
"635 361 OFFCURVE",
"620 363 OFFCURVE",
"606 363 CURVE SMOOTH",
"581 363 OFFCURVE",
"552 354 OFFCURVE",
"528 354 CURVE",
"522 356 OFFCURVE",
"517 359 OFFCURVE",
"510 359 CURVE SMOOTH",
"494 359 OFFCURVE",
"489 350 OFFCURVE",
"477 343 CURVE",
"472 343 OFFCURVE",
"467 342 OFFCURVE",
"463 342 CURVE",
"475 398 OFFCURVE",
"486 455 OFFCURVE",
"508 508 CURVE SMOOTH",
"514 522 OFFCURVE",
"538 563 OFFCURVE",
"558 576 CURVE",
"560 575 OFFCURVE",
"562 575 OFFCURVE",
"565 575 CURVE SMOOTH",
"586 575 OFFCURVE",
"603 568 OFFCURVE",
"615 557 CURVE",
"626 532 OFFCURVE",
"644 487 OFFCURVE",
"646 482 CURVE SMOOTH",
"647 480 OFFCURVE",
"648 477 OFFCURVE",
"649 475 CURVE",
"654 434 OFFCURVE",
"651 389 OFFCURVE",
"651 358 CURVE"
);
},
{
closed = 1;
nodes = (
"706 727 OFFCURVE",
"688 742 OFFCURVE",
"664 739 CURVE SMOOTH",
"655 737 OFFCURVE",
"634 716 OFFCURVE",
"636 706 CURVE SMOOTH",
"638 691 OFFCURVE",
"646 665 OFFCURVE",
"677 667 CURVE SMOOTH",
"680 667 OFFCURVE",
"681 665 OFFCURVE",
"684 664 CURVE",
"684 664 OFFCURVE",
"685 663 OFFCURVE",
"686 663 CURVE SMOOTH",
"705 666 OFFCURVE",
"709 701 OFFCURVE",
"708 708 CURVE SMOOTH"
);
},
{
closed = 1;
nodes = (
"576 726 OFFCURVE",
"559 740 OFFCURVE",
"534 737 CURVE SMOOTH",
"525 736 OFFCURVE",
"505 715 OFFCURVE",
"507 705 CURVE SMOOTH",
"509 689 OFFCURVE",
"516 664 OFFCURVE",
"547 665 CURVE SMOOTH",
"550 665 OFFCURVE",
"552 664 OFFCURVE",
"555 662 CURVE",
"555 662 OFFCURVE",
"556 661 OFFCURVE",
"557 661 CURVE SMOOTH",
"576 664 OFFCURVE",
"580 699 OFFCURVE",
"579 707 CURVE SMOOTH"
);
}
);
width = 783;
}
);
note = Adieresis;
unicode = 00C4;
},
{
glyphname = Aring;
lastChange = "2021-04-16 08:59:17 +0000";
layers = (
{
hints = (
{
horizontal = 1;
place = "{-87, 39}";
type = Stem;
},
{
horizontal = 1;
place = "{-31, 47}";
type = Stem;
},
{
horizontal = 1;
place = "{148, 45}";
type = Stem;
},
{
horizontal = 1;
place = "{318, 50}";
type = Stem;
},
{
horizontal = 1;
place = "{693, 36}";
type = Stem;
},
{
place = "{2, 61}";
type = Stem;
},
{
place = "{260, 49}";
type = Stem;
},
{
place = "{632, 29}";
type = Stem;
}
);
layerId = "5C71BA0D-BC2C-47B0-9323-6F63B3241D58";
paths = (
{
closed = 1;
nodes = (
"635 361 OFFCURVE",
"620 363 OFFCURVE",
"606 363 CURVE SMOOTH",
"581 363 OFFCURVE",
"552 354 OFFCURVE",
"528 354 CURVE",
"522 356 OFFCURVE",
"517 359 OFFCURVE",
"510 359 CURVE SMOOTH",
"494 359 OFFCURVE",
"489 350 OFFCURVE",
"477 343 CURVE",
"472 343 OFFCURVE",
"467 342 OFFCURVE",
"463 342 CURVE",
"475 398 OFFCURVE",
"486 455 OFFCURVE",
"508 508 CURVE SMOOTH",
"514 522 OFFCURVE",
"538 563 OFFCURVE",
"558 576 CURVE",
"560 575 OFFCURVE",
"562 575 OFFCURVE",
"565 575 CURVE SMOOTH",
"586 575 OFFCURVE",
"603 568 OFFCURVE",
"615 557 CURVE",
"626 532 OFFCURVE",
"644 487 OFFCURVE",
"646 482 CURVE SMOOTH",
"647 480 OFFCURVE",
"648 477 OFFCURVE",
"649 475 CURVE",
"654 434 OFFCURVE",
"651 389 OFFCURVE",
"651 358 CURVE"
);
},
{
closed = 1;
nodes = (
"660 668 OFFCURVE",
"657 677 OFFCURVE",
"651 684 CURVE",
"647 704 OFFCURVE",
"631 717 OFFCURVE",
"613 722 CURVE",
"610 725 OFFCURVE",
"607 726 OFFCURVE",
"603 726 CURVE SMOOTH",
"598 726 OFFCURVE",
"595 726 OFFCURVE",
"591 725 CURVE SMOOTH",
"589 725 OFFCURVE",
"587 725 OFFCURVE",
"586 725 CURVE SMOOTH",
"584 725 OFFCURVE",
"582 725 OFFCURVE",
"581 724 CURVE",
"569 738 OFFCURVE",
"522 718 OFFCURVE",
"522 667 CURVE SMOOTH",
"522 656 OFFCURVE",
"525 647 OFFCURVE",
"528 639 CURVE",
"530 628 OFFCURVE",
"540 620 OFFCURVE",
"552 614 CURVE",
"481 593 OFFCURVE",
"446 436 OFFCURVE",
"435 387 CURVE SMOOTH",
"431 369 OFFCURVE",
"427 352 OFFCURVE",
"422 334 CURVE",
"401 328 OFFCURVE",
"380 319 OFFCURVE",
"363 309 CURVE",
"356 306 OFFCURVE",
"353 301 OFFCURVE",
"352 296 CURVE",
"341 285 OFFCURVE",
"350 260 OFFCURVE",
"370 265 CURVE SMOOTH",
"407 274 LINE",
"399 244 OFFCURVE",
"391 215 OFFCURVE",
"384 185 CURVE SMOOTH",
"366 112 OFFCURVE",
"302 43 OFFCURVE",
"228 17 CURVE",
"224 20 OFFCURVE",
"217 20 OFFCURVE",
"210 16 CURVE",
"209 15 LINE",
"206 16 OFFCURVE",
"203 16 OFFCURVE",
"199 16 CURVE SMOOTH",
"191 16 OFFCURVE",
"184 12 OFFCURVE",
"176 12 CURVE SMOOTH",
"156 12 OFFCURVE",
"114 27 OFFCURVE",
"98 38 CURVE SMOOTH",
"97 39 LINE",
"96 54 OFFCURVE",
"90 63 OFFCURVE",
"75 68 CURVE",
"84 93 OFFCURVE",
"62 107 OFFCURVE",
"51 124 CURVE SMOOTH",
"50 126 LINE",
"57 143 OFFCURVE",
"62 156 OFFCURVE",
"50 168 CURVE",
"60 176 OFFCURVE",
"68 188 OFFCURVE",
"58 202 CURVE",
"60 204 LINE SMOOTH",
"73 217 OFFCURVE",
"73 229 OFFCURVE",
"67 245 CURVE SMOOTH",
"66 249 LINE",
"81 263 OFFCURVE",
"99 260 OFFCURVE",
"95 290 CURVE",
"96 291 LINE",
"113 294 OFFCURVE",
"128 292 OFFCURVE",
"134 313 CURVE",
"160 317 OFFCURVE",
"176 319 OFFCURVE",
"201 319 CURVE SMOOTH",
"203 319 OFFCURVE",
"206 319 OFFCURVE",
"207 319 CURVE",
"237 306 OFFCURVE",
"260 279 OFFCURVE",
"260 244 CURVE SMOOTH",
"260 223 OFFCURVE",
"255 207 OFFCURVE",
"245 197 CURVE",
"230 192 OFFCURVE",
"212 192 OFFCURVE",
"197 192 CURVE SMOOTH",
"195 192 OFFCURVE",
"194 193 OFFCURVE",
"192 193 CURVE",
"177 209 OFFCURVE",
"152 214 OFFCURVE",
"160 182 CURVE",
"161 181 OFFCURVE",
"161 179 OFFCURVE",
"162 178 CURVE",
"161 171 OFFCURVE",
"164 164 OFFCURVE",
"170 161 CURVE",
"179 151 OFFCURVE",
"191 147 OFFCURVE",
"208 147 CURVE SMOOTH",
"233 147 OFFCURVE",
"252 154 OFFCURVE",
"266 166 CURVE",
"291 176 OFFCURVE",
"309 196 OFFCURVE",
"309 233 CURVE SMOOTH",
"309 307 OFFCURVE",
"268 368 OFFCURVE",
"181 368 CURVE SMOOTH",
"167 368 OFFCURVE",
"156 366 OFFCURVE",
"146 363 CURVE",
"46 347 OFFCURVE",
"1 228 OFFCURVE",
"1 144 CURVE SMOOTH",
"1 28 OFFCURVE",
"60 -31 OFFCURVE",
"168 -31 CURVE SMOOTH",
"255 -31 OFFCURVE",
"351 36 OFFCURVE",
"393 108 CURVE SMOOTH",
"418 150 OFFCURVE",
"421 196 OFFCURVE",
"437 241 CURVE SMOOTH",
"441 255 OFFCURVE",
"445 270 OFFCURVE",
"449 284 CURVE",
"512 299 OFFCURVE",
"575 312 OFFCURVE",
"640 316 CURVE",
"639 297 OFFCURVE",
"648 300 OFFCURVE",
"650 281 CURVE",
"650 281 OFFCURVE",
"648 251 OFFCURVE",
"646 230 CURVE SMOOTH",
"644 202 OFFCURVE",
"639 117 OFFCURVE",
"639 88 CURVE SMOOTH",
"639 81 OFFCURVE",
"627 67 OFFCURVE",
"627 49 CURVE SMOOTH",
"627 37 OFFCURVE",
"631 29 OFFCURVE",
"635 22 CURVE SMOOTH",
"658 -14 OFFCURVE",
"636 -85 OFFCURVE",
"709 -85 CURVE SMOOTH",
"713 -85 LINE SMOOTH",
"718 -86 OFFCURVE",
"724 -86 OFFCURVE",
"730 -86 CURVE SMOOTH",
"735 -86 OFFCURVE",
"740 -87 OFFCURVE",
"745 -86 CURVE SMOOTH",
"768 -83 OFFCURVE",
"773 -67 OFFCURVE",
"769 -55 CURVE",
"767 -43 OFFCURVE",
"755 -35 OFFCURVE",
"741 -45 CURVE SMOOTH",
"740 -46 OFFCURVE",
"736 -48 OFFCURVE",
"733 -48 CURVE SMOOTH",
"721 -48 LINE",
"720 -48 LINE",
"685 -31 OFFCURVE",
"697 80 OFFCURVE",
"699 103 CURVE",
"705 105 OFFCURVE",
"701 152 OFFCURVE",
"701 158 CURVE SMOOTH",
"701 243 LINE SMOOTH",
"701 264 OFFCURVE",
"703 285 OFFCURVE",
"704 307 CURVE",
"720 304 OFFCURVE",
"736 300 OFFCURVE",
"750 299 CURVE SMOOTH",
"773 296 OFFCURVE",
"782 318 OFFCURVE",
"763 332 CURVE SMOOTH",
"745 345 OFFCURVE",
"726 351 OFFCURVE",
"706 353 CURVE",
"706 373 OFFCURVE",
"705 389 OFFCURVE",
"705 403 CURVE SMOOTH",
"705 431 OFFCURVE",
"706 459 OFFCURVE",
"703 487 CURVE SMOOTH",
"698 538 OFFCURVE",
"688 595 OFFCURVE",
"631 610 CURVE",
"633 612 OFFCURVE",
"636 614 OFFCURVE",
"638 616 CURVE",
"651 622 OFFCURVE",
"660 635 OFFCURVE",
"660 657 CURVE SMOOTH"
);
},
{
closed = 1;
nodes = (
"628 651 OFFCURVE",
"614 636 OFFCURVE",
"594 630 CURVE",
"577 631 OFFCURVE",
"558 634 OFFCURVE",
"548 646 CURVE",
"549 661 OFFCURVE",
"555 693 OFFCURVE",
"568 693 CURVE SMOOTH",
"577 693 OFFCURVE",
"594 691 OFFCURVE",
"610 686 CURVE",
"618 680 OFFCURVE",
"626 675 OFFCURVE",
"631 669 CURVE"
);
}
);
width = 783;
}
);
note = Aring;
unicode = 00C5;
},
{
glyphname = Atilde;
lastChange = "2021-04-16 08:59:17 +0000";
layers = (
{
hints = (
{
horizontal = 1;
place = "{-87, 39}";
type = Stem;
},
{
horizontal = 1;
place = "{-31, 47}";
type = Stem;
},
{
horizontal = 1;
place = "{148, 45}";
type = Stem;
},
{
horizontal = 1;
place = "{319, 50}";
type = Stem;
},
{
horizontal = 1;
place = "{575, 42}";
type = Stem;
},
{
horizontal = 1;
place = "{682, 35}";
type = Stem;
},
{
horizontal = 1;
place = "{732, 47}";
type = Stem;
},
{
place = "{2, 61}";
type = Stem;
},
{
place = "{260, 49}";
type = Stem;
},
{
place = "{650, 52}";
type = Stem;
}
);
layerId = "5C71BA0D-BC2C-47B0-9323-6F63B3241D58";
paths = (
{
closed = 1;
nodes = (
"767 -43 OFFCURVE",
"755 -35 OFFCURVE",
"741 -45 CURVE SMOOTH",
"740 -46 OFFCURVE",
"736 -48 OFFCURVE",
"733 -48 CURVE SMOOTH",
"721 -48 LINE",
"720 -48 LINE",
"685 -31 OFFCURVE",
"697 80 OFFCURVE",
"699 103 CURVE",
"705 105 OFFCURVE",
"701 152 OFFCURVE",
"701 158 CURVE SMOOTH",
"701 243 LINE SMOOTH",
"701 264 OFFCURVE",
"703 285 OFFCURVE",
"704 307 CURVE",
"720 304 OFFCURVE",
"736 300 OFFCURVE",
"750 299 CURVE SMOOTH",
"773 296 OFFCURVE",
"782 318 OFFCURVE",
"763 332 CURVE SMOOTH",
"745 345 OFFCURVE",
"726 351 OFFCURVE",
"706 353 CURVE",
"706 373 OFFCURVE",
"705 389 OFFCURVE",
"705 403 CURVE SMOOTH",
"705 431 OFFCURVE",
"706 459 OFFCURVE",
"703 487 CURVE SMOOTH",
"698 545 OFFCURVE",
"685 609 OFFCURVE",
"606 614 CURVE",
"597 616 OFFCURVE",
"585 616 OFFCURVE",
"569 616 CURVE SMOOTH",
"486 616 OFFCURVE",
"447 440 OFFCURVE",
"435 387 CURVE SMOOTH",
"431 369 OFFCURVE",
"427 352 OFFCURVE",
"422 334 CURVE",
"401 328 OFFCURVE",
"380 319 OFFCURVE",
"363 309 CURVE",
"356 306 OFFCURVE",
"353 301 OFFCURVE",
"352 296 CURVE",
"341 285 OFFCURVE",
"350 260 OFFCURVE",
"370 265 CURVE SMOOTH",
"407 274 LINE",
"399 244 OFFCURVE",
"391 215 OFFCURVE",
"384 185 CURVE SMOOTH",
"366 112 OFFCURVE",
"302 43 OFFCURVE",
"228 17 CURVE",
"224 20 OFFCURVE",
"217 20 OFFCURVE",
"210 16 CURVE",
"209 15 LINE",
"206 16 OFFCURVE",
"203 16 OFFCURVE",
"199 16 CURVE SMOOTH",
"191 16 OFFCURVE",
"184 12 OFFCURVE",
"176 12 CURVE SMOOTH",
"156 12 OFFCURVE",
"114 27 OFFCURVE",
"98 38 CURVE SMOOTH",
"97 39 LINE",
"96 54 OFFCURVE",
"90 63 OFFCURVE",
"75 68 CURVE",
"84 93 OFFCURVE",
"62 107 OFFCURVE",
"51 124 CURVE SMOOTH",
"50 126 LINE",
"57 143 OFFCURVE",
"62 156 OFFCURVE",
"50 168 CURVE",
"60 176 OFFCURVE",
"68 188 OFFCURVE",
"58 202 CURVE",
"60 204 LINE SMOOTH",
"73 217 OFFCURVE",
"73 229 OFFCURVE",
"67 245 CURVE SMOOTH",
"66 249 LINE",
"81 263 OFFCURVE",
"99 260 OFFCURVE",
"95 290 CURVE",
"96 291 LINE",
"113 294 OFFCURVE",
"128 292 OFFCURVE",
"134 313 CURVE",
"160 317 OFFCURVE",
"176 319 OFFCURVE",
"201 319 CURVE SMOOTH",
"203 319 OFFCURVE",
"206 319 OFFCURVE",
"207 319 CURVE",
"237 306 OFFCURVE",
"260 279 OFFCURVE",
"260 244 CURVE SMOOTH",
"260 223 OFFCURVE",
"255 207 OFFCURVE",
"245 197 CURVE",
"230 192 OFFCURVE",
"212 192 OFFCURVE",
"197 192 CURVE SMOOTH",
"195 192 OFFCURVE",
"194 193 OFFCURVE",
"192 193 CURVE",
"177 209 OFFCURVE",
"152 214 OFFCURVE",
"160 182 CURVE",
"161 181 OFFCURVE",
"161 179 OFFCURVE",
"162 178 CURVE",
"161 171 OFFCURVE",
"164 164 OFFCURVE",
"170 161 CURVE",
"179 151 OFFCURVE",
"191 147 OFFCURVE",
"208 147 CURVE SMOOTH",
"233 147 OFFCURVE",
"252 154 OFFCURVE",
"266 166 CURVE",
"291 176 OFFCURVE",
"309 196 OFFCURVE",
"309 233 CURVE SMOOTH",
"309 307 OFFCURVE",
"268 368 OFFCURVE",
"181 368 CURVE SMOOTH",
"167 368 OFFCURVE",
"156 366 OFFCURVE",
"146 363 CURVE",
"46 347 OFFCURVE",
"1 228 OFFCURVE",
"1 144 CURVE SMOOTH",
"1 28 OFFCURVE",
"60 -31 OFFCURVE",
"168 -31 CURVE SMOOTH",
"255 -31 OFFCURVE",
"351 36 OFFCURVE",
"393 108 CURVE SMOOTH",
"418 150 OFFCURVE",
"421 196 OFFCURVE",
"437 241 CURVE SMOOTH",
"441 255 OFFCURVE",
"445 270 OFFCURVE",
"449 284 CURVE",
"512 299 OFFCURVE",
"575 312 OFFCURVE",
"640 316 CURVE",
"639 297 OFFCURVE",
"648 300 OFFCURVE",
"650 281 CURVE",
"650 281 OFFCURVE",
"648 251 OFFCURVE",
"646 230 CURVE SMOOTH",
"644 202 OFFCURVE",
"639 117 OFFCURVE",
"639 88 CURVE SMOOTH",
"639 81 OFFCURVE",
"627 67 OFFCURVE",
"627 49 CURVE SMOOTH",
"627 37 OFFCURVE",
"631 29 OFFCURVE",
"635 22 CURVE SMOOTH",
"658 -14 OFFCURVE",
"636 -85 OFFCURVE",
"709 -85 CURVE SMOOTH",
"713 -85 LINE SMOOTH",
"718 -86 OFFCURVE",
"724 -86 OFFCURVE",
"730 -86 CURVE SMOOTH",
"735 -86 OFFCURVE",
"740 -87 OFFCURVE",
"745 -86 CURVE SMOOTH",
"768 -83 OFFCURVE",
"773 -67 OFFCURVE",
"769 -55 CURVE"
);
},
{
closed = 1;
nodes = (
"635 361 OFFCURVE",
"620 363 OFFCURVE",
"606 363 CURVE SMOOTH",
"581 363 OFFCURVE",
"552 354 OFFCURVE",
"528 354 CURVE",
"522 356 OFFCURVE",
"517 359 OFFCURVE",
"510 359 CURVE SMOOTH",
"494 359 OFFCURVE",
"489 350 OFFCURVE",
"477 343 CURVE",
"472 343 OFFCURVE",
"467 342 OFFCURVE",
"463 342 CURVE",
"475 398 OFFCURVE",
"486 455 OFFCURVE",
"508 508 CURVE SMOOTH",
"514 522 OFFCURVE",
"538 563 OFFCURVE",
"558 576 CURVE",
"560 575 OFFCURVE",
"562 575 OFFCURVE",
"565 575 CURVE SMOOTH",
"586 575 OFFCURVE",
"603 568 OFFCURVE",
"615 557 CURVE",
"626 532 OFFCURVE",
"644 487 OFFCURVE",
"646 482 CURVE SMOOTH",
"647 480 OFFCURVE",
"648 477 OFFCURVE",
"649 475 CURVE",
"654 434 OFFCURVE",
"651 389 OFFCURVE",
"651 358 CURVE"
);
},
{
closed = 1;
nodes = (
"723 732 OFFCURVE",
"722 736 OFFCURVE",
"720 739 CURVE",
"720 740 LINE SMOOTH",
"721 759 OFFCURVE",
"692 760 OFFCURVE",
"692 741 CURVE SMOOTH",
"691 723 OFFCURVE",
"685 717 OFFCURVE",
"672 717 CURVE SMOOTH",
"663 717 OFFCURVE",
"656 717 OFFCURVE",
"650 718 CURVE SMOOTH",
"630 723 OFFCURVE",
"639 779 OFFCURVE",
"598 779 CURVE SMOOTH",
"585 779 OFFCURVE",
"572 772 OFFCURVE",
"560 762 CURVE",
"552 759 OFFCURVE",
"548 752 OFFCURVE",
"543 744 CURVE SMOOTH",
"529 725 OFFCURVE",
"519 702 OFFCURVE",
"519 686 CURVE SMOOTH",
"518 666 OFFCURVE",
"544 666 OFFCURVE",
"547 685 CURVE SMOOTH",
"570 792 OFFCURVE",
"605 682 OFFCURVE",
"650 682 CURVE SMOOTH",
"685 682 OFFCURVE",
"714 693 OFFCURVE",
"722 728 CURVE SMOOTH"
);
}
);
width = 783;
}
);
note = Atilde;
unicode = 00C3;
},
{
glyphname = AE;
lastChange = "2021-04-16 08:59:17 +0000";
layers = (
{
hints = (
{
horizontal = 1;
place = "{-84, 43}";
type = Stem;
},
{
horizontal = 1;
place = "{99, 48}";
type = Stem;
},
{
horizontal = 1;
place = "{272, 42}";
type = Stem;
},
{
horizontal = 1;
place = "{347, 30}";
type = Stem;
},
{
horizontal = 1;
place = "{504, -20}";
target = down;
type = TopGhost;
},
{
horizontal = 1;
place = "{614, 41}";
type = Stem;
},
{
place = "{-6, 62}";
type = Stem;
},
{
place = "{303, 38}";
type = Stem;
},
{
place = "{637, 81}";
type = Stem;
},
{
place = "{1033, 42}";
type = Stem;
},
{
place = "{559, 54}";
type = Stem;
},
{
place = "{875, 53}";
type = Stem;
},
{
place = "{1067, 42}";
type = Stem;
},
{
horizontal = 1;
place = "{325, 35}";
type = Stem;
},
{
horizontal = 1;
place = "{403, 52}";
type = Stem;
},
{
place = "{648, 59}";
type = Stem;
},
{
place = "{873, 62}";
type = Stem;
},
{
horizontal = 1;
place = "{471, 40}";
type = Stem;
},
{
horizontal = 1;
place = "{-26, 55}";
type = Stem;
},
{
horizontal = 1;
place = "{326, -20}";
target = down;
type = TopGhost;
},
{
horizontal = 1;
place = "{497, -20}";
target = down;
type = TopGhost;
},
{
horizontal = 1;
place = "{648, -20}";
target = down;
type = TopGhost;
},
{
horizontal = 1;
place = "{322, 37}";
type = Stem;
},
{
place = "{539, 84}";
type = Stem;
},
{
horizontal = 1;
place = "{334, -20}";
target = down;
type = TopGhost;
}
);
layerId = "5C71BA0D-BC2C-47B0-9323-6F63B3241D58";
paths = (
{
closed = 1;
nodes = (
"1109 280 OFFCURVE",
"1076 315 OFFCURVE",
"1040 314 CURVE SMOOTH",
"983 314 OFFCURVE",
"942 309 OFFCURVE",
"904 266 CURVE SMOOTH",
"889 249 OFFCURVE",
"872 234 OFFCURVE",
"875 209 CURVE SMOOTH",
"877 180 OFFCURVE",
"908 153 OFFCURVE",
"927 154 CURVE SMOOTH",
"937 154 OFFCURVE",
"943 157 OFFCURVE",
"944 163 CURVE",
"946 168 OFFCURVE",
"944 172 OFFCURVE",
"945 176 CURVE SMOOTH",
"947 186 OFFCURVE",
"940 191 OFFCURVE",
"936 195 CURVE SMOOTH",
"933 197 LINE SMOOTH",
"930 199 OFFCURVE",
"928 202 OFFCURVE",
"928 205 CURVE SMOOTH",
"928 214 OFFCURVE",
"933 221 OFFCURVE",
"937 228 CURVE SMOOTH",
"960 264 OFFCURVE",
"991 272 OFFCURVE",
"1039 272 CURVE SMOOTH",
"1053 272 OFFCURVE",
"1067 259 OFFCURVE",
"1067 245 CURVE SMOOTH",
"1067 206 OFFCURVE",
"1055 177 OFFCURVE",
"1039 153 CURVE SMOOTH",
"1023 129 OFFCURVE",
"1001 109 OFFCURVE",
"982 88 CURVE SMOOTH",
"963 68 OFFCURVE",
"940 50 OFFCURVE",
"918 32 CURVE SMOOTH",
"874 -2 OFFCURVE",
"804 -41 OFFCURVE",
"733 -41 CURVE SMOOTH",
"721 -41 OFFCURVE",
"709 -40 OFFCURVE",
"698 -37 CURVE",
"696 -35 OFFCURVE",
"694 -34 OFFCURVE",
"691 -33 CURVE",
"693 -18 OFFCURVE",
"682 -11 OFFCURVE",
"669 -11 CURVE SMOOTH",
"668 -11 OFFCURVE",
"665 -8 OFFCURVE",
"665 -2 CURVE SMOOTH",
"665 6 OFFCURVE",
"659 13 OFFCURVE",
"651 13 CURVE SMOOTH",
"648 13 OFFCURVE",
"645 13 OFFCURVE",
"643 13 CURVE",
"643 18 LINE SMOOTH",
"643 35 OFFCURVE",
"634 46 OFFCURVE",
"618 50 CURVE",
"627 65 OFFCURVE",
"623 76 OFFCURVE",
"613 82 CURVE",
"616 151 OFFCURVE",
"650 220 OFFCURVE",
"690 274 CURVE",
"699 283 OFFCURVE",
"706 291 OFFCURVE",
"708 295 CURVE",
"708 298 LINE",
"721 313 OFFCURVE",
"734 326 OFFCURVE",
"747 337 CURVE",
"758 332 OFFCURVE",
"770 328 OFFCURVE",
"783 325 CURVE SMOOTH",
"849 311 OFFCURVE",
"935 372 OFFCURVE",
"935 409 CURVE SMOOTH",
"935 432 OFFCURVE",
"910 455 OFFCURVE",
"886 455 CURVE SMOOTH",
"836 455 OFFCURVE",
"777 415 OFFCURVE",
"740 386 CURVE",
"727 401 OFFCURVE",
"719 421 OFFCURVE",
"719 438 CURVE SMOOTH",
"719 533 OFFCURVE",
"823 614 OFFCURVE",
"917 614 CURVE SMOOTH",
"972 614 OFFCURVE",
"1033 609 OFFCURVE",
"1033 561 CURVE SMOOTH",
"1033 522 OFFCURVE",
"1021 511 OFFCURVE",
"986 511 CURVE SMOOTH",
"944 511 OFFCURVE",
"943 530 OFFCURVE",
"947 551 CURVE SMOOTH",
"950 568 OFFCURVE",
"963 601 OFFCURVE",
"933 601 CURVE SMOOTH",
"911 601 OFFCURVE",
"903 538 OFFCURVE",
"910 514 CURVE SMOOTH",
"916 493 OFFCURVE",
"959 470 OFFCURVE",
"1002 471 CURVE SMOOTH",
"1067 471 OFFCURVE",
"1075 493 OFFCURVE",
"1075 561 CURVE SMOOTH",
"1074 637 OFFCURVE",
"987 655 OFFCURVE",
"916 655 CURVE SMOOTH",
"826 655 OFFCURVE",
"727 590 OFFCURVE",
"691 504 CURVE",
"681 562 OFFCURVE",
"667 648 OFFCURVE",
"620 648 CURVE SMOOTH",
"595 648 OFFCURVE",
"582 636 OFFCURVE",
"573 621 CURVE SMOOTH",
"564 605 OFFCURVE",
"560 588 OFFCURVE",
"551 573 CURVE",
"550 572 OFFCURVE",
"549 570 OFFCURVE",
"548 567 CURVE",
"535 565 OFFCURVE",
"525 555 OFFCURVE",
"530 540 CURVE",
"528 539 LINE",
"524 538 LINE",
"504 528 OFFCURVE",
"500 513 OFFCURVE",
"509 497 CURVE",
"490 470 OFFCURVE",
"484 438 OFFCURVE",
"477 406 CURVE",
"469 396 OFFCURVE",
"462 386 OFFCURVE",
"468 368 CURVE",
"468 367 LINE",
"465 359 OFFCURVE",
"462 351 OFFCURVE",
"459 343 CURVE SMOOTH",
"456 337 OFFCURVE",
"453 331 OFFCURVE",
"451 326 CURVE",
"423 322 OFFCURVE",
"395 316 OFFCURVE",
"364 309 CURVE SMOOTH",
"332 302 OFFCURVE",
"342 254 OFFCURVE",
"374 261 CURVE SMOOTH",
"394 265 OFFCURVE",
"413 271 OFFCURVE",
"432 276 CURVE",
"411 217 OFFCURVE",
"397 166 OFFCURVE",
"361 113 CURVE SMOOTH",
"324 59 OFFCURVE",
"257 20 OFFCURVE",
"171 29 CURVE SMOOTH",
"100 37 OFFCURVE",
"56 94 OFFCURVE",
"56 181 CURVE SMOOTH",
"56 232 OFFCURVE",
"95 317 OFFCURVE",
"137 329 CURVE SMOOTH",
"145 331 OFFCURVE",
"158 339 OFFCURVE",
"174 344 CURVE SMOOTH",
"189 348 OFFCURVE",
"206 349 OFFCURVE",
"223 338 CURVE SMOOTH",
"272 308 OFFCURVE",
"303 244 OFFCURVE",
"303 189 CURVE SMOOTH",
"303 156 OFFCURVE",
"275 150 OFFCURVE",
"241 147 CURVE SMOOTH",
"207 144 OFFCURVE",
"211 96 OFFCURVE",
"244 99 CURVE SMOOTH",
"305 104 OFFCURVE",
"341 125 OFFCURVE",
"341 191 CURVE SMOOTH",
"341 264 OFFCURVE",
"303 322 OFFCURVE",
"239 363 CURVE SMOOTH",
"205 384 OFFCURVE",
"174 378 OFFCURVE",
"141 364 CURVE SMOOTH",
"133 360 OFFCURVE",
"126 357 OFFCURVE",
"120 355 CURVE SMOOTH",
"80 342 OFFCURVE",
"39 290 OFFCURVE",
"19 261 CURVE SMOOTH",
"7 246 OFFCURVE",
"-6 200 OFFCURVE",
"-6 176 CURVE SMOOTH",
"-7 61 OFFCURVE",
"39 -26 OFFCURVE",
"153 -26 CURVE SMOOTH",
"257 -27 OFFCURVE",
"343 35 OFFCURVE",
"389 102 CURVE SMOOTH",
"411 134 OFFCURVE",
"426 166 OFFCURVE",
"438 197 CURVE SMOOTH",
"450 228 OFFCURVE",
"460 257 OFFCURVE",
"471 287 CURVE",
"509 297 OFFCURVE",
"545 308 OFFCURVE",
"585 315 CURVE SMOOTH",
"601 318 OFFCURVE",
"625 320 OFFCURVE",
"648 322 CURVE",
"649 286 LINE",
"643 279 LINE",
"637 276 OFFCURVE",
"633 271 OFFCURVE",
"632 262 CURVE",
"628 256 LINE",
"627 256 LINE",
"624 255 LINE",
"604 252 OFFCURVE",
"597 235 OFFCURVE",
"604 217 CURVE",
"604 216 LINE",
"586 211 OFFCURVE",
"578 193 OFFCURVE",
"583 176 CURVE",
"581 172 OFFCURVE",
"579 168 OFFCURVE",
"577 165 CURVE",
"575 164 OFFCURVE",
"573 164 OFFCURVE",
"571 163 CURVE",
"554 161 OFFCURVE",
"557 145 OFFCURVE",
"564 133 CURVE",
"560 123 OFFCURVE",
"557 114 OFFCURVE",
"554 104 CURVE",
"549 101 OFFCURVE",
"544 99 OFFCURVE",
"540 96 CURVE SMOOTH",
"524 85 OFFCURVE",
"531 77 OFFCURVE",
"545 70 CURVE",
"541 54 OFFCURVE",
"539 39 OFFCURVE",
"539 24 CURVE SMOOTH",
"539 -137 OFFCURVE",
"857 -88 OFFCURVE",
"940 -21 CURVE SMOOTH",
"951 -12 OFFCURVE",
"969 0 OFFCURVE",
"987 13 CURVE SMOOTH",
"1005 26 OFFCURVE",
"1023 40 OFFCURVE",
"1033 51 CURVE SMOOTH",
"1078 100 OFFCURVE",
"1109 154 OFFCURVE",
"1109 245 CURVE SMOOTH"
);
},
{
closed = 1;
nodes = (
"873 395 LINE",
"873 372 OFFCURVE",
"815 360 OFFCURVE",
"787 360 CURVE SMOOTH",
"782 360 OFFCURVE",
"777 361 OFFCURVE",
"773 362 CURVE",
"795 384 OFFCURVE",
"819 403 OFFCURVE",
"853 403 CURVE SMOOTH",
"857 403 OFFCURVE",
"874 399 OFFCURVE",
"874 395 CURVE"
);
},
{
closed = 1;
nodes = (
"647 359 LINE",
"620 355 OFFCURVE",
"594 352 OFFCURVE",
"578 349 CURVE SMOOTH",
"548 344 OFFCURVE",
"520 339 OFFCURVE",
"493 334 CURVE",
"499 347 OFFCURVE",
"503 360 OFFCURVE",
"507 372 CURVE SMOOTH",
"510 384 OFFCURVE",
"513 397 OFFCURVE",
"516 410 CURVE",
"522 419 OFFCURVE",
"523 426 OFFCURVE",
"522 433 CURVE",
"528 451 OFFCURVE",
"535 469 OFFCURVE",
"546 483 CURVE SMOOTH",
"551 491 OFFCURVE",
"558 506 OFFCURVE",
"565 521 CURVE SMOOTH",
"570 532 OFFCURVE",
"576 548 OFFCURVE",
"584 558 CURVE SMOOTH",
"586 560 OFFCURVE",
"588 563 OFFCURVE",
"590 564 CURVE",
"590 564 LINE",
"595 565 OFFCURVE",
"598 566 OFFCURVE",
"600 569 CURVE",
"605 567 OFFCURVE",
"609 561 OFFCURVE",
"614 551 CURVE SMOOTH",
"623 530 OFFCURVE",
"630 495 OFFCURVE",
"636 462 CURVE",
"639 381 LINE"
);
}
);
width = 1117;
}
);
note = AE;
unicode = 00C6;
},
{
glyphname = B;
lastChange = "2021-04-16 08:59:17 +0000";
layers = (
{
hints = (
{
horizontal = 1;
place = "{-15, 18}";
type = Stem;
},
{
horizontal = 1;
place = "{631, 25}";
type = Stem;
}
);
layerId = "5C71BA0D-BC2C-47B0-9323-6F63B3241D58";
paths = (
{
closed = 1;
nodes = (
"496 490 OFFCURVE",
"495 492 OFFCURVE",
"494 494 CURVE",
"493 548 OFFCURVE",
"461 584 OFFCURVE",
"419 607 CURVE",
"416 610 OFFCURVE",
"413 612 OFFCURVE",
"409 612 CURVE",
"387 623 OFFCURVE",
"364 630 OFFCURVE",
"341 635 CURVE",
"325 652 OFFCURVE",
"296 645 OFFCURVE",
"275 645 CURVE SMOOTH",
"271 645 OFFCURVE",
"267 644 OFFCURVE",
"264 642 CURVE",
"176 642 OFFCURVE",
"25 615 OFFCURVE",
"25 484 CURVE SMOOTH",
"25 430 OFFCURVE",
"52 419 OFFCURVE",
"93 407 CURVE SMOOTH",
"101 405 OFFCURVE",
"110 407 OFFCURVE",
"117 406 CURVE",
"176 405 OFFCURVE",
"205 503 OFFCURVE",
"178 529 CURVE SMOOTH",
"133 570 OFFCURVE",
"166 476 OFFCURVE",
"138 462 CURVE SMOOTH",
"129 457 OFFCURVE",
"103 444 OFFCURVE",
"93 444 CURVE SMOOTH",
"68 444 OFFCURVE",
"62 455 OFFCURVE",
"62 484 CURVE SMOOTH",
"62 577 OFFCURVE",
"173 606 OFFCURVE",
"268 606 CURVE SMOOTH",
"287 606 OFFCURVE",
"307 604 OFFCURVE",
"326 600 CURVE",
"331 595 LINE",
"352 595 OFFCURVE",
"370 582 OFFCURVE",
"390 577 CURVE",
"391 576 LINE",
"394 568 OFFCURVE",
"402 562 OFFCURVE",
"410 560 CURVE SMOOTH",
"414 559 LINE",
"416 556 OFFCURVE",
"420 552 OFFCURVE",
"423 548 CURVE SMOOTH",
"436 527 OFFCURVE",
"422 529 OFFCURVE",
"431 507 CURVE SMOOTH",
"441 479 LINE",
"441 471 OFFCURVE",
"442 464 OFFCURVE",
"442 456 CURVE",
"419 451 OFFCURVE",
"431 431 OFFCURVE",
"420 409 CURVE",
"413 402 OFFCURVE",
"404 387 OFFCURVE",
"393 371 CURVE",
"389 378 OFFCURVE",
"383 383 OFFCURVE",
"373 383 CURVE SMOOTH",
"370 383 OFFCURVE",
"368 382 OFFCURVE",
"366 381 CURVE",
"353 390 OFFCURVE",
"345 399 OFFCURVE",
"328 399 CURVE SMOOTH",
"323 399 OFFCURVE",
"318 396 OFFCURVE",
"313 396 CURVE SMOOTH",
"294 396 OFFCURVE",
"277 403 OFFCURVE",
"258 407 CURVE",
"259 417 OFFCURVE",
"261 429 OFFCURVE",
"268 443 CURVE SMOOTH",
"280 470 OFFCURVE",
"262 545 OFFCURVE",
"299 547 CURVE SMOOTH",
"323 547 OFFCURVE",
"322 584 OFFCURVE",
"297 583 CURVE SMOOTH",
"290 583 OFFCURVE",
"283 582 OFFCURVE",
"278 581 CURVE",
"273 583 OFFCURVE",
"267 584 OFFCURVE",
"260 580 CURVE SMOOTH",
"217 558 OFFCURVE",
"218 501 OFFCURVE",
"211 460 CURVE SMOOTH",
"207 437 OFFCURVE",
"196 419 OFFCURVE",
"191 397 CURVE",
"149 384 OFFCURVE",
"86 357 OFFCURVE",
"86 307 CURVE SMOOTH",
"86 270 OFFCURVE",
"122 251 OFFCURVE",
"145 243 CURVE",
"144 238 OFFCURVE",
"142 233 OFFCURVE",
"139 228 CURVE SMOOTH",
"116 181 OFFCURVE",
"117 120 OFFCURVE",
"97 72 CURVE",
"79 83 OFFCURVE",
"62 91 OFFCURVE",
"39 91 CURVE SMOOTH",
"18 91 OFFCURVE",
"-3 89 OFFCURVE",
"-3 59 CURVE SMOOTH",
"-3 53 OFFCURVE",
"-3 46 OFFCURVE",
"-3 38 CURVE SMOOTH",
"-3 9 OFFCURVE",
"5 -27 OFFCURVE",
"44 -27 CURVE SMOOTH",
"64 -27 OFFCURVE",
"82 -13 OFFCURVE",
"96 -1 CURVE SMOOTH",
"99 2 OFFCURVE",
"106 9 OFFCURVE",
"113 17 CURVE",
"115 16 LINE SMOOTH",
"125 10 OFFCURVE",
"136 5 OFFCURVE",
"147 1 CURVE",
"179 -17 OFFCURVE",
"215 -27 OFFCURVE",
"253 -27 CURVE SMOOTH",
"290 -27 OFFCURVE",
"322 -26 OFFCURVE",
"364 -15 CURVE SMOOTH",
"381 -10 OFFCURVE",
"393 3 OFFCURVE",
"408 11 CURVE",
"425 15 OFFCURVE",
"462 36 OFFCURVE",
"462 66 CURVE",
"464 68 OFFCURVE",
"483 102 OFFCURVE",
"485 104 CURVE SMOOTH",
"501 124 OFFCURVE",
"488 176 OFFCURVE",
"488 199 CURVE SMOOTH",
"488 247 OFFCURVE",
"460 295 OFFCURVE",
"424 321 CURVE",
"468 363 OFFCURVE",
"496 420 OFFCURVE",
"496 488 CURVE SMOOTH"
);
},
{
closed = 1;
nodes = (
"354 328 OFFCURVE",
"353 328 OFFCURVE",
"352 328 CURVE",
"307 293 OFFCURVE",
"274 291 OFFCURVE",
"216 284 CURVE",
"237 302 OFFCURVE",
"237 311 OFFCURVE",
"229 340 CURVE",
"229 340 OFFCURVE",
"229 341 OFFCURVE",
"231 343 CURVE SMOOTH",
"240 352 OFFCURVE",
"245 360 OFFCURVE",
"249 367 CURVE",
"288 366 OFFCURVE",
"325 351 OFFCURVE",
"354 328 CURVE"
);
},
{
closed = 1;
nodes = (
"174 340 OFFCURVE",
"168 327 OFFCURVE",
"163 313 CURVE SMOOTH",
"158 302 OFFCURVE",
"156 291 OFFCURVE",
"154 280 CURVE",
"147 284 OFFCURVE",
"123 294 OFFCURVE",
"123 307 CURVE SMOOTH",
"123 326 OFFCURVE",
"158 341 OFFCURVE",
"179 353 CURVE"
);
},
{
closed = 1;
nodes = (
"428 141 OFFCURVE",
"425 94 OFFCURVE",
"408 72 CURVE SMOOTH",
"384 40 OFFCURVE",
"319 16 OFFCURVE",
"270 16 CURVE SMOOTH",
"216 16 OFFCURVE",
"180 27 OFFCURVE",
"152 40 CURVE",
"148 43 OFFCURVE",
"144 46 OFFCURVE",
"140 49 CURVE",
"151 65 OFFCURVE",
"161 81 OFFCURVE",
"161 90 CURVE SMOOTH",
"161 130 OFFCURVE",
"186 170 OFFCURVE",
"195 209 CURVE SMOOTH",
"197 219 OFFCURVE",
"202 227 OFFCURVE",
"206 236 CURVE",
"271 236 OFFCURVE",
"337 256 OFFCURVE",
"389 292 CURVE",
"413 261 OFFCURVE",
"428 222 OFFCURVE",
"428 180 CURVE SMOOTH"
);
},
{
closed = 1;
nodes = (
"71 31 OFFCURVE",
"62 23 OFFCURVE",
"50 16 CURVE",
"48 14 OFFCURVE",
"46 12 OFFCURVE",
"45 11 CURVE",
"44 11 LINE SMOOTH",
"33 10 OFFCURVE",
"34 31 OFFCURVE",
"34 38 CURVE SMOOTH",
"34 44 OFFCURVE",
"34 49 OFFCURVE",
"34 54 CURVE",
"39 54 LINE SMOOTH",
"54 53 OFFCURVE",
"67 48 OFFCURVE",
"79 41 CURVE"
);
}
);
width = 490;
}
);
note = B;
unicode = 0042;
},
{
glyphname = C;
lastChange = "2021-04-16 08:59:17 +0000";
layers = (
{
hints = (
{
horizontal = 1;
place = "{-71, 33}";
type = Stem;
},
{
horizontal = 1;
place = "{289, 47}";
type = Stem;
},
{
horizontal = 1;
place = "{522, 33}";
type = Stem;
},
{
place = "{85, 52}";
type = Stem;
},
{
place = "{341, 33}";
type = Stem;
},
{
place = "{493, 23}";
type = Stem;
}
);
layerId = "5C71BA0D-BC2C-47B0-9323-6F63B3241D58";
paths = (
{
closed = 1;
nodes = (
"683 131 OFFCURVE",
"682 132 OFFCURVE",
"681 132 CURVE",
"674 162 OFFCURVE",
"646 153 OFFCURVE",
"647 113 CURVE SMOOTH",
"647 107 LINE SMOOTH",
"647 105 OFFCURVE",
"648 104 OFFCURVE",
"648 103 CURVE SMOOTH",
"648 76 OFFCURVE",
"640 58 OFFCURVE",
"616 40 CURVE SMOOTH",
"556 -7 OFFCURVE",
"486 -50 OFFCURVE",
"407 -50 CURVE SMOOTH",
"361 -50 OFFCURVE",
"313 -44 OFFCURVE",
"269 -32 CURVE",
"267 -30 OFFCURVE",
"263 -28 OFFCURVE",
"259 -28 CURVE SMOOTH",
"253 -27 LINE",
"162 3 OFFCURVE",
"92 62 OFFCURVE",
"92 163 CURVE SMOOTH",
"92 311 OFFCURVE",
"111 427 OFFCURVE",
"196 522 CURVE",
"201 525 OFFCURVE",
"205 529 OFFCURVE",
"207 534 CURVE",
"211 538 OFFCURVE",
"216 543 OFFCURVE",
"220 547 CURVE",
"225 549 OFFCURVE",
"232 551 OFFCURVE",
"237 556 CURVE SMOOTH",
"279 593 OFFCURVE",
"357 626 OFFCURVE",
"417 626 CURVE SMOOTH",
"445 625 OFFCURVE",
"476 620 OFFCURVE",
"505 611 CURVE",
"506 609 OFFCURVE",
"508 606 OFFCURVE",
"511 604 CURVE SMOOTH",
"532 589 OFFCURVE",
"560 583 OFFCURVE",
"580 566 CURVE",
"579 564 OFFCURVE",
"579 561 OFFCURVE",
"579 558 CURVE SMOOTH",
"580 533 OFFCURVE",
"604 525 OFFCURVE",
"605 456 CURVE",
"604 456 LINE",
"595 451 OFFCURVE",
"590 443 OFFCURVE",
"590 433 CURVE",
"574 429 OFFCURVE",
"564 416 OFFCURVE",
"568 399 CURVE",
"568 396 LINE",
"566 395 LINE SMOOTH",
"555 389 OFFCURVE",
"545 384 OFFCURVE",
"539 372 CURVE",
"532 372 LINE SMOOTH",
"501 372 OFFCURVE",
"468 338 OFFCURVE",
"431 338 CURVE SMOOTH",
"420 338 OFFCURVE",
"405 342 OFFCURVE",
"392 347 CURVE SMOOTH",
"382 352 OFFCURVE",
"374 358 OFFCURVE",
"369 365 CURVE",
"372 377 OFFCURVE",
"372 388 OFFCURVE",
"362 396 CURVE SMOOTH",
"360 398 LINE",
"361 434 OFFCURVE",
"365 463 OFFCURVE",
"379 482 CURVE",
"395 496 OFFCURVE",
"413 506 OFFCURVE",
"428 510 CURVE SMOOTH",
"432 511 OFFCURVE",
"436 511 OFFCURVE",
"440 511 CURVE SMOOTH",
"444 511 OFFCURVE",
"447 509 OFFCURVE",
"451 509 CURVE SMOOTH",
"454 509 OFFCURVE",
"457 510 OFFCURVE",
"459 511 CURVE",
"479 509 OFFCURVE",
"505 503 OFFCURVE",
"505 480 CURVE SMOOTH",
"505 463 OFFCURVE",
"489 432 OFFCURVE",
"472 431 CURVE",
"472 453 OFFCURVE",
"438 456 OFFCURVE",
"435 432 CURVE SMOOTH",
"433 411 OFFCURVE",
"451 393 OFFCURVE",
"472 393 CURVE SMOOTH",
"525 393 OFFCURVE",
"542 463 OFFCURVE",
"542 480 CURVE SMOOTH",
"542 531 OFFCURVE",
"490 549 OFFCURVE",
"449 549 CURVE SMOOTH",
"446 549 OFFCURVE",
"444 548 OFFCURVE",
"441 548 CURVE SMOOTH",
"440 548 OFFCURVE",
"439 548 OFFCURVE",
"438 548 CURVE SMOOTH",
"434 548 OFFCURVE",
"430 548 OFFCURVE",
"425 547 CURVE SMOOTH",
"391 542 OFFCURVE",
"367 528 OFFCURVE",
"352 508 CURVE",
"325 485 OFFCURVE",
"303 455 OFFCURVE",
"303 425 CURVE SMOOTH",
"303 411 OFFCURVE",
"309 406 OFFCURVE",
"315 395 CURVE",
"314 395 LINE",
"296 368 OFFCURVE",
"321 343 OFFCURVE",
"354 326 CURVE",
"384 304 OFFCURVE",
"435 295 OFFCURVE",
"458 295 CURVE SMOOTH",
"473 295 OFFCURVE",
"486 304 OFFCURVE",
"500 304 CURVE SMOOTH",
"510 304 OFFCURVE",
"515 301 OFFCURVE",
"525 301 CURVE SMOOTH",
"539 301 OFFCURVE",
"551 309 OFFCURVE",
"561 318 CURVE SMOOTH",
"563 320 LINE",
"623 358 OFFCURVE",
"658 410 OFFCURVE",
"658 486 CURVE SMOOTH",
"658 615 OFFCURVE",
"508 661 OFFCURVE",
"419 662 CURVE SMOOTH",
"417 662 LINE",
"414 662 LINE SMOOTH",
"342 662 OFFCURVE",
"288 650 OFFCURVE",
"229 604 CURVE SMOOTH",
"220 596 OFFCURVE",
"211 589 OFFCURVE",
"202 581 CURVE",
"191 579 OFFCURVE",
"174 575 OFFCURVE",
"172 555 CURVE",
"168 555 LINE SMOOTH",
"134 557 OFFCURVE",
"128 539 OFFCURVE",
"130 511 CURVE",
"105 479 OFFCURVE",
"85 415 OFFCURVE",
"70 402 CURVE SMOOTH",
"59 392 OFFCURVE",
"50 384 OFFCURVE",
"47 367 CURVE SMOOTH",
"43 333 OFFCURVE",
"34 298 OFFCURVE",
"27 263 CURVE SMOOTH",
"20 235 OFFCURVE",
"31 216 OFFCURVE",
"32 190 CURVE SMOOTH",
"32 189 LINE",
"27 183 OFFCURVE",
"23 176 OFFCURVE",
"23 168 CURVE SMOOTH",
"23 164 OFFCURVE",
"27 155 OFFCURVE",
"34 149 CURVE",
"34 143 LINE SMOOTH",
"33 106 OFFCURVE",
"26 79 OFFCURVE",
"64 63 CURVE",
"80 51 OFFCURVE",
"85 31 OFFCURVE",
"94 14 CURVE SMOOTH",
"119 -37 OFFCURVE",
"193 -56 OFFCURVE",
"246 -63 CURVE",
"299 -80 OFFCURVE",
"356 -87 OFFCURVE",
"407 -87 CURVE SMOOTH",
"477 -87 OFFCURVE",
"535 -62 OFFCURVE",
"585 -26 CURVE SMOOTH",
"641 13 OFFCURVE",
"702 44 OFFCURVE",
"684 129 CURVE"
);
}
);
width = 691;
}
);
note = C;
unicode = 0043;
},
{
glyphname = Ccedilla;
lastChange = "2021-04-16 08:59:17 +0000";
layers = (
{
hints = (
{
horizontal = 1;
place = "{-268, 49}";
type = Stem;
},
{
horizontal = 1;
place = "{-87, 37}";
type = Stem;
},
{
horizontal = 1;
place = "{296, 43}";
type = Stem;
},
{
horizontal = 1;
place = "{394, 55}";
type = Stem;
},
{
horizontal = 1;
place = "{625, 37}";
type = Stem;
},
{
place = "{33, 59}";
type = Stem;
},
{
place = "{367, 41}";
type = Stem;
},
{
place = "{505, 37}";
type = Stem;
},
{
place = "{648, 39}";
type = Stem;
}
);
layerId = "5C71BA0D-BC2C-47B0-9323-6F63B3241D58";
paths = (
{
closed = 1;
nodes = (
"683 131 OFFCURVE",
"682 132 OFFCURVE",
"681 132 CURVE",
"674 162 OFFCURVE",
"646 153 OFFCURVE",
"647 113 CURVE SMOOTH",
"647 107 LINE SMOOTH",
"647 105 OFFCURVE",
"648 104 OFFCURVE",
"648 103 CURVE SMOOTH",
"648 76 OFFCURVE",
"640 58 OFFCURVE",
"616 40 CURVE SMOOTH",
"556 -7 OFFCURVE",
"486 -50 OFFCURVE",
"407 -50 CURVE SMOOTH",
"361 -50 OFFCURVE",
"313 -44 OFFCURVE",
"269 -32 CURVE",
"267 -30 OFFCURVE",
"263 -28 OFFCURVE",
"259 -28 CURVE SMOOTH",
"253 -27 LINE",
"162 3 OFFCURVE",
"92 62 OFFCURVE",
"92 163 CURVE SMOOTH",
"92 311 OFFCURVE",
"111 427 OFFCURVE",
"196 522 CURVE",
"201 525 OFFCURVE",
"205 529 OFFCURVE",
"207 534 CURVE",
"211 538 OFFCURVE",
"216 543 OFFCURVE",
"220 547 CURVE",
"225 549 OFFCURVE",
"232 551 OFFCURVE",
"237 556 CURVE SMOOTH",
"279 593 OFFCURVE",
"357 626 OFFCURVE",
"417 626 CURVE SMOOTH",
"445 625 OFFCURVE",
"476 620 OFFCURVE",
"505 611 CURVE",
"506 609 OFFCURVE",
"508 606 OFFCURVE",
"511 604 CURVE SMOOTH",
"532 589 OFFCURVE",
"560 583 OFFCURVE",
"580 566 CURVE",
"579 564 OFFCURVE",
"579 561 OFFCURVE",
"579 558 CURVE SMOOTH",
"580 533 OFFCURVE",
"604 525 OFFCURVE",
"605 456 CURVE",
"604 456 LINE",
"595 451 OFFCURVE",
"590 443 OFFCURVE",
"590 433 CURVE",
"574 429 OFFCURVE",
"564 416 OFFCURVE",
"568 399 CURVE",
"568 396 LINE",
"566 395 LINE SMOOTH",
"555 389 OFFCURVE",
"545 384 OFFCURVE",
"539 372 CURVE",
"532 372 LINE SMOOTH",
"501 372 OFFCURVE",
"468 338 OFFCURVE",
"431 338 CURVE SMOOTH",
"420 338 OFFCURVE",
"405 342 OFFCURVE",
"392 347 CURVE SMOOTH",
"382 352 OFFCURVE",
"374 358 OFFCURVE",
"369 365 CURVE",
"372 377 OFFCURVE",
"372 388 OFFCURVE",
"362 396 CURVE SMOOTH",
"360 398 LINE",
"361 434 OFFCURVE",
"365 463 OFFCURVE",
"379 482 CURVE",
"395 496 OFFCURVE",
"413 506 OFFCURVE",
"428 510 CURVE SMOOTH",
"432 511 OFFCURVE",
"436 511 OFFCURVE",
"440 511 CURVE SMOOTH",
"444 511 OFFCURVE",
"447 509 OFFCURVE",
"451 509 CURVE SMOOTH",
"454 509 OFFCURVE",
"457 510 OFFCURVE",
"459 511 CURVE",
"479 509 OFFCURVE",
"505 503 OFFCURVE",
"505 480 CURVE SMOOTH",
"505 463 OFFCURVE",
"489 432 OFFCURVE",
"472 431 CURVE",
"472 453 OFFCURVE",
"438 456 OFFCURVE",
"435 432 CURVE SMOOTH",
"433 411 OFFCURVE",
"451 393 OFFCURVE",
"472 393 CURVE SMOOTH",
"525 393 OFFCURVE",
"542 463 OFFCURVE",
"542 480 CURVE SMOOTH",
"542 531 OFFCURVE",
"490 549 OFFCURVE",
"449 549 CURVE SMOOTH",
"446 549 OFFCURVE",
"444 548 OFFCURVE",
"441 548 CURVE SMOOTH",
"440 548 OFFCURVE",
"439 548 OFFCURVE",
"438 548 CURVE SMOOTH",
"434 548 OFFCURVE",
"430 548 OFFCURVE",
"425 547 CURVE SMOOTH",
"391 542 OFFCURVE",
"367 528 OFFCURVE",
"352 508 CURVE",
"325 485 OFFCURVE",
"303 455 OFFCURVE",
"303 425 CURVE SMOOTH",
"303 411 OFFCURVE",
"309 406 OFFCURVE",
"315 395 CURVE",
"314 395 LINE",
"296 368 OFFCURVE",
"321 343 OFFCURVE",
"354 326 CURVE",
"384 304 OFFCURVE",
"435 295 OFFCURVE",
"458 295 CURVE SMOOTH",
"473 295 OFFCURVE",
"486 304 OFFCURVE",
"500 304 CURVE SMOOTH",
"510 304 OFFCURVE",
"515 301 OFFCURVE",
"525 301 CURVE SMOOTH",
"539 301 OFFCURVE",
"551 309 OFFCURVE",
"561 318 CURVE SMOOTH",
"563 320 LINE",
"623 358 OFFCURVE",
"658 410 OFFCURVE",
"658 486 CURVE SMOOTH",
"658 615 OFFCURVE",
"508 661 OFFCURVE",
"419 662 CURVE SMOOTH",
"417 662 LINE",
"414 662 LINE SMOOTH",
"342 662 OFFCURVE",
"288 650 OFFCURVE",
"229 604 CURVE SMOOTH",
"220 596 OFFCURVE",
"211 589 OFFCURVE",
"202 581 CURVE",
"191 579 OFFCURVE",
"174 575 OFFCURVE",
"172 555 CURVE",
"168 555 LINE SMOOTH",
"134 557 OFFCURVE",
"128 539 OFFCURVE",
"130 511 CURVE",
"105 479 OFFCURVE",
"85 415 OFFCURVE",
"70 402 CURVE SMOOTH",
"59 392 OFFCURVE",
"50 384 OFFCURVE",
"47 367 CURVE SMOOTH",
"43 333 OFFCURVE",
"34 298 OFFCURVE",
"27 263 CURVE SMOOTH",
"20 235 OFFCURVE",
"31 216 OFFCURVE",
"32 190 CURVE SMOOTH",
"32 189 LINE",
"27 183 OFFCURVE",
"23 176 OFFCURVE",
"23 168 CURVE SMOOTH",
"23 164 OFFCURVE",
"27 155 OFFCURVE",
"34 149 CURVE",
"34 143 LINE SMOOTH",
"33 106 OFFCURVE",
"26 79 OFFCURVE",
"64 63 CURVE",
"80 51 OFFCURVE",
"85 31 OFFCURVE",
"94 14 CURVE SMOOTH",
"119 -37 OFFCURVE",
"193 -56 OFFCURVE",
"246 -63 CURVE",
"299 -80 OFFCURVE",
"356 -87 OFFCURVE",
"407 -87 CURVE SMOOTH",
"477 -87 OFFCURVE",
"535 -62 OFFCURVE",
"585 -26 CURVE SMOOTH",
"641 13 OFFCURVE",
"702 44 OFFCURVE",
"684 129 CURVE"
);
},
{
closed = 1;
nodes = (
"408 -162 OFFCURVE",
"383 -147 OFFCURVE",
"358 -141 CURVE",
"363 -131 OFFCURVE",
"366 -119 OFFCURVE",
"366 -104 CURVE SMOOTH",
"366 -100 OFFCURVE",
"365 -97 OFFCURVE",
"364 -94 CURVE",
"365 -78 OFFCURVE",
"339 -73 OFFCURVE",
"335 -91 CURVE SMOOTH",
"333 -99 OFFCURVE",
"331 -107 OFFCURVE",
"328 -114 CURVE SMOOTH",
"322 -127 OFFCURVE",
"318 -140 OFFCURVE",
"313 -157 CURVE",
"313 -157 LINE",
"309 -172 OFFCURVE",
"326 -181 OFFCURVE",
"336 -173 CURVE",
"362 -174 OFFCURVE",
"367 -179 OFFCURVE",
"367 -194 CURVE SMOOTH",
"367 -219 OFFCURVE",
"337 -219 OFFCURVE",
"318 -219 CURVE SMOOTH",
"306 -219 OFFCURVE",
"300 -212 OFFCURVE",
"295 -199 CURVE SMOOTH",
"288 -182 OFFCURVE",
"267 -186 OFFCURVE",
"267 -205 CURVE SMOOTH",
"267 -236 OFFCURVE",
"291 -268 OFFCURVE",
"328 -268 CURVE SMOOTH",
"367 -268 OFFCURVE",
"408 -230 OFFCURVE",
"408 -189 CURVE SMOOTH"
);
}
);
width = 607;
}
);
note = Ccedilla;
unicode = 00C7;
},
{
glyphname = D;
lastChange = "2021-04-16 08:59:17 +0000";
layers = (
{
hints = (
{
horizontal = 1;
place = "{-48, 33}";
type = Stem;
},
{
horizontal = 1;
place = "{148, 20}";
type = Stem;
},
{
horizontal = 1;
place = "{605, -20}";
target = down;
type = TopGhost;
},
{
place = "{-31, 75}";
type = Stem;
},
{
place = "{88, 53}";
type = Stem;
},
{
place = "{641, 61}";
type = Stem;
}
);
layerId = "5C71BA0D-BC2C-47B0-9323-6F63B3241D58";
paths = (
{
closed = 1;
nodes = (
"720 251 OFFCURVE",
"722 265 OFFCURVE",
"714 284 CURVE",
"705 325 OFFCURVE",
"714 330 OFFCURVE",
"693 383 CURVE SMOOTH",
"672 436 OFFCURVE",
"676 432 OFFCURVE",
"637 469 CURVE SMOOTH",
"612 492 OFFCURVE",
"630 541 OFFCURVE",
"573 541 CURVE",
"565 544 OFFCURVE",
"547 563 OFFCURVE",
"539 569 CURVE SMOOTH",
"498 603 OFFCURVE",
"358 621 OFFCURVE",
"308 621 CURVE SMOOTH",
"291 621 OFFCURVE",
"275 619 OFFCURVE",
"260 616 CURVE",
"246 616 OFFCURVE",
"232 616 OFFCURVE",
"218 616 CURVE SMOOTH",
"168 616 OFFCURVE",
"132 589 OFFCURVE",
"106 566 CURVE SMOOTH",
"91 553 OFFCURVE",
"69 561 OFFCURVE",
"62 531 CURVE SMOOTH",
"57 511 OFFCURVE",
"50 498 OFFCURVE",
"39 480 CURVE SMOOTH",
"31 467 OFFCURVE",
"25 469 OFFCURVE",
"25 433 CURVE SMOOTH",
"25 421 OFFCURVE",
"34 426 OFFCURVE",
"33 414 CURVE SMOOTH",
"33 400 LINE",
"39 386 OFFCURVE",
"26 373 OFFCURVE",
"27 358 CURVE SMOOTH",
"33 306 OFFCURVE",
"90 285 OFFCURVE",
"136 285 CURVE SMOOTH",
"190 285 OFFCURVE",
"217 309 OFFCURVE",
"237 347 CURVE SMOOTH",
"247 363 OFFCURVE",
"254 382 OFFCURVE",
"256 402 CURVE SMOOTH",
"256 403 OFFCURVE",
"256 405 OFFCURVE",
"256 407 CURVE SMOOTH",
"256 414 LINE SMOOTH",
"256 416 OFFCURVE",
"256 418 OFFCURVE",
"256 420 CURVE SMOOTH",
"251 457 OFFCURVE",
"225 479 OFFCURVE",
"188 479 CURVE SMOOTH",
"152 479 OFFCURVE",
"122 449 OFFCURVE",
"122 413 CURVE SMOOTH",
"122 388 OFFCURVE",
"160 388 OFFCURVE",
"160 413 CURVE SMOOTH",
"160 429 OFFCURVE",
"172 442 OFFCURVE",
"188 442 CURVE SMOOTH",
"207 442 OFFCURVE",
"220 433 OFFCURVE",
"219 411 CURVE SMOOTH",
"219 404 OFFCURVE",
"218 397 OFFCURVE",
"216 390 CURVE SMOOTH",
"215 388 OFFCURVE",
"214 386 OFFCURVE",
"213 384 CURVE SMOOTH",
"210 376 OFFCURVE",
"207 370 OFFCURVE",
"204 364 CURVE",
"190 343 OFFCURVE",
"167 328 OFFCURVE",
"143 328 CURVE SMOOTH",
"105 328 OFFCURVE",
"83 353 OFFCURVE",
"83 397 CURVE SMOOTH",
"83 398 OFFCURVE",
"83 399 OFFCURVE",
"83 400 CURVE SMOOTH",
"85 446 OFFCURVE",
"104 501 OFFCURVE",
"143 527 CURVE",
"142 528 LINE",
"171 528 OFFCURVE",
"189 566 OFFCURVE",
"258 579 CURVE",
"353 577 OFFCURVE",
"465 566 OFFCURVE",
"534 517 CURVE SMOOTH",
"562 497 OFFCURVE",
"580 479 OFFCURVE",
"592 437 CURVE SMOOTH",
"607 388 OFFCURVE",
"639 360 OFFCURVE",
"641 306 CURVE",
"635 294 OFFCURVE",
"648 281 OFFCURVE",
"643 267 CURVE",
"646 96 OFFCURVE",
"583 83 OFFCURVE",
"553 48 CURVE SMOOTH",
"515 3 OFFCURVE",
"381 -6 OFFCURVE",
"338 -6 CURVE SMOOTH",
"297 -6 OFFCURVE",
"255 20 OFFCURVE",
"216 40 CURVE",
"285 115 OFFCURVE",
"317 252 OFFCURVE",
"338 335 CURVE SMOOTH",
"340 341 OFFCURVE",
"345 349 OFFCURVE",
"348 355 CURVE SMOOTH",
"364 387 OFFCURVE",
"356 416 OFFCURVE",
"393 436 CURVE SMOOTH",
"412 445 OFFCURVE",
"415 472 OFFCURVE",
"427 475 CURVE",
"430 475 OFFCURVE",
"434 474 OFFCURVE",
"437 472 CURVE SMOOTH",
"439 471 LINE SMOOTH",
"442 469 OFFCURVE",
"444 468 OFFCURVE",
"446 467 CURVE SMOOTH",
"455 461 OFFCURVE",
"461 451 OFFCURVE",
"461 442 CURVE SMOOTH",
"461 417 OFFCURVE",
"498 417 OFFCURVE",
"498 442 CURVE SMOOTH",
"498 469 OFFCURVE",
"481 491 OFFCURVE",
"458 503 CURVE",
"452 509 OFFCURVE",
"443 513 OFFCURVE",
"429 513 CURVE",
"425 512 LINE",
"422 512 LINE SMOOTH",
"365 514 OFFCURVE",
"314 472 OFFCURVE",
"307 417 CURVE",
"293 396 OFFCURVE",
"275 363 OFFCURVE",
"273 332 CURVE SMOOTH",
"272 311 OFFCURVE",
"256 291 OFFCURVE",
"253 271 CURVE SMOOTH",
"251 253 OFFCURVE",
"239 243 OFFCURVE",
"239 221 CURVE",
"222 211 OFFCURVE",
"226 175 OFFCURVE",
"222 158 CURVE",
"206 145 OFFCURVE",
"195 93 OFFCURVE",
"177 61 CURVE",
"133 82 OFFCURVE",
"99 101 OFFCURVE",
"46 101 CURVE SMOOTH",
"11 101 OFFCURVE",
"-55 85 OFFCURVE",
"-55 39 CURVE SMOOTH",
"-55 32 OFFCURVE",
"-52 24 OFFCURVE",
"-48 16 CURVE",
"-44 -13 OFFCURVE",
"-20 -27 OFFCURVE",
"4 -33 CURVE",
"6 -33 OFFCURVE",
"9 -34 OFFCURVE",
"11 -34 CURVE",
"20 -36 OFFCURVE",
"29 -36 OFFCURVE",
"36 -36 CURVE SMOOTH",
"72 -36 OFFCURVE",
"146 -17 OFFCURVE",
"182 10 CURVE SMOOTH",
"183 11 LINE",
"233 -20 OFFCURVE",
"282 -55 OFFCURVE",
"350 -55 CURVE SMOOTH",
"368 -55 OFFCURVE",
"378 -57 OFFCURVE",
"401 -57 CURVE SMOOTH",
"442 -57 OFFCURVE",
"536 -50 OFFCURVE",
"568 -25 CURVE SMOOTH",
"583 -13 OFFCURVE",
"610 22 OFFCURVE",
"628 22 CURVE SMOOTH",
"650 22 OFFCURVE",
"645 41 OFFCURVE",
"656 53 CURVE SMOOTH",
"664 62 LINE",
"676 88 OFFCURVE",
"689 112 OFFCURVE",
"694 140 CURVE",
"709 152 OFFCURVE",
"713 163 OFFCURVE",
"710 185 CURVE SMOOTH",
"707 205 OFFCURVE",
"712 225 OFFCURVE",
"714 245 CURVE"
);
},
{
closed = 1;
nodes = (
"116 15 OFFCURVE",
"64 0 OFFCURVE",
"36 0 CURVE SMOOTH",
"2 0 OFFCURVE",
"-12 12 OFFCURVE",
"-12 24 CURVE SMOOTH",
"-12 51 OFFCURVE",
"5 60 OFFCURVE",
"44 60 CURVE SMOOTH",
"84 60 OFFCURVE",
"117 48 OFFCURVE",
"147 32 CURVE"
);
}
);
width = 745;
}
);
note = D;
unicode = 0044;
},
{
glyphname = Eth;
lastChange = "2021-04-16 08:59:17 +0000";
layers = (
{
hints = (
{
horizontal = 1;
place = "{-48, 33}";
type = Stem;
},
{
horizontal = 1;
place = "{148, 20}";
type = Stem;
},
{
horizontal = 1;
place = "{605, -20}";
target = down;
type = TopGhost;
},
{
place = "{-31, 75}";
type = Stem;
},
{
place = "{88, 53}";
type = Stem;
},
{
place = "{641, 61}";
type = Stem;
}
);
layerId = "5C71BA0D-BC2C-47B0-9323-6F63B3241D58";
paths = (
{
closed = 1;
nodes = (
"116 15 OFFCURVE",
"64 0 OFFCURVE",
"36 0 CURVE SMOOTH",
"2 0 OFFCURVE",
"-12 12 OFFCURVE",
"-12 24 CURVE SMOOTH",
"-12 51 OFFCURVE",
"5 60 OFFCURVE",
"44 60 CURVE SMOOTH",
"84 60 OFFCURVE",
"117 48 OFFCURVE",
"147 32 CURVE"
);
},
{
closed = 1;
nodes = (
"239 221 LINE",
"222 211 OFFCURVE",
"226 175 OFFCURVE",
"222 158 CURVE",
"206 145 OFFCURVE",
"195 93 OFFCURVE",
"177 61 CURVE",
"133 82 OFFCURVE",
"99 101 OFFCURVE",
"46 101 CURVE SMOOTH",
"11 101 OFFCURVE",
"-55 85 OFFCURVE",
"-55 39 CURVE SMOOTH",
"-55 32 OFFCURVE",
"-52 24 OFFCURVE",
"-48 16 CURVE",
"-44 -13 OFFCURVE",
"-20 -27 OFFCURVE",
"4 -33 CURVE",
"6 -33 OFFCURVE",
"9 -34 OFFCURVE",
"11 -34 CURVE",
"20 -36 OFFCURVE",
"29 -36 OFFCURVE",
"36 -36 CURVE SMOOTH",
"72 -36 OFFCURVE",
"146 -17 OFFCURVE",
"182 10 CURVE SMOOTH",
"183 11 LINE",
"233 -20 OFFCURVE",
"282 -55 OFFCURVE",
"350 -55 CURVE SMOOTH",
"368 -55 OFFCURVE",
"378 -57 OFFCURVE",
"401 -57 CURVE SMOOTH",
"442 -57 OFFCURVE",
"536 -50 OFFCURVE",
"568 -25 CURVE SMOOTH",
"583 -13 OFFCURVE",
"610 22 OFFCURVE",
"628 22 CURVE SMOOTH",
"650 22 OFFCURVE",
"645 41 OFFCURVE",
"656 53 CURVE SMOOTH",
"664 62 LINE",
"676 88 OFFCURVE",
"689 112 OFFCURVE",
"694 140 CURVE",
"709 152 OFFCURVE",
"713 163 OFFCURVE",
"710 185 CURVE SMOOTH",
"707 205 OFFCURVE",
"712 225 OFFCURVE",
"714 245 CURVE",
"720 251 OFFCURVE",
"722 265 OFFCURVE",
"714 284 CURVE",
"705 325 OFFCURVE",
"714 330 OFFCURVE",
"693 383 CURVE SMOOTH",
"672 436 OFFCURVE",
"676 432 OFFCURVE",
"637 469 CURVE SMOOTH",
"612 492 OFFCURVE",
"630 541 OFFCURVE",
"573 541 CURVE",
"565 544 OFFCURVE",
"547 563 OFFCURVE",
"539 569 CURVE SMOOTH",
"498 603 OFFCURVE",
"358 621 OFFCURVE",
"308 621 CURVE SMOOTH",
"291 621 OFFCURVE",
"275 619 OFFCURVE",
"260 616 CURVE",
"246 616 OFFCURVE",
"232 616 OFFCURVE",
"218 616 CURVE SMOOTH",
"168 616 OFFCURVE",
"132 589 OFFCURVE",
"106 566 CURVE SMOOTH",
"91 553 OFFCURVE",
"69 561 OFFCURVE",
"62 531 CURVE SMOOTH",
"57 511 OFFCURVE",
"50 498 OFFCURVE",
"39 480 CURVE SMOOTH",
"31 467 OFFCURVE",
"25 469 OFFCURVE",
"25 433 CURVE SMOOTH",
"25 421 OFFCURVE",
"34 426 OFFCURVE",
"33 414 CURVE SMOOTH",
"33 400 LINE",
"39 386 OFFCURVE",
"26 373 OFFCURVE",
"27 358 CURVE SMOOTH",
"33 306 OFFCURVE",
"90 285 OFFCURVE",
"136 285 CURVE SMOOTH",
"190 285 OFFCURVE",
"217 309 OFFCURVE",
"237 347 CURVE SMOOTH",
"247 363 OFFCURVE",
"254 382 OFFCURVE",
"256 402 CURVE SMOOTH",
"256 403 OFFCURVE",
"256 405 OFFCURVE",
"256 407 CURVE SMOOTH",
"256 414 LINE SMOOTH",
"256 416 OFFCURVE",
"256 418 OFFCURVE",
"256 420 CURVE SMOOTH",
"251 457 OFFCURVE",
"225 479 OFFCURVE",
"188 479 CURVE SMOOTH",
"152 479 OFFCURVE",
"122 449 OFFCURVE",
"122 413 CURVE SMOOTH",
"122 388 OFFCURVE",
"160 388 OFFCURVE",
"160 413 CURVE SMOOTH",
"160 429 OFFCURVE",
"172 442 OFFCURVE",
"188 442 CURVE SMOOTH",
"207 442 OFFCURVE",
"220 433 OFFCURVE",
"219 411 CURVE SMOOTH",
"219 404 OFFCURVE",
"218 397 OFFCURVE",
"216 390 CURVE SMOOTH",
"215 388 OFFCURVE",
"214 386 OFFCURVE",
"213 384 CURVE SMOOTH",
"210 376 OFFCURVE",
"207 370 OFFCURVE",
"204 364 CURVE",
"190 343 OFFCURVE",
"167 328 OFFCURVE",
"143 328 CURVE SMOOTH",
"105 328 OFFCURVE",
"83 353 OFFCURVE",
"83 397 CURVE SMOOTH",
"83 398 OFFCURVE",
"83 399 OFFCURVE",
"83 400 CURVE SMOOTH",
"85 446 OFFCURVE",
"104 501 OFFCURVE",
"143 527 CURVE",
"142 528 LINE",
"171 528 OFFCURVE",
"189 566 OFFCURVE",
"258 579 CURVE",
"353 577 OFFCURVE",
"465 566 OFFCURVE",
"534 517 CURVE SMOOTH",
"562 497 OFFCURVE",
"580 479 OFFCURVE",
"592 437 CURVE SMOOTH",
"607 388 OFFCURVE",
"639 360 OFFCURVE",
"641 306 CURVE",
"635 294 OFFCURVE",
"649 281 OFFCURVE",
"643 267 CURVE",
"653 96 OFFCURVE",
"583 83 OFFCURVE",
"553 48 CURVE SMOOTH",
"515 3 OFFCURVE",
"381 -6 OFFCURVE",
"338 -6 CURVE SMOOTH",
"297 -6 OFFCURVE",
"255 20 OFFCURVE",
"216 40 CURVE",
"265 93 OFFCURVE",
"295 176 OFFCURVE",
"316 249 CURVE",
"335 226 OFFCURVE",
"373 272 OFFCURVE",
"396 272 CURVE SMOOTH",
"403 272 OFFCURVE",
"408 271 OFFCURVE",
"413 271 CURVE SMOOTH",
"460 269 OFFCURVE",
"447 299 OFFCURVE",
"432 300 CURVE",
"431 307 OFFCURVE",
"426 314 OFFCURVE",
"416 314 CURVE SMOOTH",
"386 314 OFFCURVE",
"357 308 OFFCURVE",
"329 300 CURVE",
"338 335 LINE SMOOTH",
"340 341 OFFCURVE",
"345 349 OFFCURVE",
"348 355 CURVE SMOOTH",
"364 387 OFFCURVE",
"356 416 OFFCURVE",
"393 436 CURVE SMOOTH",
"412 445 OFFCURVE",
"415 472 OFFCURVE",
"427 475 CURVE",
"430 475 OFFCURVE",
"434 474 OFFCURVE",
"437 472 CURVE SMOOTH",
"439 471 LINE SMOOTH",
"442 469 OFFCURVE",
"444 468 OFFCURVE",
"446 467 CURVE SMOOTH",
"455 461 OFFCURVE",
"461 451 OFFCURVE",
"461 442 CURVE SMOOTH",
"461 417 OFFCURVE",
"498 417 OFFCURVE",
"498 442 CURVE SMOOTH",
"498 469 OFFCURVE",
"481 491 OFFCURVE",
"458 503 CURVE",
"452 509 OFFCURVE",
"443 513 OFFCURVE",
"429 513 CURVE",
"425 512 LINE",
"422 512 LINE SMOOTH",
"365 514 OFFCURVE",
"314 472 OFFCURVE",
"307 417 CURVE",
"293 396 OFFCURVE",
"275 363 OFFCURVE",
"273 332 CURVE SMOOTH",
"272 314 OFFCURVE",
"260 297 OFFCURVE",
"255 280 CURVE",
"243 276 OFFCURVE",
"231 272 OFFCURVE",
"219 268 CURVE SMOOTH",
"200 264 OFFCURVE",
"180 261 OFFCURVE",
"160 261 CURVE SMOOTH",
"148 261 OFFCURVE",
"143 250 OFFCURVE",
"147 241 CURVE",
"132 236 OFFCURVE",
"117 229 OFFCURVE",
"102 223 CURVE SMOOTH",
"87 217 OFFCURVE",
"88 201 OFFCURVE",
"104 196 CURVE SMOOTH",
"115 193 OFFCURVE",
"125 193 OFFCURVE",
"135 196 CURVE",
"137 186 OFFCURVE",
"146 180 OFFCURVE",
"159 189 CURVE",
"161 191 OFFCURVE",
"164 194 OFFCURVE",
"168 197 CURVE",
"183 200 OFFCURVE",
"198 198 OFFCURVE",
"192 217 CURVE",
"197 220 OFFCURVE",
"200 222 OFFCURVE",
"203 222 CURVE SMOOTH",
"215 222 OFFCURVE",
"227 222 OFFCURVE",
"239 224 CURVE"
);
}
);
width = 745;
}
);
note = Eth;
unicode = 00D0;
},
{
glyphname = E;
lastChange = "2021-04-16 08:59:17 +0000";
layers = (
{
hints = (
{
horizontal = 1;
place = "{-78, 33}";
type = Stem;
},
{
horizontal = 1;
place = "{276, 33}";
type = Stem;
},
{
horizontal = 1;
place = "{407, 44}";
type = Stem;
},
{
horizontal = 1;
place = "{476, 31}";
type = Stem;
},
{
horizontal = 1;
place = "{618, 33}";
type = Stem;
},
{
place = "{23, 65}";
type = Stem;
},
{
place = "{161, 33}";
type = Stem;
},
{
place = "{358, 53}";
type = Stem;
},
{
place = "{550, 34}";
type = Stem;
}
);
layerId = "5C71BA0D-BC2C-47B0-9323-6F63B3241D58";
paths = (
{
closed = 1;
nodes = (
"599 313 OFFCURVE",
"519 325 OFFCURVE",
"461 325 CURVE SMOOTH",
"445 325 OFFCURVE",
"427 323 OFFCURVE",
"409 322 CURVE SMOOTH",
"394 322 OFFCURVE",
"380 319 OFFCURVE",
"366 316 CURVE SMOOTH",
"355 313 OFFCURVE",
"344 310 OFFCURVE",
"334 305 CURVE SMOOTH",
"266 276 OFFCURVE",
"231 185 OFFCURVE",
"231 123 CURVE SMOOTH",
"231 69 OFFCURVE",
"279 45 OFFCURVE",
"315 45 CURVE SMOOTH",
"341 45 OFFCURVE",
"384 56 OFFCURVE",
"416 77 CURVE",
"419 78 OFFCURVE",
"421 80 OFFCURVE",
"423 82 CURVE",
"458 106 OFFCURVE",
"477 141 OFFCURVE",
"439 183 CURVE SMOOTH",
"422 201 OFFCURVE",
"395 176 OFFCURVE",
"411 157 CURVE SMOOTH",
"428 139 OFFCURVE",
"421 124 OFFCURVE",
"404 112 CURVE",
"404 112 LINE",
"390 108 OFFCURVE",
"377 98 OFFCURVE",
"362 98 CURVE SMOOTH",
"352 98 OFFCURVE",
"341 92 OFFCURVE",
"331 92 CURVE",
"326 97 OFFCURVE",
"319 115 OFFCURVE",
"305 115 CURVE SMOOTH",
"304 115 OFFCURVE",
"302 115 OFFCURVE",
"302 115 CURVE",
"301 117 LINE SMOOTH",
"300 121 OFFCURVE",
"301 126 OFFCURVE",
"302 132 CURVE",
"298 143 OFFCURVE",
"294 171 OFFCURVE",
"295 186 CURVE",
"308 236 OFFCURVE",
"322 256 OFFCURVE",
"357 275 CURVE",
"374 280 OFFCURVE",
"392 284 OFFCURVE",
"411 285 CURVE SMOOTH",
"421 285 OFFCURVE",
"434 283 OFFCURVE",
"445 283 CURVE SMOOTH",
"469 283 LINE SMOOTH",
"515 283 OFFCURVE",
"534 257 OFFCURVE",
"534 209 CURVE SMOOTH",
"534 162 OFFCURVE",
"513 89 OFFCURVE",
"461 47 CURVE SMOOTH",
"457 43 OFFCURVE",
"454 40 OFFCURVE",
"442 37 CURVE SMOOTH",
"387 26 OFFCURVE",
"367 3 OFFCURVE",
"338 -8 CURVE SMOOTH",
"302 -21 OFFCURVE",
"274 -37 OFFCURVE",
"245 -49 CURVE",
"244 -49 LINE SMOOTH",
"224 -48 OFFCURVE",
"212 -46 OFFCURVE",
"192 -46 CURVE SMOOTH",
"184 -46 OFFCURVE",
"180 -49 OFFCURVE",
"172 -49 CURVE SMOOTH",
"161 -49 OFFCURVE",
"150 -40 OFFCURVE",
"137 -40 CURVE SMOOTH",
"130 -40 OFFCURVE",
"123 -44 OFFCURVE",
"119 -49 CURVE",
"117 -50 LINE",
"93 -48 OFFCURVE",
"117 9 OFFCURVE",
"79 20 CURVE",
"77 20 LINE",
"78 23 LINE SMOOTH",
"82 33 OFFCURVE",
"81 46 OFFCURVE",
"73 54 CURVE",
"83 63 OFFCURVE",
"85 75 OFFCURVE",
"78 85 CURVE SMOOTH",
"77 86 LINE",
"87 109 OFFCURVE",
"104 120 OFFCURVE",
"104 150 CURVE SMOOTH",
"104 158 OFFCURVE",
"104 164 OFFCURVE",
"103 169 CURVE",
"105 170 OFFCURVE",
"108 173 OFFCURVE",
"111 176 CURVE",
"113 192 LINE",
"116 193 LINE",
"135 195 OFFCURVE",
"135 214 OFFCURVE",
"127 227 CURVE",
"138 231 OFFCURVE",
"147 238 OFFCURVE",
"150 251 CURVE",
"156 265 OFFCURVE",
"179 301 OFFCURVE",
"204 333 CURVE",
"217 327 OFFCURVE",
"232 323 OFFCURVE",
"251 323 CURVE SMOOTH",
"253 323 LINE SMOOTH",
"260 322 OFFCURVE",
"267 321 OFFCURVE",
"275 321 CURVE",
"278 322 LINE",
"284 320 OFFCURVE",
"290 317 OFFCURVE",
"297 317 CURVE SMOOTH",
"340 317 OFFCURVE",
"415 359 OFFCURVE",
"415 418 CURVE SMOOTH",
"415 452 OFFCURVE",
"387 453 OFFCURVE",
"363 453 CURVE",
"356 454 OFFCURVE",
"348 453 OFFCURVE",
"339 452 CURVE",
"333 454 OFFCURVE",
"327 454 OFFCURVE",
"321 454 CURVE SMOOTH",
"311 455 OFFCURVE",
"305 450 OFFCURVE",
"303 443 CURVE",
"292 440 OFFCURVE",
"281 435 OFFCURVE",
"270 430 CURVE",
"256 429 OFFCURVE",
"240 420 OFFCURVE",
"224 407 CURVE",
"215 402 OFFCURVE",
"206 397 OFFCURVE",
"197 392 CURVE",
"185 407 OFFCURVE",
"176 428 OFFCURVE",
"180 438 CURVE",
"192 451 OFFCURVE",
"195 466 OFFCURVE",
"183 479 CURVE SMOOTH",
"181 481 LINE",
"186 502 OFFCURVE",
"214 553 OFFCURVE",
"225 570 CURVE SMOOTH",
"235 588 OFFCURVE",
"244 598 OFFCURVE",
"252 604 CURVE",
"264 609 OFFCURVE",
"276 613 OFFCURVE",
"288 615 CURVE",
"293 617 OFFCURVE",
"299 617 OFFCURVE",
"305 619 CURVE SMOOTH",
"315 621 OFFCURVE",
"325 623 OFFCURVE",
"335 623 CURVE SMOOTH",
"353 623 LINE SMOOTH",
"355 623 OFFCURVE",
"358 623 OFFCURVE",
"359 623 CURVE SMOOTH",
"364 623 LINE SMOOTH",
"403 624 OFFCURVE",
"524 617 OFFCURVE",
"524 558 CURVE SMOOTH",
"524 534 OFFCURVE",
"511 512 OFFCURVE",
"492 512 CURVE SMOOTH",
"472 512 OFFCURVE",
"418 514 OFFCURVE",
"418 544 CURVE SMOOTH",
"418 555 OFFCURVE",
"421 561 OFFCURVE",
"421 572 CURVE SMOOTH",
"421 597 OFFCURVE",
"404 597 OFFCURVE",
"390 572 CURVE SMOOTH",
"385 563 OFFCURVE",
"381 555 OFFCURVE",
"381 544 CURVE SMOOTH",
"381 485 OFFCURVE",
"440 472 OFFCURVE",
"483 472 CURVE SMOOTH",
"536 472 OFFCURVE",
"561 530 OFFCURVE",
"561 558 CURVE SMOOTH",
"561 648 OFFCURVE",
"427 661 OFFCURVE",
"364 661 CURVE SMOOTH",
"354 661 OFFCURVE",
"344 659 OFFCURVE",
"334 659 CURVE SMOOTH",
"313 659 LINE SMOOTH",
"303 659 OFFCURVE",
"291 654 OFFCURVE",
"281 653 CURVE SMOOTH",
"267 651 OFFCURVE",
"255 647 OFFCURVE",
"243 641 CURVE",
"216 632 OFFCURVE",
"192 616 OFFCURVE",
"168 598 CURVE SMOOTH",
"127 566 OFFCURVE",
"121 493 OFFCURVE",
"121 451 CURVE SMOOTH",
"121 437 OFFCURVE",
"127 428 OFFCURVE",
"132 420 CURVE SMOOTH",
"143 403 OFFCURVE",
"153 385 OFFCURVE",
"165 369 CURVE",
"139 350 OFFCURVE",
"117 329 OFFCURVE",
"104 308 CURVE SMOOTH",
"91 290 OFFCURVE",
"91 262 OFFCURVE",
"80 248 CURVE",
"78 247 OFFCURVE",
"78 247 OFFCURVE",
"76 246 CURVE SMOOTH",
"37 230 OFFCURVE",
"34 159 OFFCURVE",
"30 122 CURVE SMOOTH",
"26 97 OFFCURVE",
"7 76 OFFCURVE",
"7 49 CURVE SMOOTH",
"7 -42 OFFCURVE",
"80 -105 OFFCURVE",
"159 -105 CURVE SMOOTH",
"216 -105 OFFCURVE",
"279 -97 OFFCURVE",
"330 -74 CURVE SMOOTH",
"350 -64 OFFCURVE",
"368 -65 OFFCURVE",
"384 -45 CURVE",
"417 -36 OFFCURVE",
"419 -51 OFFCURVE",
"458 -20 CURVE SMOOTH",
"524 34 OFFCURVE",
"556 56 OFFCURVE",
"574 143 CURVE SMOOTH",
"581 178 OFFCURVE",
"599 192 OFFCURVE",
"599 236 CURVE SMOOTH"
);
},
{
closed = 1;
nodes = (
"347 398 LINE",
"347 365 OFFCURVE",
"304 359 OFFCURVE",
"278 359 CURVE",
"274 360 OFFCURVE",
"270 360 OFFCURVE",
"266 360 CURVE SMOOTH",
"255 360 LINE",
"248 362 OFFCURVE",
"240 364 OFFCURVE",
"232 366 CURVE",
"248 382 OFFCURVE",
"263 394 OFFCURVE",
"273 394 CURVE SMOOTH",
"282 394 OFFCURVE",
"288 399 OFFCURVE",
"290 406 CURVE",
"306 410 OFFCURVE",
"321 414 OFFCURVE",
"335 415 CURVE",
"345 412 OFFCURVE",
"348 406 OFFCURVE",
"348 398 CURVE"
);
},
{
closed = 1;
nodes = (
"67 -20 LINE",
"65 -18 OFFCURVE",
"64 -16 OFFCURVE",
"63 -14 CURVE",
"64 -15 LINE",
"66 -15 LINE"
);
}
);
width = 615;
}
);
note = E;
unicode = 0045;
},
{
glyphname = Eacute;
lastChange = "2021-04-16 08:59:17 +0000";
layers = (
{
hints = (
{
horizontal = 1;
place = "{-105, 56}";
type = Stem;
},
{
horizontal = 1;
place = "{46, 69}";
type = Stem;
},
{
horizontal = 1;
place = "{285, 39}";
type = Stem;
},
{
horizontal = 1;
place = "{415, 39}";
type = Stem;
},
{
horizontal = 1;
place = "{472, 41}";
type = Stem;
},
{
horizontal = 1;
place = "{623, 38}";
type = Stem;
},
{
place = "{8, 66}";
type = Stem;
},
{
place = "{122, 69}";
type = Stem;
},
{
place = "{382, 37}";
type = Stem;
},
{
place = "{421, 39}";
type = Stem;
},
{
place = "{524, 37}";
type = Stem;
}
);
layerId = "5C71BA0D-BC2C-47B0-9323-6F63B3241D58";
paths = (
{
closed = 1;
nodes = (
"599 313 OFFCURVE",
"519 325 OFFCURVE",
"461 325 CURVE SMOOTH",
"445 325 OFFCURVE",
"427 323 OFFCURVE",
"409 322 CURVE SMOOTH",
"394 322 OFFCURVE",
"380 319 OFFCURVE",
"366 316 CURVE SMOOTH",
"355 313 OFFCURVE",
"344 310 OFFCURVE",
"334 305 CURVE SMOOTH",
"266 276 OFFCURVE",
"231 185 OFFCURVE",
"231 123 CURVE SMOOTH",
"231 69 OFFCURVE",
"279 45 OFFCURVE",
"315 45 CURVE SMOOTH",
"341 45 OFFCURVE",
"384 56 OFFCURVE",
"416 77 CURVE",
"419 78 OFFCURVE",
"421 80 OFFCURVE",
"423 82 CURVE",
"458 106 OFFCURVE",
"477 141 OFFCURVE",
"439 183 CURVE SMOOTH",
"422 201 OFFCURVE",
"395 176 OFFCURVE",
"411 157 CURVE SMOOTH",
"428 139 OFFCURVE",
"421 124 OFFCURVE",
"404 112 CURVE",
"404 112 LINE",
"390 108 OFFCURVE",
"377 98 OFFCURVE",
"362 98 CURVE SMOOTH",
"352 98 OFFCURVE",
"341 92 OFFCURVE",
"331 92 CURVE",
"326 97 OFFCURVE",
"319 115 OFFCURVE",
"305 115 CURVE SMOOTH",
"304 115 OFFCURVE",
"302 115 OFFCURVE",
"302 115 CURVE",
"301 117 LINE SMOOTH",
"300 121 OFFCURVE",
"301 126 OFFCURVE",
"302 132 CURVE",
"298 143 OFFCURVE",
"294 171 OFFCURVE",
"295 186 CURVE",
"308 236 OFFCURVE",
"322 256 OFFCURVE",
"357 275 CURVE",
"374 280 OFFCURVE",
"392 284 OFFCURVE",
"411 285 CURVE SMOOTH",
"421 285 OFFCURVE",
"434 283 OFFCURVE",
"445 283 CURVE SMOOTH",
"469 283 LINE SMOOTH",
"515 283 OFFCURVE",
"534 257 OFFCURVE",
"534 209 CURVE SMOOTH",
"534 162 OFFCURVE",
"513 89 OFFCURVE",
"461 47 CURVE SMOOTH",
"457 43 OFFCURVE",
"454 40 OFFCURVE",
"442 37 CURVE SMOOTH",
"387 26 OFFCURVE",
"367 3 OFFCURVE",
"338 -8 CURVE SMOOTH",
"302 -21 OFFCURVE",
"274 -37 OFFCURVE",
"245 -49 CURVE",
"244 -49 LINE SMOOTH",
"224 -48 OFFCURVE",
"212 -46 OFFCURVE",
"192 -46 CURVE SMOOTH",
"184 -46 OFFCURVE",
"180 -49 OFFCURVE",
"172 -49 CURVE SMOOTH",
"161 -49 OFFCURVE",
"150 -40 OFFCURVE",
"137 -40 CURVE SMOOTH",
"130 -40 OFFCURVE",
"123 -44 OFFCURVE",
"119 -49 CURVE",
"117 -50 LINE",
"93 -48 OFFCURVE",
"117 9 OFFCURVE",
"79 20 CURVE",
"77 20 LINE",
"78 23 LINE SMOOTH",
"82 33 OFFCURVE",
"81 46 OFFCURVE",
"73 54 CURVE",
"83 63 OFFCURVE",
"85 75 OFFCURVE",
"78 85 CURVE SMOOTH",
"77 86 LINE",
"87 109 OFFCURVE",
"104 120 OFFCURVE",
"104 150 CURVE SMOOTH",
"104 158 OFFCURVE",
"104 164 OFFCURVE",
"103 169 CURVE",
"105 170 OFFCURVE",
"108 173 OFFCURVE",
"111 176 CURVE",
"113 192 LINE",
"116 193 LINE",
"135 195 OFFCURVE",
"135 214 OFFCURVE",
"127 227 CURVE",
"138 231 OFFCURVE",
"147 238 OFFCURVE",
"150 251 CURVE",
"156 265 OFFCURVE",
"179 301 OFFCURVE",
"204 333 CURVE",
"217 327 OFFCURVE",
"232 323 OFFCURVE",
"251 323 CURVE SMOOTH",
"253 323 LINE SMOOTH",
"260 322 OFFCURVE",
"267 321 OFFCURVE",
"275 321 CURVE",
"278 322 LINE",
"284 320 OFFCURVE",
"290 317 OFFCURVE",
"297 317 CURVE SMOOTH",
"340 317 OFFCURVE",
"415 359 OFFCURVE",
"415 418 CURVE SMOOTH",
"415 452 OFFCURVE",
"387 453 OFFCURVE",
"363 453 CURVE",
"356 454 OFFCURVE",
"348 453 OFFCURVE",
"339 452 CURVE",
"333 454 OFFCURVE",
"327 454 OFFCURVE",
"321 454 CURVE SMOOTH",
"311 455 OFFCURVE",
"305 450 OFFCURVE",
"303 443 CURVE",
"292 440 OFFCURVE",
"281 435 OFFCURVE",
"270 430 CURVE",
"256 429 OFFCURVE",
"240 420 OFFCURVE",
"224 407 CURVE",
"215 402 OFFCURVE",
"206 397 OFFCURVE",
"197 392 CURVE",
"185 407 OFFCURVE",
"176 428 OFFCURVE",
"180 438 CURVE",
"192 451 OFFCURVE",
"195 466 OFFCURVE",
"183 479 CURVE SMOOTH",
"181 481 LINE",
"186 502 OFFCURVE",
"214 553 OFFCURVE",
"225 570 CURVE SMOOTH",
"235 588 OFFCURVE",
"244 598 OFFCURVE",
"252 604 CURVE",
"264 609 OFFCURVE",
"276 613 OFFCURVE",
"288 615 CURVE",
"293 617 OFFCURVE",
"299 617 OFFCURVE",
"305 619 CURVE SMOOTH",
"315 621 OFFCURVE",
"325 623 OFFCURVE",
"335 623 CURVE SMOOTH",
"353 623 LINE SMOOTH",
"355 623 OFFCURVE",
"358 623 OFFCURVE",
"359 623 CURVE SMOOTH",
"364 623 LINE SMOOTH",
"403 624 OFFCURVE",
"524 617 OFFCURVE",
"524 558 CURVE SMOOTH",
"524 534 OFFCURVE",
"511 512 OFFCURVE",
"492 512 CURVE SMOOTH",
"472 512 OFFCURVE",
"418 514 OFFCURVE",
"418 544 CURVE SMOOTH",
"418 555 OFFCURVE",
"421 561 OFFCURVE",
"421 572 CURVE SMOOTH",
"421 597 OFFCURVE",
"404 598 OFFCURVE",
"390 572 CURVE SMOOTH",
"385 563 OFFCURVE",
"381 555 OFFCURVE",
"381 544 CURVE SMOOTH",
"381 485 OFFCURVE",
"440 472 OFFCURVE",
"483 472 CURVE SMOOTH",
"536 472 OFFCURVE",
"561 530 OFFCURVE",
"561 558 CURVE SMOOTH",
"561 648 OFFCURVE",
"427 661 OFFCURVE",
"364 661 CURVE SMOOTH",
"354 661 OFFCURVE",
"344 659 OFFCURVE",
"334 659 CURVE SMOOTH",
"313 659 LINE SMOOTH",
"303 659 OFFCURVE",
"291 654 OFFCURVE",
"281 653 CURVE SMOOTH",
"267 651 OFFCURVE",
"255 647 OFFCURVE",
"243 641 CURVE",
"216 632 OFFCURVE",
"192 616 OFFCURVE",
"168 598 CURVE SMOOTH",
"127 566 OFFCURVE",
"121 493 OFFCURVE",
"121 451 CURVE SMOOTH",
"121 437 OFFCURVE",
"127 428 OFFCURVE",
"132 420 CURVE SMOOTH",
"143 403 OFFCURVE",
"153 385 OFFCURVE",
"165 369 CURVE",
"139 350 OFFCURVE",
"117 329 OFFCURVE",
"104 308 CURVE SMOOTH",
"91 290 OFFCURVE",
"91 262 OFFCURVE",
"80 248 CURVE",
"78 247 OFFCURVE",
"78 247 OFFCURVE",
"76 246 CURVE SMOOTH",
"37 230 OFFCURVE",
"34 159 OFFCURVE",
"30 122 CURVE SMOOTH",
"26 97 OFFCURVE",
"7 76 OFFCURVE",
"7 49 CURVE SMOOTH",
"7 -42 OFFCURVE",
"80 -105 OFFCURVE",
"159 -105 CURVE SMOOTH",
"216 -105 OFFCURVE",
"279 -97 OFFCURVE",
"330 -74 CURVE SMOOTH",
"350 -64 OFFCURVE",
"368 -65 OFFCURVE",
"384 -45 CURVE",
"417 -36 OFFCURVE",
"419 -51 OFFCURVE",
"458 -20 CURVE SMOOTH",
"524 34 OFFCURVE",
"556 56 OFFCURVE",
"574 143 CURVE SMOOTH",
"581 178 OFFCURVE",
"599 192 OFFCURVE",
"599 236 CURVE SMOOTH"
);
},
{
closed = 1;
nodes = (
"347 398 LINE",
"347 365 OFFCURVE",
"304 359 OFFCURVE",
"278 359 CURVE",
"274 360 OFFCURVE",
"270 360 OFFCURVE",
"266 360 CURVE SMOOTH",
"255 360 LINE",
"248 362 OFFCURVE",
"240 364 OFFCURVE",
"232 366 CURVE",
"248 382 OFFCURVE",
"263 394 OFFCURVE",
"273 394 CURVE SMOOTH",
"282 394 OFFCURVE",
"288 399 OFFCURVE",
"290 406 CURVE",
"306 410 OFFCURVE",
"321 414 OFFCURVE",
"335 415 CURVE",
"345 412 OFFCURVE",
"348 406 OFFCURVE",
"348 398 CURVE"
);
},
{
closed = 1;
nodes = (
"67 -20 LINE",
"65 -18 OFFCURVE",
"64 -16 OFFCURVE",
"63 -14 CURVE",
"64 -15 LINE",
"66 -15 LINE"
);
},
{
closed = 1;
nodes = (
"508 817 OFFCURVE",
"506 840 OFFCURVE",
"484 840 CURVE SMOOTH",
"441 840 OFFCURVE",
"402 774 OFFCURVE",
"368 752 CURVE",
"365 749 OFFCURVE",
"363 746 OFFCURVE",
"363 743 CURVE",
"361 741 LINE",
"348 732 OFFCURVE",
"354 717 OFFCURVE",
"370 719 CURVE SMOOTH",
"395 723 OFFCURVE",
"412 737 OFFCURVE",
"431 748 CURVE SMOOTH",
"448 756 OFFCURVE",
"466 765 OFFCURVE",
"479 776 CURVE",
"491 781 OFFCURVE",
"508 788 OFFCURVE",
"508 802 CURVE SMOOTH"
);
}
);
width = 615;
}
);
note = Eacute;
unicode = 00C9;
},
{
glyphname = Ecircumflex;
lastChange = "2021-04-16 08:59:17 +0000";
layers = (
{
hints = (
{
horizontal = 1;
place = "{-105, 56}";
type = Stem;
},
{
horizontal = 1;
place = "{46, 69}";
type = Stem;
},
{
horizontal = 1;
place = "{285, 39}";
type = Stem;
},
{
horizontal = 1;
place = "{415, 37}";
type = Stem;
},
{
horizontal = 1;
place = "{472, 41}";
type = Stem;
},
{
horizontal = 1;
place = "{623, 38}";
type = Stem;
},
{
place = "{8, 66}";
type = Stem;
},
{
place = "{122, 69}";
type = Stem;
},
{
place = "{348, 67}";
type = Stem;
},
{
place = "{421, 39}";
type = Stem;
},
{
place = "{534, 65}";
type = Stem;
}
);
layerId = "5C71BA0D-BC2C-47B0-9323-6F63B3241D58";
paths = (
{
closed = 1;
nodes = (
"599 313 OFFCURVE",
"519 325 OFFCURVE",
"461 325 CURVE SMOOTH",
"445 325 OFFCURVE",
"427 323 OFFCURVE",
"409 322 CURVE SMOOTH",
"394 322 OFFCURVE",
"380 319 OFFCURVE",
"366 316 CURVE SMOOTH",
"355 313 OFFCURVE",
"344 310 OFFCURVE",
"334 305 CURVE SMOOTH",
"266 276 OFFCURVE",
"231 185 OFFCURVE",
"231 123 CURVE SMOOTH",
"231 69 OFFCURVE",
"279 45 OFFCURVE",
"315 45 CURVE SMOOTH",
"341 45 OFFCURVE",
"384 56 OFFCURVE",
"416 77 CURVE",
"419 78 OFFCURVE",
"421 80 OFFCURVE",
"423 82 CURVE",
"458 106 OFFCURVE",
"477 141 OFFCURVE",
"439 183 CURVE SMOOTH",
"422 201 OFFCURVE",
"395 176 OFFCURVE",
"411 157 CURVE SMOOTH",
"428 139 OFFCURVE",
"421 124 OFFCURVE",
"404 112 CURVE",
"404 112 LINE",
"390 108 OFFCURVE",
"377 98 OFFCURVE",
"362 98 CURVE SMOOTH",
"352 98 OFFCURVE",
"341 92 OFFCURVE",
"331 92 CURVE",
"326 97 OFFCURVE",
"319 115 OFFCURVE",
"305 115 CURVE SMOOTH",
"304 115 OFFCURVE",
"302 115 OFFCURVE",
"302 115 CURVE",
"301 117 LINE SMOOTH",
"300 121 OFFCURVE",
"301 126 OFFCURVE",
"302 132 CURVE",
"298 143 OFFCURVE",
"294 171 OFFCURVE",
"295 186 CURVE",
"308 236 OFFCURVE",
"322 256 OFFCURVE",
"357 275 CURVE",
"374 280 OFFCURVE",
"392 284 OFFCURVE",
"411 285 CURVE SMOOTH",
"421 285 OFFCURVE",
"434 283 OFFCURVE",
"445 283 CURVE SMOOTH",
"469 283 LINE SMOOTH",
"515 283 OFFCURVE",
"534 257 OFFCURVE",
"534 209 CURVE SMOOTH",
"534 162 OFFCURVE",
"513 89 OFFCURVE",
"461 47 CURVE SMOOTH",
"457 43 OFFCURVE",
"454 40 OFFCURVE",
"442 37 CURVE SMOOTH",
"387 26 OFFCURVE",
"367 3 OFFCURVE",
"338 -8 CURVE SMOOTH",
"302 -21 OFFCURVE",
"274 -37 OFFCURVE",
"245 -49 CURVE",
"244 -49 LINE SMOOTH",
"224 -48 OFFCURVE",
"212 -46 OFFCURVE",
"192 -46 CURVE SMOOTH",
"184 -46 OFFCURVE",
"180 -49 OFFCURVE",
"172 -49 CURVE SMOOTH",
"161 -49 OFFCURVE",
"150 -40 OFFCURVE",
"137 -40 CURVE SMOOTH",
"130 -40 OFFCURVE",
"123 -44 OFFCURVE",
"119 -49 CURVE",
"117 -50 LINE",
"93 -48 OFFCURVE",
"117 9 OFFCURVE",
"79 20 CURVE",
"77 20 LINE",
"78 23 LINE SMOOTH",
"82 33 OFFCURVE",
"81 46 OFFCURVE",
"73 54 CURVE",
"83 63 OFFCURVE",
"85 75 OFFCURVE",
"78 85 CURVE SMOOTH",
"77 86 LINE",
"87 109 OFFCURVE",
"104 120 OFFCURVE",
"104 150 CURVE SMOOTH",
"104 158 OFFCURVE",
"104 164 OFFCURVE",
"103 169 CURVE",
"105 170 OFFCURVE",
"108 173 OFFCURVE",
"111 176 CURVE",
"113 192 LINE",
"116 193 LINE",
"135 195 OFFCURVE",
"135 214 OFFCURVE",
"127 227 CURVE",
"138 231 OFFCURVE",
"147 238 OFFCURVE",
"150 251 CURVE",
"156 265 OFFCURVE",
"179 301 OFFCURVE",
"204 333 CURVE",
"217 327 OFFCURVE",
"232 323 OFFCURVE",
"251 323 CURVE SMOOTH",
"253 323 LINE SMOOTH",
"260 322 OFFCURVE",
"267 321 OFFCURVE",
"275 321 CURVE",
"278 322 LINE",
"284 320 OFFCURVE",
"290 317 OFFCURVE",
"297 317 CURVE SMOOTH",
"340 317 OFFCURVE",
"415 359 OFFCURVE",
"415 418 CURVE SMOOTH",
"415 452 OFFCURVE",
"387 453 OFFCURVE",
"363 453 CURVE",
"356 454 OFFCURVE",
"348 453 OFFCURVE",
"339 452 CURVE",
"333 454 OFFCURVE",
"327 454 OFFCURVE",
"321 454 CURVE SMOOTH",
"311 455 OFFCURVE",
"305 450 OFFCURVE",
"303 443 CURVE",
"292 440 OFFCURVE",
"281 435 OFFCURVE",
"270 430 CURVE",
"256 429 OFFCURVE",
"240 420 OFFCURVE",
"224 407 CURVE",
"215 402 OFFCURVE",
"206 397 OFFCURVE",
"197 392 CURVE",
"185 407 OFFCURVE",
"176 428 OFFCURVE",
"180 438 CURVE",
"192 451 OFFCURVE",
"195 466 OFFCURVE",
"183 479 CURVE SMOOTH",
"181 481 LINE",
"186 502 OFFCURVE",
"214 553 OFFCURVE",
"225 570 CURVE SMOOTH",
"235 588 OFFCURVE",
"244 598 OFFCURVE",
"252 604 CURVE",
"264 609 OFFCURVE",
"276 613 OFFCURVE",
"288 615 CURVE",
"293 617 OFFCURVE",
"299 617 OFFCURVE",
"305 619 CURVE SMOOTH",
"315 621 OFFCURVE",
"325 623 OFFCURVE",
"335 623 CURVE SMOOTH",
"353 623 LINE SMOOTH",
"355 623 OFFCURVE",
"358 623 OFFCURVE",
"359 623 CURVE SMOOTH",
"364 623 LINE SMOOTH",
"403 624 OFFCURVE",
"524 617 OFFCURVE",
"524 558 CURVE SMOOTH",
"524 534 OFFCURVE",
"511 512 OFFCURVE",
"492 512 CURVE SMOOTH",
"472 512 OFFCURVE",
"418 514 OFFCURVE",
"418 544 CURVE SMOOTH",
"418 555 OFFCURVE",
"421 561 OFFCURVE",
"421 572 CURVE SMOOTH",
"421 597 OFFCURVE",
"404 598 OFFCURVE",
"390 572 CURVE SMOOTH",
"385 563 OFFCURVE",
"381 555 OFFCURVE",
"381 544 CURVE SMOOTH",
"381 485 OFFCURVE",
"440 472 OFFCURVE",
"483 472 CURVE SMOOTH",
"536 472 OFFCURVE",
"561 530 OFFCURVE",
"561 558 CURVE SMOOTH",
"561 648 OFFCURVE",
"427 661 OFFCURVE",
"364 661 CURVE SMOOTH",
"354 661 OFFCURVE",
"344 659 OFFCURVE",
"334 659 CURVE SMOOTH",
"313 659 LINE SMOOTH",
"303 659 OFFCURVE",
"291 654 OFFCURVE",
"281 653 CURVE SMOOTH",
"267 651 OFFCURVE",
"255 647 OFFCURVE",
"243 641 CURVE",
"216 632 OFFCURVE",
"192 616 OFFCURVE",
"168 598 CURVE SMOOTH",
"127 566 OFFCURVE",
"121 493 OFFCURVE",
"121 451 CURVE SMOOTH",
"121 437 OFFCURVE",
"127 428 OFFCURVE",
"132 420 CURVE SMOOTH",
"143 403 OFFCURVE",
"153 385 OFFCURVE",
"165 369 CURVE",
"139 350 OFFCURVE",
"117 329 OFFCURVE",
"104 308 CURVE SMOOTH",
"91 290 OFFCURVE",
"91 262 OFFCURVE",
"80 248 CURVE",
"78 247 OFFCURVE",
"78 247 OFFCURVE",
"76 246 CURVE SMOOTH",
"37 230 OFFCURVE",
"34 159 OFFCURVE",
"30 122 CURVE SMOOTH",
"26 97 OFFCURVE",
"7 76 OFFCURVE",
"7 49 CURVE SMOOTH",
"7 -42 OFFCURVE",
"80 -105 OFFCURVE",
"159 -105 CURVE SMOOTH",
"216 -105 OFFCURVE",
"279 -97 OFFCURVE",
"330 -74 CURVE SMOOTH",
"350 -64 OFFCURVE",
"368 -65 OFFCURVE",
"384 -45 CURVE",
"417 -36 OFFCURVE",
"419 -51 OFFCURVE",
"458 -20 CURVE SMOOTH",
"524 34 OFFCURVE",
"556 56 OFFCURVE",
"574 143 CURVE SMOOTH",
"581 178 OFFCURVE",
"599 192 OFFCURVE",
"599 236 CURVE SMOOTH"
);
},
{
closed = 1;
nodes = (
"347 398 LINE",
"347 365 OFFCURVE",
"304 359 OFFCURVE",
"278 359 CURVE",
"274 360 OFFCURVE",
"270 360 OFFCURVE",
"266 360 CURVE SMOOTH",
"255 360 LINE",
"248 362 OFFCURVE",
"240 364 OFFCURVE",
"232 366 CURVE",
"248 382 OFFCURVE",
"263 394 OFFCURVE",
"273 394 CURVE SMOOTH",
"282 394 OFFCURVE",
"288 399 OFFCURVE",
"290 406 CURVE",
"306 410 OFFCURVE",
"321 414 OFFCURVE",
"335 415 CURVE",
"345 412 OFFCURVE",
"348 406 OFFCURVE",
"348 398 CURVE"
);
},
{
closed = 1;
nodes = (
"67 -20 LINE",
"65 -18 OFFCURVE",
"64 -16 OFFCURVE",
"63 -14 CURVE",
"64 -15 LINE",
"66 -15 LINE"
);
},
{
closed = 1;
nodes = (
"517 722 OFFCURVE",
"517 724 OFFCURVE",
"516 725 CURVE SMOOTH",
"500 748 OFFCURVE",
"475 759 OFFCURVE",
"458 780 CURVE SMOOTH",
"446 795 OFFCURVE",
"437 811 OFFCURVE",
"421 823 CURVE SMOOTH",
"419 825 OFFCURVE",
"417 828 OFFCURVE",
"415 830 CURVE SMOOTH",
"411 835 OFFCURVE",
"406 838 OFFCURVE",
"401 839 CURVE",
"399 841 OFFCURVE",
"397 842 OFFCURVE",
"394 842 CURVE SMOOTH",
"391 842 OFFCURVE",
"378 832 OFFCURVE",
"376 831 CURVE",
"361 828 OFFCURVE",
"357 827 OFFCURVE",
"356 814 CURVE SMOOTH",
"356 813 OFFCURVE",
"347 807 OFFCURVE",
"345 807 CURVE",
"338 799 LINE SMOOTH",
"334 795 OFFCURVE",
"329 796 OFFCURVE",
"322 788 CURVE SMOOTH",
"298 760 OFFCURVE",
"285 753 OFFCURVE",
"261 726 CURVE SMOOTH",
"254 718 OFFCURVE",
"265 704 OFFCURVE",
"273 712 CURVE SMOOTH",
"298 740 OFFCURVE",
"306 739 OFFCURVE",
"330 768 CURVE SMOOTH",
"333 772 OFFCURVE",
"349 785 OFFCURVE",
"354 784 CURVE SMOOTH",
"358 784 LINE SMOOTH",
"375 783 OFFCURVE",
"378 789 OFFCURVE",
"379 798 CURVE",
"385 800 OFFCURVE",
"391 795 OFFCURVE",
"396 791 CURVE",
"398 783 OFFCURVE",
"401 784 OFFCURVE",
"408 782 CURVE",
"409 781 LINE",
"410 777 OFFCURVE",
"414 779 OFFCURVE",
"416 775 CURVE",
"421 757 OFFCURVE",
"444 740 OFFCURVE",
"448 732 CURVE",
"449 727 OFFCURVE",
"454 733 OFFCURVE",
"458 728 CURVE SMOOTH",
"460 725 OFFCURVE",
"483 705 OFFCURVE",
"489 705 CURVE SMOOTH",
"497 705 OFFCURVE",
"520 715 OFFCURVE",
"517 721 CURVE"
);
}
);
width = 615;
}
);
note = Ecircumflex;
unicode = 00CA;
},
{
glyphname = Edieresis;
lastChange = "2021-04-16 08:59:17 +0000";
layers = (
{
hints = (
{
horizontal = 1;
place = "{-105, 56}";
type = Stem;
},
{
horizontal = 1;
place = "{46, 69}";
type = Stem;
},
{
horizontal = 1;
place = "{285, 39}";
type = Stem;
},
{
horizontal = 1;
place = "{415, 37}";
type = Stem;
},
{
horizontal = 1;
place = "{472, 41}";
type = Stem;
},
{
horizontal = 1;
place = "{623, 38}";
type = Stem;
},
{
place = "{8, 66}";
type = Stem;
},
{
place = "{122, 69}";
type = Stem;
},
{
place = "{348, 67}";
type = Stem;
},
{
place = "{421, 39}";
type = Stem;
},
{
place = "{534, 65}";
type = Stem;
}
);
layerId = "5C71BA0D-BC2C-47B0-9323-6F63B3241D58";
paths = (
{
closed = 1;
nodes = (
"599 313 OFFCURVE",
"519 325 OFFCURVE",
"461 325 CURVE SMOOTH",
"445 325 OFFCURVE",
"427 323 OFFCURVE",
"409 322 CURVE SMOOTH",
"394 322 OFFCURVE",
"380 319 OFFCURVE",
"366 316 CURVE SMOOTH",
"355 313 OFFCURVE",
"344 310 OFFCURVE",
"334 305 CURVE SMOOTH",
"266 276 OFFCURVE",
"231 185 OFFCURVE",
"231 123 CURVE SMOOTH",
"231 69 OFFCURVE",
"279 45 OFFCURVE",
"315 45 CURVE SMOOTH",
"341 45 OFFCURVE",
"384 56 OFFCURVE",
"416 77 CURVE",
"419 78 OFFCURVE",
"421 80 OFFCURVE",
"423 82 CURVE",
"458 106 OFFCURVE",
"477 141 OFFCURVE",
"439 183 CURVE SMOOTH",
"422 201 OFFCURVE",
"395 176 OFFCURVE",
"411 157 CURVE SMOOTH",
"428 139 OFFCURVE",
"421 124 OFFCURVE",
"404 112 CURVE",
"404 112 LINE",
"390 108 OFFCURVE",
"377 98 OFFCURVE",
"362 98 CURVE SMOOTH",
"352 98 OFFCURVE",
"341 92 OFFCURVE",
"331 92 CURVE",
"326 97 OFFCURVE",
"319 115 OFFCURVE",
"305 115 CURVE SMOOTH",
"304 115 OFFCURVE",
"302 115 OFFCURVE",
"302 115 CURVE",
"301 117 LINE SMOOTH",
"300 121 OFFCURVE",
"301 126 OFFCURVE",
"302 132 CURVE",
"298 143 OFFCURVE",
"294 171 OFFCURVE",
"295 186 CURVE",
"308 236 OFFCURVE",
"322 256 OFFCURVE",
"357 275 CURVE",
"374 280 OFFCURVE",
"392 284 OFFCURVE",
"411 285 CURVE SMOOTH",
"421 285 OFFCURVE",
"434 283 OFFCURVE",
"445 283 CURVE SMOOTH",
"469 283 LINE SMOOTH",
"515 283 OFFCURVE",
"534 257 OFFCURVE",
"534 209 CURVE SMOOTH",
"534 162 OFFCURVE",
"513 89 OFFCURVE",
"461 47 CURVE SMOOTH",
"457 43 OFFCURVE",
"454 40 OFFCURVE",
"442 37 CURVE SMOOTH",
"387 26 OFFCURVE",
"367 3 OFFCURVE",
"338 -8 CURVE SMOOTH",
"302 -21 OFFCURVE",
"274 -37 OFFCURVE",
"245 -49 CURVE",
"244 -49 LINE SMOOTH",
"224 -48 OFFCURVE",
"212 -46 OFFCURVE",
"192 -46 CURVE SMOOTH",
"184 -46 OFFCURVE",
"180 -49 OFFCURVE",
"172 -49 CURVE SMOOTH",
"161 -49 OFFCURVE",
"150 -40 OFFCURVE",
"137 -40 CURVE SMOOTH",
"130 -40 OFFCURVE",
"123 -44 OFFCURVE",
"119 -49 CURVE",
"117 -50 LINE",
"93 -48 OFFCURVE",
"117 9 OFFCURVE",
"79 20 CURVE",
"77 20 LINE",
"78 23 LINE SMOOTH",
"82 33 OFFCURVE",
"81 46 OFFCURVE",
"73 54 CURVE",
"83 63 OFFCURVE",
"85 75 OFFCURVE",
"78 85 CURVE SMOOTH",
"77 86 LINE",
"87 109 OFFCURVE",
"104 120 OFFCURVE",
"104 150 CURVE SMOOTH",
"104 158 OFFCURVE",
"104 164 OFFCURVE",
"103 169 CURVE",
"105 170 OFFCURVE",
"108 173 OFFCURVE",
"111 176 CURVE",
"113 192 LINE",
"116 193 LINE",
"135 195 OFFCURVE",
"135 214 OFFCURVE",
"127 227 CURVE",
"138 231 OFFCURVE",
"147 238 OFFCURVE",
"150 251 CURVE",
"156 265 OFFCURVE",
"179 301 OFFCURVE",
"204 333 CURVE",
"217 327 OFFCURVE",
"232 323 OFFCURVE",
"251 323 CURVE SMOOTH",
"253 323 LINE SMOOTH",
"260 322 OFFCURVE",
"267 321 OFFCURVE",
"275 321 CURVE",
"278 322 LINE",
"284 320 OFFCURVE",
"290 317 OFFCURVE",
"297 317 CURVE SMOOTH",
"340 317 OFFCURVE",
"415 359 OFFCURVE",
"415 418 CURVE SMOOTH",
"415 452 OFFCURVE",
"387 453 OFFCURVE",
"363 453 CURVE",
"356 454 OFFCURVE",
"348 453 OFFCURVE",
"339 452 CURVE",
"333 454 OFFCURVE",
"327 454 OFFCURVE",
"321 454 CURVE SMOOTH",
"311 455 OFFCURVE",
"305 450 OFFCURVE",
"303 443 CURVE",
"292 440 OFFCURVE",
"281 435 OFFCURVE",
"270 430 CURVE",
"256 429 OFFCURVE",
"240 420 OFFCURVE",
"224 407 CURVE",
"215 402 OFFCURVE",
"206 397 OFFCURVE",
"197 392 CURVE",
"185 407 OFFCURVE",
"176 428 OFFCURVE",
"180 438 CURVE",
"192 451 OFFCURVE",
"195 466 OFFCURVE",
"183 479 CURVE SMOOTH",
"181 481 LINE",
"186 502 OFFCURVE",
"214 553 OFFCURVE",
"225 570 CURVE SMOOTH",
"235 588 OFFCURVE",
"244 598 OFFCURVE",
"252 604 CURVE",
"264 609 OFFCURVE",
"276 613 OFFCURVE",
"288 615 CURVE",
"293 617 OFFCURVE",
"299 617 OFFCURVE",
"305 619 CURVE SMOOTH",
"315 621 OFFCURVE",
"325 623 OFFCURVE",
"335 623 CURVE SMOOTH",
"353 623 LINE SMOOTH",
"355 623 OFFCURVE",
"358 623 OFFCURVE",
"359 623 CURVE SMOOTH",
"364 623 LINE SMOOTH",
"403 624 OFFCURVE",
"524 617 OFFCURVE",
"524 558 CURVE SMOOTH",
"524 534 OFFCURVE",
"511 512 OFFCURVE",
"492 512 CURVE SMOOTH",
"472 512 OFFCURVE",
"418 514 OFFCURVE",
"418 544 CURVE SMOOTH",
"418 555 OFFCURVE",
"421 561 OFFCURVE",
"421 572 CURVE SMOOTH",
"421 597 OFFCURVE",
"404 598 OFFCURVE",
"390 572 CURVE SMOOTH",
"385 563 OFFCURVE",
"381 555 OFFCURVE",
"381 544 CURVE SMOOTH",
"381 485 OFFCURVE",
"440 472 OFFCURVE",
"483 472 CURVE SMOOTH",
"536 472 OFFCURVE",
"561 530 OFFCURVE",
"561 558 CURVE SMOOTH",
"561 648 OFFCURVE",
"427 661 OFFCURVE",
"364 661 CURVE SMOOTH",
"354 661 OFFCURVE",
"344 659 OFFCURVE",
"334 659 CURVE SMOOTH",
"313 659 LINE SMOOTH",
"303 659 OFFCURVE",
"291 654 OFFCURVE",
"281 653 CURVE SMOOTH",
"267 651 OFFCURVE",
"255 647 OFFCURVE",
"243 641 CURVE",
"216 632 OFFCURVE",
"192 616 OFFCURVE",
"168 598 CURVE SMOOTH",
"127 566 OFFCURVE",
"121 493 OFFCURVE",
"121 451 CURVE SMOOTH",
"121 437 OFFCURVE",
"127 428 OFFCURVE",
"132 420 CURVE SMOOTH",
"143 403 OFFCURVE",
"153 385 OFFCURVE",
"165 369 CURVE",
"139 350 OFFCURVE",
"117 329 OFFCURVE",
"104 308 CURVE SMOOTH",
"91 290 OFFCURVE",
"91 262 OFFCURVE",
"80 248 CURVE",
"78 247 OFFCURVE",
"78 247 OFFCURVE",
"76 246 CURVE SMOOTH",
"37 230 OFFCURVE",
"34 159 OFFCURVE",
"30 122 CURVE SMOOTH",
"26 97 OFFCURVE",
"7 76 OFFCURVE",
"7 49 CURVE SMOOTH",
"7 -42 OFFCURVE",
"80 -105 OFFCURVE",
"159 -105 CURVE SMOOTH",
"216 -105 OFFCURVE",
"279 -97 OFFCURVE",
"330 -74 CURVE SMOOTH",
"350 -64 OFFCURVE",
"368 -65 OFFCURVE",
"384 -45 CURVE",
"417 -36 OFFCURVE",
"419 -51 OFFCURVE",
"458 -20 CURVE SMOOTH",
"524 34 OFFCURVE",
"556 56 OFFCURVE",
"574 143 CURVE SMOOTH",
"581 178 OFFCURVE",
"599 192 OFFCURVE",
"599 236 CURVE SMOOTH"
);
},
{
closed = 1;
nodes = (
"347 398 LINE",
"347 365 OFFCURVE",
"304 359 OFFCURVE",
"278 359 CURVE",
"274 360 OFFCURVE",
"270 360 OFFCURVE",
"266 360 CURVE SMOOTH",
"255 360 LINE",
"248 362 OFFCURVE",
"240 364 OFFCURVE",
"232 366 CURVE",
"248 382 OFFCURVE",
"263 394 OFFCURVE",
"273 394 CURVE SMOOTH",
"282 394 OFFCURVE",
"288 399 OFFCURVE",
"290 406 CURVE",
"306 410 OFFCURVE",
"321 414 OFFCURVE",
"335 415 CURVE",
"345 412 OFFCURVE",
"348 406 OFFCURVE",
"348 398 CURVE"
);
},
{
closed = 1;
nodes = (
"67 -20 LINE",
"65 -18 OFFCURVE",
"64 -16 OFFCURVE",
"63 -14 CURVE",
"64 -15 LINE",
"66 -15 LINE"
);
},
{
closed = 1;
nodes = (
"508 778 OFFCURVE",
"491 792 OFFCURVE",
"466 789 CURVE SMOOTH",
"457 788 OFFCURVE",
"437 767 OFFCURVE",
"438 757 CURVE SMOOTH",
"441 741 OFFCURVE",
"448 716 OFFCURVE",
"479 717 CURVE SMOOTH",
"482 717 OFFCURVE",
"484 716 OFFCURVE",
"487 714 CURVE",
"487 714 OFFCURVE",
"488 713 OFFCURVE",
"489 713 CURVE SMOOTH",
"508 716 OFFCURVE",
"512 751 OFFCURVE",
"511 759 CURVE SMOOTH"
);
},
{
closed = 1;
nodes = (
"379 776 OFFCURVE",
"362 791 OFFCURVE",
"337 787 CURVE SMOOTH",
"328 786 OFFCURVE",
"308 765 OFFCURVE",
"309 755 CURVE SMOOTH",
"311 739 OFFCURVE",
"319 714 OFFCURVE",
"350 715 CURVE",
"353 716 OFFCURVE",
"354 714 OFFCURVE",
"358 712 CURVE",
"358 712 OFFCURVE",
"359 711 OFFCURVE",
"360 712 CURVE",
"379 714 OFFCURVE",
"383 749 OFFCURVE",
"382 757 CURVE SMOOTH"
);
}
);
width = 615;
}
);
note = Edieresis;
unicode = 00CB;
},
{
glyphname = Egrave;
lastChange = "2021-04-16 08:59:17 +0000";
layers = (
{
hints = (
{
horizontal = 1;
place = "{-105, 56}";
type = Stem;
},
{
horizontal = 1;
place = "{46, 69}";
type = Stem;
},
{
horizontal = 1;
place = "{285, 39}";
type = Stem;
},
{
horizontal = 1;
place = "{415, 39}";
type = Stem;
},
{
horizontal = 1;
place = "{472, 41}";
type = Stem;
},
{
horizontal = 1;
place = "{623, 38}";
type = Stem;
},
{
place = "{8, 66}";
type = Stem;
},
{
place = "{122, 69}";
type = Stem;
},
{
place = "{348, 67}";
type = Stem;
},
{
place = "{421, 39}";
type = Stem;
},
{
place = "{534, 65}";
type = Stem;
}
);
layerId = "5C71BA0D-BC2C-47B0-9323-6F63B3241D58";
paths = (
{
closed = 1;
nodes = (
"599 313 OFFCURVE",
"519 325 OFFCURVE",
"461 325 CURVE SMOOTH",
"445 325 OFFCURVE",
"427 323 OFFCURVE",
"409 322 CURVE SMOOTH",
"394 322 OFFCURVE",
"380 319 OFFCURVE",
"366 316 CURVE SMOOTH",
"355 313 OFFCURVE",
"344 310 OFFCURVE",
"334 305 CURVE SMOOTH",
"266 276 OFFCURVE",
"231 185 OFFCURVE",
"231 123 CURVE SMOOTH",
"231 69 OFFCURVE",
"279 45 OFFCURVE",
"315 45 CURVE SMOOTH",
"341 45 OFFCURVE",
"384 56 OFFCURVE",
"416 77 CURVE",
"419 78 OFFCURVE",
"421 80 OFFCURVE",
"423 82 CURVE",
"458 106 OFFCURVE",
"477 141 OFFCURVE",
"439 183 CURVE SMOOTH",
"422 201 OFFCURVE",
"395 176 OFFCURVE",
"411 157 CURVE SMOOTH",
"428 139 OFFCURVE",
"421 124 OFFCURVE",
"404 112 CURVE",
"404 112 LINE",
"390 108 OFFCURVE",
"377 98 OFFCURVE",
"362 98 CURVE SMOOTH",
"352 98 OFFCURVE",
"341 92 OFFCURVE",
"331 92 CURVE",
"326 97 OFFCURVE",
"319 115 OFFCURVE",
"305 115 CURVE SMOOTH",
"304 115 OFFCURVE",
"302 115 OFFCURVE",
"302 115 CURVE",
"301 117 LINE SMOOTH",
"300 121 OFFCURVE",
"301 126 OFFCURVE",
"302 132 CURVE",
"298 143 OFFCURVE",
"294 171 OFFCURVE",
"295 186 CURVE",
"308 236 OFFCURVE",
"322 256 OFFCURVE",
"357 275 CURVE",
"374 280 OFFCURVE",
"392 284 OFFCURVE",
"411 285 CURVE SMOOTH",
"421 285 OFFCURVE",
"434 283 OFFCURVE",
"445 283 CURVE SMOOTH",
"469 283 LINE SMOOTH",
"515 283 OFFCURVE",
"534 257 OFFCURVE",
"534 209 CURVE SMOOTH",
"534 162 OFFCURVE",
"513 89 OFFCURVE",
"461 47 CURVE SMOOTH",
"457 43 OFFCURVE",
"454 40 OFFCURVE",
"442 37 CURVE SMOOTH",
"387 26 OFFCURVE",
"367 3 OFFCURVE",
"338 -8 CURVE SMOOTH",
"302 -21 OFFCURVE",
"274 -37 OFFCURVE",
"245 -49 CURVE",
"244 -49 LINE SMOOTH",
"224 -48 OFFCURVE",
"212 -46 OFFCURVE",
"192 -46 CURVE SMOOTH",
"184 -46 OFFCURVE",
"180 -49 OFFCURVE",
"172 -49 CURVE SMOOTH",
"161 -49 OFFCURVE",
"150 -40 OFFCURVE",
"137 -40 CURVE SMOOTH",
"130 -40 OFFCURVE",
"123 -44 OFFCURVE",
"119 -49 CURVE",
"117 -50 LINE",
"93 -48 OFFCURVE",
"117 9 OFFCURVE",
"79 20 CURVE",
"77 20 LINE",
"78 23 LINE SMOOTH",
"82 33 OFFCURVE",
"81 46 OFFCURVE",
"73 54 CURVE",
"83 63 OFFCURVE",
"85 75 OFFCURVE",
"78 85 CURVE SMOOTH",
"77 86 LINE",
"87 109 OFFCURVE",
"104 120 OFFCURVE",
"104 150 CURVE SMOOTH",
"104 158 OFFCURVE",
"104 164 OFFCURVE",
"103 169 CURVE",
"105 170 OFFCURVE",
"108 173 OFFCURVE",
"111 176 CURVE",
"113 192 LINE",
"116 193 LINE",
"135 195 OFFCURVE",
"135 214 OFFCURVE",
"127 227 CURVE",
"138 231 OFFCURVE",
"147 238 OFFCURVE",
"150 251 CURVE",
"156 265 OFFCURVE",
"179 301 OFFCURVE",
"204 333 CURVE",
"217 327 OFFCURVE",
"232 323 OFFCURVE",
"251 323 CURVE SMOOTH",
"253 323 LINE SMOOTH",
"260 322 OFFCURVE",
"267 321 OFFCURVE",
"275 321 CURVE",
"278 322 LINE",
"284 320 OFFCURVE",
"290 317 OFFCURVE",
"297 317 CURVE SMOOTH",
"340 317 OFFCURVE",
"415 359 OFFCURVE",
"415 418 CURVE SMOOTH",
"415 452 OFFCURVE",
"387 453 OFFCURVE",
"363 453 CURVE",
"356 454 OFFCURVE",
"348 453 OFFCURVE",
"339 452 CURVE",
"333 454 OFFCURVE",
"327 454 OFFCURVE",
"321 454 CURVE SMOOTH",
"311 455 OFFCURVE",
"305 450 OFFCURVE",
"303 443 CURVE",
"292 440 OFFCURVE",
"281 435 OFFCURVE",
"270 430 CURVE",
"256 429 OFFCURVE",
"240 420 OFFCURVE",
"224 407 CURVE",
"215 402 OFFCURVE",
"206 397 OFFCURVE",
"197 392 CURVE",
"185 407 OFFCURVE",
"176 428 OFFCURVE",
"180 438 CURVE",
"192 451 OFFCURVE",
"195 466 OFFCURVE",
"183 479 CURVE SMOOTH",
"181 481 LINE",
"186 502 OFFCURVE",
"214 553 OFFCURVE",
"225 570 CURVE SMOOTH",
"235 588 OFFCURVE",
"244 598 OFFCURVE",
"252 604 CURVE",
"264 609 OFFCURVE",
"276 613 OFFCURVE",
"288 615 CURVE",
"293 617 OFFCURVE",
"299 617 OFFCURVE",
"305 619 CURVE SMOOTH",
"315 621 OFFCURVE",
"325 623 OFFCURVE",
"335 623 CURVE SMOOTH",
"353 623 LINE SMOOTH",
"355 623 OFFCURVE",
"358 623 OFFCURVE",
"359 623 CURVE SMOOTH",
"364 623 LINE SMOOTH",
"403 624 OFFCURVE",
"524 617 OFFCURVE",
"524 558 CURVE SMOOTH",
"524 534 OFFCURVE",
"511 512 OFFCURVE",
"492 512 CURVE SMOOTH",
"472 512 OFFCURVE",
"418 514 OFFCURVE",
"418 544 CURVE SMOOTH",
"418 555 OFFCURVE",
"421 561 OFFCURVE",
"421 572 CURVE SMOOTH",
"421 597 OFFCURVE",
"404 598 OFFCURVE",
"390 572 CURVE SMOOTH",
"385 563 OFFCURVE",
"381 555 OFFCURVE",
"381 544 CURVE SMOOTH",
"381 485 OFFCURVE",
"440 472 OFFCURVE",
"483 472 CURVE SMOOTH",
"536 472 OFFCURVE",
"561 530 OFFCURVE",
"561 558 CURVE SMOOTH",
"561 648 OFFCURVE",
"427 661 OFFCURVE",
"364 661 CURVE SMOOTH",
"354 661 OFFCURVE",
"344 659 OFFCURVE",
"334 659 CURVE SMOOTH",
"313 659 LINE SMOOTH",
"303 659 OFFCURVE",
"291 654 OFFCURVE",
"281 653 CURVE SMOOTH",
"267 651 OFFCURVE",
"255 647 OFFCURVE",
"243 641 CURVE",
"216 632 OFFCURVE",
"192 616 OFFCURVE",
"168 598 CURVE SMOOTH",
"127 566 OFFCURVE",
"121 493 OFFCURVE",
"121 451 CURVE SMOOTH",
"121 437 OFFCURVE",
"127 428 OFFCURVE",
"132 420 CURVE SMOOTH",
"143 403 OFFCURVE",
"153 385 OFFCURVE",
"165 369 CURVE",
"139 350 OFFCURVE",
"117 329 OFFCURVE",
"104 308 CURVE SMOOTH",
"91 290 OFFCURVE",
"91 262 OFFCURVE",
"80 248 CURVE",
"78 247 OFFCURVE",
"78 247 OFFCURVE",
"76 246 CURVE SMOOTH",
"37 230 OFFCURVE",
"34 159 OFFCURVE",
"30 122 CURVE SMOOTH",
"26 97 OFFCURVE",
"7 76 OFFCURVE",
"7 49 CURVE SMOOTH",
"7 -42 OFFCURVE",
"80 -105 OFFCURVE",
"159 -105 CURVE SMOOTH",
"216 -105 OFFCURVE",
"279 -97 OFFCURVE",
"330 -74 CURVE SMOOTH",
"350 -64 OFFCURVE",
"368 -65 OFFCURVE",
"384 -45 CURVE",
"417 -36 OFFCURVE",
"419 -51 OFFCURVE",
"458 -20 CURVE SMOOTH",
"524 34 OFFCURVE",
"556 56 OFFCURVE",
"574 143 CURVE SMOOTH",
"581 178 OFFCURVE",
"599 192 OFFCURVE",
"599 236 CURVE SMOOTH"
);
},
{
closed = 1;
nodes = (
"347 398 LINE",
"347 365 OFFCURVE",
"304 359 OFFCURVE",
"278 359 CURVE",
"274 360 OFFCURVE",
"270 360 OFFCURVE",
"266 360 CURVE SMOOTH",
"255 360 LINE",
"248 362 OFFCURVE",
"240 364 OFFCURVE",
"232 366 CURVE",
"248 382 OFFCURVE",
"263 394 OFFCURVE",
"273 394 CURVE SMOOTH",
"282 394 OFFCURVE",
"288 399 OFFCURVE",
"290 406 CURVE",
"306 410 OFFCURVE",
"321 414 OFFCURVE",
"335 415 CURVE",
"345 412 OFFCURVE",
"348 406 OFFCURVE",
"348 398 CURVE"
);
},
{
closed = 1;
nodes = (
"67 -20 LINE",
"65 -18 OFFCURVE",
"64 -16 OFFCURVE",
"63 -14 CURVE",
"64 -15 LINE",
"66 -15 LINE"
);
},
{
closed = 1;
nodes = (
"452 783 LINE",
"452 786 OFFCURVE",
"450 789 OFFCURVE",
"446 792 CURVE SMOOTH",
"413 814 OFFCURVE",
"374 880 OFFCURVE",
"331 880 CURVE SMOOTH",
"309 880 OFFCURVE",
"307 857 OFFCURVE",
"307 841 CURVE SMOOTH",
"307 828 OFFCURVE",
"324 821 OFFCURVE",
"336 816 CURVE",
"349 805 OFFCURVE",
"367 796 OFFCURVE",
"383 788 CURVE SMOOTH",
"403 777 OFFCURVE",
"420 763 OFFCURVE",
"445 759 CURVE SMOOTH",
"460 757 OFFCURVE",
"467 772 OFFCURVE",
"454 781 CURVE"
);
}
);
width = 615;
}
);
note = Egrave;
unicode = 00C8;
},
{
glyphname = F;
lastChange = "2021-06-16 04:18:38 +0000";
layers = (
{
hints = (
{
horizontal = 1;
place = "{-36, 29}";
type = Stem;
},
{
horizontal = 1;
place = "{303, 29}";
type = Stem;
},
{
horizontal = 1;
place = "{425, 30}";
type = Stem;
},
{
horizontal = 1;
place = "{495, 23}";
type = Stem;
},
{
horizontal = 1;
place = "{604, 60}";
type = Stem;
},
{
place = "{42, 46}";
type = Stem;
},
{
place = "{196, 29}";
type = Stem;
},
{
place = "{245, 40}";
type = Stem;
},
{
place = "{532, 24}";
type = Stem;
}
);
layerId = "5C71BA0D-BC2C-47B0-9323-6F63B3241D58";
paths = (
{
closed = 1;
nodes = (
"815 621 OFFCURVE",
"783 635 OFFCURVE",
"756 635 CURVE SMOOTH",
"713 635 OFFCURVE",
"706 564 OFFCURVE",
"756 598 CURVE",
"761 598 OFFCURVE",
"778 596 OFFCURVE",
"778 589 CURVE SMOOTH",
"778 563 OFFCURVE",
"718 530 OFFCURVE",
"674 530 CURVE SMOOTH",
"656 530 OFFCURVE",
"651 535 OFFCURVE",
"623 535 CURVE SMOOTH",
"611 535 OFFCURVE",
"595 536 OFFCURVE",
"578 538 CURVE SMOOTH",
"576 538 OFFCURVE",
"575 538 OFFCURVE",
"573 538 CURVE SMOOTH",
"545 542 OFFCURVE",
"516 549 OFFCURVE",
"502 559 CURVE",
"497 565 OFFCURVE",
"492 571 OFFCURVE",
"486 575 CURVE",
"489 578 OFFCURVE",
"492 581 OFFCURVE",
"495 583 CURVE",
"513 600 OFFCURVE",
"488 627 OFFCURVE",
"470 611 CURVE SMOOTH",
"461 602 OFFCURVE",
"453 594 OFFCURVE",
"446 585 CURVE",
"434 589 OFFCURVE",
"420 597 OFFCURVE",
"410 601 CURVE",
"409 602 OFFCURVE",
"409 603 OFFCURVE",
"408 603 CURVE SMOOTH",
"397 603 LINE SMOOTH",
"384 603 OFFCURVE",
"393 614 OFFCURVE",
"379 614 CURVE SMOOTH",
"368 614 OFFCURVE",
"357 621 OFFCURVE",
"355 612 CURVE",
"316 621 OFFCURVE",
"295 657 OFFCURVE",
"249 657 CURVE SMOOTH",
"219 657 OFFCURVE",
"192 673 OFFCURVE",
"161 673 CURVE SMOOTH",
"129 673 OFFCURVE",
"109 649 OFFCURVE",
"94 648 CURVE SMOOTH",
"48 647 OFFCURVE",
"48 569 OFFCURVE",
"48 539 CURVE SMOOTH",
"48 475 OFFCURVE",
"101 437 OFFCURVE",
"151 437 CURVE SMOOTH",
"180 437 OFFCURVE",
"251 433 OFFCURVE",
"251 479 CURVE SMOOTH",
"251 522 OFFCURVE",
"194 527 OFFCURVE",
"213 481 CURVE",
"213 480 LINE",
"196 472 OFFCURVE",
"170 475 OFFCURVE",
"151 475 CURVE SMOOTH",
"150 475 OFFCURVE",
"148 475 OFFCURVE",
"146 475 CURVE SMOOTH",
"144 475 LINE",
"122 484 OFFCURVE",
"105 525 OFFCURVE",
"105 555 CURVE SMOOTH",
"105 582 OFFCURVE",
"135 601 OFFCURVE",
"169 604 CURVE",
"169 604 OFFCURVE",
"170 604 OFFCURVE",
"171 604 CURVE SMOOTH",
"185 604 OFFCURVE",
"199 595 OFFCURVE",
"212 595 CURVE SMOOTH",
"218 595 OFFCURVE",
"222 598 OFFCURVE",
"227 598 CURVE SMOOTH",
"237 598 OFFCURVE",
"274 579 OFFCURVE",
"284 575 CURVE SMOOTH",
"326 561 OFFCURVE",
"374 560 OFFCURVE",
"413 540 CURVE",
"419 538 LINE",
"405 505 OFFCURVE",
"398 470 OFFCURVE",
"396 440 CURVE",
"392 424 LINE",
"391 424 LINE",
"388 423 LINE",
"387 423 LINE",
"383 430 OFFCURVE",
"376 435 OFFCURVE",
"367 435 CURVE SMOOTH",
"360 435 OFFCURVE",
"355 432 OFFCURVE",
"349 428 CURVE",
"345 428 OFFCURVE",
"334 437 OFFCURVE",
"320 437 CURVE SMOOTH",
"306 437 OFFCURVE",
"296 433 OFFCURVE",
"289 427 CURVE",
"266 423 OFFCURVE",
"244 409 OFFCURVE",
"244 379 CURVE SMOOTH",
"244 355 OFFCURVE",
"262 340 OFFCURVE",
"280 328 CURVE SMOOTH",
"321 301 OFFCURVE",
"333 337 OFFCURVE",
"315 349 CURVE SMOOTH",
"308 354 OFFCURVE",
"281 369 OFFCURVE",
"281 379 CURVE SMOOTH",
"281 384 OFFCURVE",
"284 392 OFFCURVE",
"305 392 CURVE SMOOTH",
"331 392 OFFCURVE",
"356 386 OFFCURVE",
"382 380 CURVE",
"380 374 OFFCURVE",
"379 367 OFFCURVE",
"377 360 CURVE SMOOTH",
"371 327 OFFCURVE",
"368 293 OFFCURVE",
"356 262 CURVE SMOOTH",
"347 239 OFFCURVE",
"330 229 OFFCURVE",
"330 200 CURVE SMOOTH",
"330 189 OFFCURVE",
"304 144 OFFCURVE",
"298 130 CURVE",
"289 126 OFFCURVE",
"277 120 OFFCURVE",
"276 108 CURVE",
"248 104 OFFCURVE",
"247 96 OFFCURVE",
"254 87 CURVE",
"245 82 OFFCURVE",
"238 75 OFFCURVE",
"238 66 CURVE",
"225 61 OFFCURVE",
"225 48 OFFCURVE",
"208 41 CURVE SMOOTH",
"185 33 OFFCURVE",
"174 2 OFFCURVE",
"154 0 CURVE SMOOTH",
"148 0 OFFCURVE",
"144 -1 OFFCURVE",
"141 -4 CURVE",
"138 -4 OFFCURVE",
"134 -5 OFFCURVE",
"131 -5 CURVE",
"131 -5 OFFCURVE",
"130 -5 OFFCURVE",
"129 -5 CURVE SMOOTH",
"127 -5 LINE SMOOTH",
"100 -5 OFFCURVE",
"81 3 OFFCURVE",
"67 14 CURVE",
"67 34 OFFCURVE",
"68 75 OFFCURVE",
"63 93 CURVE",
"74 101 OFFCURVE",
"76 111 OFFCURVE",
"72 120 CURVE",
"78 127 OFFCURVE",
"79 137 OFFCURVE",
"75 146 CURVE",
"83 151 OFFCURVE",
"87 162 OFFCURVE",
"87 175 CURVE SMOOTH",
"87 177 OFFCURVE",
"87 179 OFFCURVE",
"86 181 CURVE",
"96 186 OFFCURVE",
"103 195 OFFCURVE",
"103 207 CURVE SMOOTH",
"103 208 OFFCURVE",
"100 216 OFFCURVE",
"100 217 CURVE",
"99 218 LINE",
"105 224 OFFCURVE",
"108 232 OFFCURVE",
"109 240 CURVE",
"120 250 OFFCURVE",
"132 265 OFFCURVE",
"145 277 CURVE",
"156 282 OFFCURVE",
"168 286 OFFCURVE",
"180 286 CURVE SMOOTH",
"185 286 LINE SMOOTH",
"225 286 OFFCURVE",
"238 270 OFFCURVE",
"238 243 CURVE SMOOTH",
"238 201 OFFCURVE",
"206 156 OFFCURVE",
"172 156 CURVE SMOOTH",
"164 156 OFFCURVE",
"160 158 OFFCURVE",
"149 164 CURVE SMOOTH",
"128 176 OFFCURVE",
"110 144 OFFCURVE",
"131 132 CURVE SMOOTH",
"143 126 OFFCURVE",
"154 119 OFFCURVE",
"172 119 CURVE SMOOTH",
"237 119 OFFCURVE",
"275 193 OFFCURVE",
"275 243 CURVE SMOOTH",
"275 284 OFFCURVE",
"254 307 OFFCURVE",
"223 317 CURVE",
"223 318 OFFCURVE",
"222 319 OFFCURVE",
"221 319 CURVE",
"218 322 LINE SMOOTH",
"213 327 OFFCURVE",
"207 328 OFFCURVE",
"200 328 CURVE",
"196 332 OFFCURVE",
"191 335 OFFCURVE",
"184 335 CURVE SMOOTH",
"158 335 OFFCURVE",
"138 322 OFFCURVE",
"124 308 CURVE",
"97 295 OFFCURVE",
"73 275 OFFCURVE",
"49 258 CURVE SMOOTH",
"32 247 OFFCURVE",
"8 188 OFFCURVE",
"7 179 CURVE SMOOTH",
"2 147 OFFCURVE",
"6 115 OFFCURVE",
"6 83 CURVE SMOOTH",
"6 43 OFFCURVE",
"17 10 OFFCURVE",
"40 -12 CURVE SMOOTH",
"42 -14 OFFCURVE",
"44 -16 OFFCURVE",
"47 -18 CURVE SMOOTH",
"63 -30 OFFCURVE",
"83 -38 OFFCURVE",
"109 -41 CURVE",
"109 -42 OFFCURVE",
"111 -42 OFFCURVE",
"112 -42 CURVE SMOOTH",
"114 -42 LINE SMOOTH",
"177 -42 OFFCURVE",
"226 -20 OFFCURVE",
"277 13 CURVE SMOOTH",
"350 61 OFFCURVE",
"327 45 OFFCURVE",
"354 119 CURVE",
"357 121 LINE SMOOTH",
"360 123 OFFCURVE",
"364 125 OFFCURVE",
"366 128 CURVE",
"381 142 OFFCURVE",
"407 249 OFFCURVE",
"407 270 CURVE SMOOTH",
"407 272 OFFCURVE",
"407 273 OFFCURVE",
"409 277 CURVE SMOOTH",
"423 301 OFFCURVE",
"429 331 OFFCURVE",
"431 361 CURVE",
"438 358 OFFCURVE",
"444 356 OFFCURVE",
"451 354 CURVE SMOOTH",
"448 355 OFFCURVE",
"496 343 OFFCURVE",
"515 354 CURVE",
"521 354 OFFCURVE",
"527 357 OFFCURVE",
"532 360 CURVE",
"535 358 OFFCURVE",
"539 358 OFFCURVE",
"543 358 CURVE SMOOTH",
"554 358 OFFCURVE",
"563 373 OFFCURVE",
"570 388 CURVE",
"576 395 OFFCURVE",
"581 404 OFFCURVE",
"581 414 CURVE SMOOTH",
"581 430 OFFCURVE",
"575 450 OFFCURVE",
"550 457 CURVE SMOOTH",
"508 469 OFFCURVE",
"532 433 OFFCURVE",
"541 423 CURVE",
"540 420 OFFCURVE",
"539 417 OFFCURVE",
"539 414 CURVE",
"539 414 OFFCURVE",
"538 411 OFFCURVE",
"537 409 CURVE",
"526 401 OFFCURVE",
"509 396 OFFCURVE",
"497 396 CURVE SMOOTH",
"475 396 OFFCURVE",
"454 400 OFFCURVE",
"433 405 CURVE",
"433 424 LINE",
"433 426 LINE",
"440 457 OFFCURVE",
"448 487 OFFCURVE",
"454 518 CURVE",
"465 513 OFFCURVE",
"476 509 OFFCURVE",
"490 509 CURVE SMOOTH",
"501 509 LINE SMOOTH",
"517 509 OFFCURVE",
"533 501 OFFCURVE",
"549 501 CURVE SMOOTH",
"558 501 LINE SMOOTH",
"563 501 OFFCURVE",
"569 500 OFFCURVE",
"575 500 CURVE",
"581 496 OFFCURVE",
"585 493 OFFCURVE",
"593 493 CURVE SMOOTH",
"600 493 OFFCURVE",
"606 496 OFFCURVE",
"612 497 CURVE SMOOTH",
"619 497 OFFCURVE",
"624 497 OFFCURVE",
"631 497 CURVE SMOOTH",
"633 497 OFFCURVE",
"635 497 OFFCURVE",
"637 497 CURVE SMOOTH",
"654 496 OFFCURVE",
"660 493 OFFCURVE",
"674 493 CURVE SMOOTH",
"716 493 OFFCURVE",
"815 525 OFFCURVE",
"815 589 CURVE SMOOTH"
);
}
);
width = 469;
}
);
note = F;
unicode = 0046;
},
{
glyphname = G;
lastChange = "2021-06-16 04:20:05 +0000";
layers = (
{
anchors = (
{
name = bottom;
position = "{302, 0}";
},
{
name = top;
position = "{426, 652}";
}
);
hints = (
{
horizontal = 1;
place = "{-409, 54}";
type = Stem;
},
{
horizontal = 1;
place = "{-242, 33}";
type = Stem;
},
{
horizontal = 1;
place = "{-111, 20}";
type = Stem;
},
{
horizontal = 1;
place = "{-20, 25}";
type = Stem;
},
{
horizontal = 1;
place = "{36, 28}";
type = Stem;
},
{
horizontal = 1;
place = "{316, 33}";
type = Stem;
},
{
horizontal = 1;
place = "{606, 42}";
type = Stem;
},
{
place = "{0, 33}";
type = Stem;
},
{
place = "{83, 33}";
type = Stem;
},
{
place = "{142, 33}";
type = Stem;
},
{
place = "{299, 44}";
type = Stem;
},
{
place = "{355, 33}";
type = Stem;
},
{
place = "{430, 28}";
type = Stem;
},
{
place = "{488, 48}";
type = Stem;
},
{
place = "{558, 49}";
type = Stem;
}
);
layerId = "5C71BA0D-BC2C-47B0-9323-6F63B3241D58";
paths = (
{
closed = 1;
nodes = (
"613 584 OFFCURVE",
"541 652 OFFCURVE",
"438 652 CURVE SMOOTH",
"435 652 OFFCURVE",
"431 652 OFFCURVE",
"428 652 CURVE SMOOTH",
"426 652 OFFCURVE",
"423 652 OFFCURVE",
"421 652 CURVE SMOOTH",
"383 652 OFFCURVE",
"355 640 OFFCURVE",
"320 626 CURVE SMOOTH",
"305 620 OFFCURVE",
"286 590 OFFCURVE",
"277 590 CURVE SMOOTH",
"258 590 OFFCURVE",
"243 577 OFFCURVE",
"234 568 CURVE SMOOTH",
"219 553 OFFCURVE",
"194 541 OFFCURVE",
"194 518 CURVE SMOOTH",
"194 515 LINE",
"164 517 OFFCURVE",
"157 499 OFFCURVE",
"161 473 CURVE",
"155 460 OFFCURVE",
"134 457 OFFCURVE",
"127 427 CURVE SMOOTH",
"125 420 OFFCURVE",
"125 414 OFFCURVE",
"126 410 CURVE",
"125 408 LINE",
"121 401 LINE",
"120 400 OFFCURVE",
"119 398 OFFCURVE",
"118 398 CURVE",
"78 370 OFFCURVE",
"83 344 OFFCURVE",
"83 298 CURVE SMOOTH",
"83 292 LINE SMOOTH",
"83 275 OFFCURVE",
"79 257 OFFCURVE",
"79 237 CURVE",
"74 227 OFFCURVE",
"65 217 OFFCURVE",
"65 199 CURVE SMOOTH",
"65 187 OFFCURVE",
"72 179 OFFCURVE",
"80 170 CURVE",
"86 133 OFFCURVE",
"95 83 OFFCURVE",
"133 67 CURVE",
"157 45 OFFCURVE",
"192 32 OFFCURVE",
"238 32 CURVE SMOOTH",
"287 32 OFFCURVE",
"363 51 OFFCURVE",
"391 81 CURVE SMOOTH",
"416 108 OFFCURVE",
"438 120 OFFCURVE",
"451 149 CURVE",
"451 92 LINE SMOOTH",
"451 78 OFFCURVE",
"463 75 OFFCURVE",
"474 73 CURVE",
"457 52 OFFCURVE",
"466 58 OFFCURVE",
"471 38 CURVE",
"462 0 OFFCURVE",
"470 -38 OFFCURVE",
"476 -77 CURVE SMOOTH",
"479 -97 OFFCURVE",
"476 -125 OFFCURVE",
"470 -153 CURVE",
"460 -185 OFFCURVE",
"444 -219 OFFCURVE",
"424 -251 CURVE",
"409 -263 OFFCURVE",
"388 -270 OFFCURVE",
"378 -288 CURVE SMOOTH",
"346 -346 OFFCURVE",
"281 -382 OFFCURVE",
"199 -382 CURVE SMOOTH",
"183 -382 OFFCURVE",
"169 -375 OFFCURVE",
"153 -375 CURVE SMOOTH",
"130 -375 OFFCURVE",
"109 -369 OFFCURVE",
"93 -357 CURVE SMOOTH",
"85 -350 OFFCURVE",
"78 -343 OFFCURVE",
"72 -335 CURVE SMOOTH",
"60 -318 OFFCURVE",
"53 -296 OFFCURVE",
"53 -272 CURVE",
"55 -269 OFFCURVE",
"56 -267 OFFCURVE",
"58 -264 CURVE SMOOTH",
"82 -229 OFFCURVE",
"50 -212 OFFCURVE",
"63 -172 CURVE",
"70 -170 OFFCURVE",
"86 -165 OFFCURVE",
"86 -145 CURVE SMOOTH",
"86 -139 OFFCURVE",
"83 -134 OFFCURVE",
"82 -128 CURVE",
"95 -122 OFFCURVE",
"117 -113 OFFCURVE",
"110 -95 CURVE",
"132 -78 OFFCURVE",
"149 -41 OFFCURVE",
"179 -41 CURVE SMOOTH",
"189 -41 OFFCURVE",
"195 -35 OFFCURVE",
"197 -28 CURVE",
"209 -25 OFFCURVE",
"221 -24 OFFCURVE",
"235 -24 CURVE SMOOTH",
"280 -24 OFFCURVE",
"294 -55 OFFCURVE",
"294 -104 CURVE SMOOTH",
"294 -225 OFFCURVE",
"179 -218 OFFCURVE",
"179 -184 CURVE SMOOTH",
"179 -165 OFFCURVE",
"191 -119 OFFCURVE",
"211 -115 CURVE",
"210 -119 OFFCURVE",
"209 -122 OFFCURVE",
"210 -126 CURVE SMOOTH",
"215 -153 OFFCURVE",
"257 -160 OFFCURVE",
"252 -132 CURVE SMOOTH",
"249 -112 OFFCURVE",
"244 -87 OFFCURVE",
"216 -87 CURVE SMOOTH",
"177 -87 OFFCURVE",
"138 -148 OFFCURVE",
"138 -184 CURVE SMOOTH",
"138 -228 OFFCURVE",
"179 -246 OFFCURVE",
"225 -246 CURVE SMOOTH",
"294 -246 OFFCURVE",
"347 -189 OFFCURVE",
"347 -120 CURVE SMOOTH",
"347 -47 OFFCURVE",
"306 9 OFFCURVE",
"232 9 CURVE SMOOTH",
"129 9 OFFCURVE",
"53 -65 OFFCURVE",
"18 -134 CURVE SMOOTH",
"5 -161 OFFCURVE",
"-4 -197 OFFCURVE",
"-4 -240 CURVE SMOOTH",
"-4 -285 OFFCURVE",
"12 -323 OFFCURVE",
"38 -352 CURVE",
"62 -388 OFFCURVE",
"103 -413 OFFCURVE",
"153 -413 CURVE SMOOTH",
"169 -413 OFFCURVE",
"183 -419 OFFCURVE",
"199 -419 CURVE SMOOTH",
"259 -419 OFFCURVE",
"312 -400 OFFCURVE",
"355 -370 CURVE SMOOTH",
"393 -343 OFFCURVE",
"433 -311 OFFCURVE",
"459 -268 CURVE",
"473 -253 OFFCURVE",
"482 -232 OFFCURVE",
"492 -210 CURVE SMOOTH",
"504 -183 OFFCURVE",
"514 -156 OFFCURVE",
"519 -129 CURVE SMOOTH",
"527 -89 OFFCURVE",
"541 -49 OFFCURVE",
"540 -8 CURVE SMOOTH",
"539 191 OFFCURVE",
"535 249 OFFCURVE",
"495 297 CURVE SMOOTH",
"479 316 OFFCURVE",
"428 290 OFFCURVE",
"426 268 CURVE SMOOTH",
"421 210 OFFCURVE",
"402 154 OFFCURVE",
"361 111 CURVE SMOOTH",
"339 87 OFFCURVE",
"294 68 OFFCURVE",
"253 68 CURVE SMOOTH",
"161 68 OFFCURVE",
"119 139 OFFCURVE",
"119 235 CURVE SMOOTH",
"119 239 OFFCURVE",
"119 243 OFFCURVE",
"120 247 CURVE SMOOTH",
"120 251 OFFCURVE",
"120 254 OFFCURVE",
"121 258 CURVE",
"123 281 OFFCURVE",
"130 299 OFFCURVE",
"138 316 CURVE SMOOTH",
"149 339 OFFCURVE",
"163 359 OFFCURVE",
"174 381 CURVE SMOOTH",
"197 428 OFFCURVE",
"271 514 OFFCURVE",
"308 548 CURVE",
"351 569 OFFCURVE",
"387 603 OFFCURVE",
"438 603 CURVE SMOOTH",
"516 603 OFFCURVE",
"568 555 OFFCURVE",
"568 492 CURVE SMOOTH",
"568 448 OFFCURVE",
"538 388 OFFCURVE",
"499 388 CURVE SMOOTH",
"476 388 OFFCURVE",
"441 405 OFFCURVE",
"440 425 CURVE SMOOTH",
"440 459 OFFCURVE",
"445 490 OFFCURVE",
"460 508 CURVE",
"463 510 OFFCURVE",
"466 512 OFFCURVE",
"467 515 CURVE",
"469 516 OFFCURVE",
"471 517 OFFCURVE",
"473 519 CURVE",
"492 528 OFFCURVE",
"480 557 OFFCURVE",
"460 547 CURVE SMOOTH",
"457 546 OFFCURVE",
"454 544 OFFCURVE",
"452 543 CURVE",
"449 543 OFFCURVE",
"447 542 OFFCURVE",
"444 541 CURVE SMOOTH",
"422 533 OFFCURVE",
"420 509 OFFCURVE",
"408 492 CURVE",
"409 492 OFFCURVE",
"411 492 OFFCURVE",
"412 492 CURVE",
"393 474 LINE",
"393 423 LINE SMOOTH",
"393 417 OFFCURVE",
"406 403 OFFCURVE",
"410 397 CURVE SMOOTH",
"414 390 OFFCURVE",
"420 387 OFFCURVE",
"426 388 CURVE",
"445 368 OFFCURVE",
"477 355 OFFCURVE",
"499 355 CURVE SMOOTH",
"556 355 OFFCURVE",
"613 443 OFFCURVE",
"613 501 CURVE SMOOTH"
);
}
);
width = 604;
}
);
note = G;
unicode = 0047;
},
{
glyphname = H;
lastChange = "2021-06-16 04:22:06 +0000";
layers = (
{
anchors = (
{
name = bottom;
position = "{342, 0}";
},
{
name = center;
position = "{342, 330}";
},
{
name = top;
position = "{455, 660}";
},
{
name = topleft;
position = "{20, 660}";
}
);
hints = (
{
horizontal = 1;
place = "{271, 42}";
type = Stem;
},
{
horizontal = 1;
place = "{649, -20}";
target = down;
type = TopGhost;
},
{
place = "{226, 36}";
type = Stem;
}
);
layerId = "5C71BA0D-BC2C-47B0-9323-6F63B3241D58";
paths = (
{
closed = 1;
nodes = (
"706 622 OFFCURVE",
"689 662 OFFCURVE",
"647 662 CURVE SMOOTH",
"644 662 LINE SMOOTH",
"590 662 OFFCURVE",
"588 641 OFFCURVE",
"578 601 CURVE SMOOTH",
"574 585 LINE",
"571 578 OFFCURVE",
"569 572 OFFCURVE",
"566 567 CURVE",
"542 549 OFFCURVE",
"544 532 OFFCURVE",
"545 503 CURVE SMOOTH",
"546 492 OFFCURVE",
"536 419 OFFCURVE",
"531 407 CURVE",
"519 395 OFFCURVE",
"519 380 OFFCURVE",
"522 365 CURVE SMOOTH",
"523 359 LINE",
"524 357 OFFCURVE",
"524 356 OFFCURVE",
"524 355 CURVE",
"521 353 OFFCURVE",
"517 352 OFFCURVE",
"513 350 CURVE",
"504 343 OFFCURVE",
"491 326 OFFCURVE",
"498 315 CURVE",
"497 315 LINE SMOOTH",
"493 315 OFFCURVE",
"490 316 OFFCURVE",
"487 316 CURVE SMOOTH",
"476 316 OFFCURVE",
"469 310 OFFCURVE",
"465 310 CURVE SMOOTH",
"448 310 OFFCURVE",
"418 317 OFFCURVE",
"396 317 CURVE SMOOTH",
"390 317 OFFCURVE",
"385 314 OFFCURVE",
"380 312 CURVE",
"374 312 OFFCURVE",
"370 314 OFFCURVE",
"363 317 CURVE",
"362 318 OFFCURVE",
"360 319 OFFCURVE",
"358 320 CURVE",
"360 326 OFFCURVE",
"362 332 OFFCURVE",
"367 343 CURVE SMOOTH",
"376 363 OFFCURVE",
"372 451 OFFCURVE",
"360 470 CURVE",
"371 523 OFFCURVE",
"329 547 OFFCURVE",
"329 583 CURVE SMOOTH",
"329 593 OFFCURVE",
"321 602 OFFCURVE",
"311 602 CURVE SMOOTH",
"298 602 OFFCURVE",
"294 617 OFFCURVE",
"266 617 CURVE SMOOTH",
"253 617 OFFCURVE",
"240 627 OFFCURVE",
"225 627 CURVE SMOOTH",
"216 627 OFFCURVE",
"169 596 OFFCURVE",
"164 590 CURVE SMOOTH",
"163 589 OFFCURVE",
"162 588 OFFCURVE",
"162 587 CURVE",
"155 582 OFFCURVE",
"151 576 OFFCURVE",
"151 568 CURVE SMOOTH",
"151 534 OFFCURVE",
"165 498 OFFCURVE",
"212 505 CURVE SMOOTH",
"237 508 OFFCURVE",
"232 545 OFFCURVE",
"208 541 CURVE SMOOTH",
"197 540 OFFCURVE",
"190 541 OFFCURVE",
"189 560 CURVE",
"201 563 OFFCURVE",
"214 566 OFFCURVE",
"227 566 CURVE SMOOTH",
"258 566 OFFCURVE",
"300 514 OFFCURVE",
"295 489 CURVE SMOOTH",
"292 474 OFFCURVE",
"299 466 OFFCURVE",
"308 456 CURVE",
"309 451 OFFCURVE",
"308 446 OFFCURVE",
"308 441 CURVE SMOOTH",
"308 429 OFFCURVE",
"313 419 OFFCURVE",
"323 413 CURVE",
"311 393 OFFCURVE",
"323 383 OFFCURVE",
"329 366 CURVE",
"329 355 OFFCURVE",
"326 345 OFFCURVE",
"322 334 CURVE",
"304 339 OFFCURVE",
"288 339 OFFCURVE",
"267 339 CURVE",
"264 340 OFFCURVE",
"261 340 OFFCURVE",
"258 340 CURVE SMOOTH",
"251 340 OFFCURVE",
"244 340 OFFCURVE",
"237 338 CURVE",
"203 336 OFFCURVE",
"156 296 OFFCURVE",
"156 261 CURVE SMOOTH",
"156 236 OFFCURVE",
"193 236 OFFCURVE",
"193 261 CURVE SMOOTH",
"193 262 OFFCURVE",
"194 264 OFFCURVE",
"195 266 CURVE",
"198 267 OFFCURVE",
"200 269 OFFCURVE",
"203 272 CURVE SMOOTH",
"218 289 OFFCURVE",
"229 298 OFFCURVE",
"242 302 CURVE",
"257 302 LINE",
"262 297 OFFCURVE",
"267 293 OFFCURVE",
"275 293 CURVE SMOOTH",
"299 293 OFFCURVE",
"289 269 OFFCURVE",
"319 287 CURVE",
"320 284 LINE",
"319 279 OFFCURVE",
"319 276 OFFCURVE",
"318 273 CURVE",
"303 263 OFFCURVE",
"304 245 OFFCURVE",
"309 229 CURVE SMOOTH",
"315 208 OFFCURVE",
"297 180 OFFCURVE",
"290 160 CURVE SMOOTH",
"281 132 OFFCURVE",
"290 106 OFFCURVE",
"283 78 CURVE SMOOTH",
"279 61 OFFCURVE",
"258 -17 OFFCURVE",
"259 -26 CURVE",
"256 -32 OFFCURVE",
"254 -34 OFFCURVE",
"250 -36 CURVE SMOOTH",
"246 -38 LINE SMOOTH",
"216 -53 OFFCURVE",
"222 -81 OFFCURVE",
"186 -91 CURVE",
"184 -92 LINE",
"180 -92 OFFCURVE",
"175 -93 OFFCURVE",
"171 -94 CURVE",
"170 -95 LINE",
"160 -96 OFFCURVE",
"156 -99 OFFCURVE",
"151 -102 CURVE SMOOTH",
"144 -105 OFFCURVE",
"137 -108 OFFCURVE",
"129 -109 CURVE",
"96 -105 OFFCURVE",
"83 -84 OFFCURVE",
"72 -48 CURVE SMOOTH",
"68 -36 OFFCURVE",
"60 -31 OFFCURVE",
"55 -21 CURVE",
"55 0 OFFCURVE",
"52 20 OFFCURVE",
"56 41 CURVE",
"57 42 OFFCURVE",
"61 44 OFFCURVE",
"62 45 CURVE SMOOTH",
"86 61 OFFCURVE",
"79 85 OFFCURVE",
"79 109 CURVE SMOOTH",
"79 138 OFFCURVE",
"121 154 OFFCURVE",
"144 154 CURVE SMOOTH",
"152 154 OFFCURVE",
"159 150 OFFCURVE",
"167 150 CURVE",
"179 137 OFFCURVE",
"187 95 OFFCURVE",
"187 80 CURVE SMOOTH",
"187 58 OFFCURVE",
"160 49 OFFCURVE",
"143 42 CURVE SMOOTH",
"119 34 OFFCURVE",
"132 -1 OFFCURVE",
"155 8 CURVE SMOOTH",
"189 20 OFFCURVE",
"224 37 OFFCURVE",
"224 80 CURVE SMOOTH",
"224 107 OFFCURVE",
"209 187 OFFCURVE",
"169 187 CURVE SMOOTH",
"166 187 OFFCURVE",
"164 187 OFFCURVE",
"161 187 CURVE",
"158 191 OFFCURVE",
"153 194 OFFCURVE",
"147 194 CURVE SMOOTH",
"37 194 OFFCURVE",
"-3 80 OFFCURVE",
"-3 -1 CURVE SMOOTH",
"-3 -19 OFFCURVE",
"7 -24 OFFCURVE",
"18 -34 CURVE",
"23 -46 OFFCURVE",
"22 -58 OFFCURVE",
"24 -70 CURVE SMOOTH",
"29 -112 OFFCURVE",
"84 -147 OFFCURVE",
"124 -147 CURVE SMOOTH",
"126 -147 OFFCURVE",
"128 -146 OFFCURVE",
"130 -146 CURVE SMOOTH",
"134 -146 OFFCURVE",
"138 -146 OFFCURVE",
"142 -146 CURVE SMOOTH",
"156 -146 OFFCURVE",
"163 -140 OFFCURVE",
"172 -132 CURVE",
"174 -131 LINE",
"244 -123 OFFCURVE",
"221 -103 OFFCURVE",
"265 -70 CURVE SMOOTH",
"269 -67 LINE",
"291 -55 OFFCURVE",
"294 -13 OFFCURVE",
"295 -13 CURVE",
"319 -3 OFFCURVE",
"323 17 OFFCURVE",
"320 42 CURVE SMOOTH",
"318 58 OFFCURVE",
"322 138 OFFCURVE",
"326 148 CURVE SMOOTH",
"342 197 OFFCURVE",
"352 193 OFFCURVE",
"343 244 CURVE",
"345 245 LINE SMOOTH",
"360 252 OFFCURVE",
"363 262 OFFCURVE",
"362 272 CURVE",
"371 265 OFFCURVE",
"382 259 OFFCURVE",
"395 259 CURVE SMOOTH",
"405 259 OFFCURVE",
"414 266 OFFCURVE",
"424 266 CURVE SMOOTH",
"432 266 OFFCURVE",
"440 261 OFFCURVE",
"448 261 CURVE SMOOTH",
"461 261 OFFCURVE",
"469 266 OFFCURVE",
"476 271 CURVE SMOOTH",
"482 276 OFFCURVE",
"489 278 OFFCURVE",
"496 278 CURVE",
"496 271 OFFCURVE",
"499 264 OFFCURVE",
"509 257 CURVE",
"501 234 OFFCURVE",
"490 218 OFFCURVE",
"490 192 CURVE SMOOTH",
"490 184 OFFCURVE",
"494 178 OFFCURVE",
"497 172 CURVE",
"493 169 OFFCURVE",
"489 164 OFFCURVE",
"489 156 CURVE SMOOTH",
"489 106 OFFCURVE",
"489 24 OFFCURVE",
"528 -16 CURVE",
"529 -19 OFFCURVE",
"531 -22 OFFCURVE",
"532 -26 CURVE",
"537 -37 OFFCURVE",
"548 -39 OFFCURVE",
"556 -35 CURVE",
"566 -39 OFFCURVE",
"577 -41 OFFCURVE",
"589 -41 CURVE SMOOTH",
"645 -41 OFFCURVE",
"680 32 OFFCURVE",
"680 62 CURVE SMOOTH",
"680 104 OFFCURVE",
"673 159 OFFCURVE",
"617 159 CURVE SMOOTH",
"583 159 OFFCURVE",
"567 122 OFFCURVE",
"567 99 CURVE SMOOTH",
"567 95 OFFCURVE",
"568 89 OFFCURVE",
"569 83 CURVE SMOOTH",
"570 77 LINE",
"570 76 LINE SMOOTH",
"570 51 OFFCURVE",
"607 51 OFFCURVE",
"607 76 CURVE SMOOTH",
"607 77 OFFCURVE",
"607 80 OFFCURVE",
"607 83 CURVE SMOOTH",
"606 89 LINE SMOOTH",
"605 92 OFFCURVE",
"604 96 OFFCURVE",
"604 99 CURVE SMOOTH",
"604 114 OFFCURVE",
"615 122 OFFCURVE",
"617 122 CURVE SMOOTH",
"645 122 OFFCURVE",
"643 81 OFFCURVE",
"643 62 CURVE SMOOTH",
"643 42 OFFCURVE",
"615 -4 OFFCURVE",
"589 -4 CURVE SMOOTH",
"576 -4 OFFCURVE",
"566 1 OFFCURVE",
"558 7 CURVE",
"547 35 OFFCURVE",
"540 63 OFFCURVE",
"540 98 CURVE SMOOTH",
"540 165 OFFCURVE",
"557 220 OFFCURVE",
"563 281 CURVE",
"599 287 OFFCURVE",
"638 299 OFFCURVE",
"654 319 CURVE SMOOTH",
"666 335 OFFCURVE",
"682 376 OFFCURVE",
"663 399 CURVE SMOOTH",
"628 441 OFFCURVE",
"641 362 OFFCURVE",
"626 343 CURVE SMOOTH",
"618 333 OFFCURVE",
"593 324 OFFCURVE",
"566 319 CURVE",
"566 323 OFFCURVE",
"566 327 OFFCURVE",
"566 331 CURVE SMOOTH",
"566 412 OFFCURVE",
"589 492 OFFCURVE",
"609 571 CURVE",
"620 597 OFFCURVE",
"630 626 OFFCURVE",
"647 626 CURVE SMOOTH",
"659 626 OFFCURVE",
"669 614 OFFCURVE",
"669 594 CURVE SMOOTH",
"669 590 LINE",
"660 587 OFFCURVE",
"654 582 OFFCURVE",
"650 575 CURVE",
"626 591 OFFCURVE",
"610 531 OFFCURVE",
"654 531 CURVE SMOOTH",
"666 531 OFFCURVE",
"674 542 OFFCURVE",
"678 552 CURVE",
"679 553 OFFCURVE",
"680 554 OFFCURVE",
"680 554 CURVE",
"702 565 OFFCURVE",
"706 569 OFFCURVE",
"706 594 CURVE SMOOTH"
);
}
);
width = 684;
}
);
note = H;
unicode = 0048;
},
{
glyphname = I;
lastChange = "2021-04-16 08:59:17 +0000";
layers = (
{
hints = (
{
horizontal = 1;
place = "{626, -20}";
target = down;
type = TopGhost;
}
);
layerId = "5C71BA0D-BC2C-47B0-9323-6F63B3241D58";
paths = (
{
closed = 1;
nodes = (
"621 577 LINE",
"623 582 OFFCURVE",
"622 588 OFFCURVE",
"617 597 CURVE SMOOTH",
"612 604 OFFCURVE",
"608 610 OFFCURVE",
"603 616 CURVE SMOOTH",
"597 623 OFFCURVE",
"591 628 OFFCURVE",
"585 629 CURVE SMOOTH",
"577 630 OFFCURVE",
"571 630 OFFCURVE",
"565 628 CURVE",
"497 623 OFFCURVE",
"496 551 OFFCURVE",
"471 504 CURVE",
"469 503 LINE SMOOTH",
"444 492 OFFCURVE",
"446 480 OFFCURVE",
"450 458 CURVE",
"427 415 OFFCURVE",
"427 374 OFFCURVE",
"436 331 CURVE",
"433 322 OFFCURVE",
"426 315 OFFCURVE",
"426 304 CURVE SMOOTH",
"426 294 OFFCURVE",
"430 285 OFFCURVE",
"437 278 CURVE",
"440 276 LINE",
"440 269 LINE",
"440 264 LINE SMOOTH",
"438 195 OFFCURVE",
"435 198 OFFCURVE",
"471 154 CURVE",
"474 147 OFFCURVE",
"476 142 OFFCURVE",
"475 139 CURVE",
"476 127 OFFCURVE",
"408 -12 OFFCURVE",
"283 -58 CURVE SMOOTH",
"244 -72 OFFCURVE",
"205 -77 OFFCURVE",
"170 -74 CURVE",
"167 -71 OFFCURVE",
"164 -68 OFFCURVE",
"159 -67 CURVE SMOOTH",
"128 -59 OFFCURVE",
"102 -54 OFFCURVE",
"77 -33 CURVE",
"76 -22 OFFCURVE",
"73 -13 OFFCURVE",
"62 -8 CURVE",
"63 5 OFFCURVE",
"59 15 OFFCURVE",
"50 22 CURVE",
"49 25 OFFCURVE",
"49 27 OFFCURVE",
"49 29 CURVE",
"62 45 OFFCURVE",
"60 57 OFFCURVE",
"55 68 CURVE",
"63 90 OFFCURVE",
"79 110 OFFCURVE",
"100 128 CURVE SMOOTH",
"134 157 OFFCURVE",
"187 177 OFFCURVE",
"204 161 CURVE SMOOTH",
"227 139 OFFCURVE",
"241 108 OFFCURVE",
"212 79 CURVE",
"196 67 OFFCURVE",
"182 61 OFFCURVE",
"169 72 CURVE SMOOTH",
"153 84 OFFCURVE",
"126 74 OFFCURVE",
"145 55 CURVE SMOOTH",
"155 45 OFFCURVE",
"172 19 OFFCURVE",
"215 35 CURVE SMOOTH",
"254 49 OFFCURVE",
"271 98 OFFCURVE",
"263 131 CURVE SMOOTH",
"251 182 OFFCURVE",
"218 197 OFFCURVE",
"191 198 CURVE",
"188 201 OFFCURVE",
"185 203 OFFCURVE",
"181 204 CURVE SMOOTH",
"125 219 OFFCURVE",
"74 182 OFFCURVE",
"44 145 CURVE SMOOTH",
"30 127 OFFCURVE",
"-8 98 OFFCURVE",
"19 53 CURVE",
"20 52 LINE",
"-9 24 OFFCURVE",
"4 16 OFFCURVE",
"25 -6 CURVE",
"23 -19 OFFCURVE",
"20 -37 OFFCURVE",
"39 -39 CURVE",
"40 -40 LINE",
"40 -41 LINE SMOOTH",
"43 -60 OFFCURVE",
"64 -74 OFFCURVE",
"89 -84 CURVE",
"152 -120 OFFCURVE",
"246 -116 OFFCURVE",
"304 -94 CURVE SMOOTH",
"402 -58 OFFCURVE",
"441 -8 OFFCURVE",
"498 68 CURVE",
"499 68 LINE SMOOTH",
"511 66 OFFCURVE",
"523 39 OFFCURVE",
"526 32 CURVE SMOOTH",
"530 24 OFFCURVE",
"547 17 OFFCURVE",
"555 22 CURVE SMOOTH",
"559 25 OFFCURVE",
"559 29 OFFCURVE",
"557 32 CURVE",
"551 49 OFFCURVE",
"538 61 OFFCURVE",
"531 77 CURVE SMOOTH",
"523 93 OFFCURVE",
"524 112 OFFCURVE",
"525 116 CURVE",
"535 136 OFFCURVE",
"552 170 OFFCURVE",
"569 211 CURVE SMOOTH",
"618 321 OFFCURVE",
"661 456 OFFCURVE",
"621 576 CURVE"
);
},
{
closed = 1;
nodes = (
"586 469 LINE",
"576 370 OFFCURVE",
"532 224 OFFCURVE",
"499 178 CURVE",
"496 181 LINE SMOOTH",
"493 184 OFFCURVE",
"490 188 OFFCURVE",
"487 191 CURVE",
"483 203 LINE SMOOTH",
"479 213 OFFCURVE",
"477 223 OFFCURVE",
"474 233 CURVE",
"475 257 OFFCURVE",
"485 277 OFFCURVE",
"467 300 CURVE",
"467 304 OFFCURVE",
"467 307 OFFCURVE",
"467 311 CURVE",
"471 320 OFFCURVE",
"474 329 OFFCURVE",
"472 339 CURVE SMOOTH",
"471 343 OFFCURVE",
"470 347 OFFCURVE",
"470 351 CURVE SMOOTH",
"474 387 OFFCURVE",
"482 421 OFFCURVE",
"491 446 CURVE SMOOTH",
"497 461 OFFCURVE",
"502 479 OFFCURVE",
"509 496 CURVE SMOOTH",
"512 503 OFFCURVE",
"514 511 OFFCURVE",
"517 519 CURVE SMOOTH",
"524 537 OFFCURVE",
"533 554 OFFCURVE",
"543 569 CURVE SMOOTH",
"550 579 OFFCURVE",
"556 586 OFFCURVE",
"562 590 CURVE",
"565 591 OFFCURVE",
"569 591 OFFCURVE",
"573 591 CURVE SMOOTH",
"576 591 OFFCURVE",
"579 587 OFFCURVE",
"580 585 CURVE SMOOTH",
"582 582 OFFCURVE",
"584 580 OFFCURVE",
"586 579 CURVE",
"593 556 OFFCURVE",
"592 512 OFFCURVE",
"587 469 CURVE"
);
}
);
width = 642;
}
);
note = I;
unicode = 0049;
},
{
glyphname = Iacute;
lastChange = "2021-04-16 08:59:17 +0000";
layers = (
{
hints = (
{
horizontal = 1;
place = "{626, -20}";
target = down;
type = TopGhost;
}
);
layerId = "5C71BA0D-BC2C-47B0-9323-6F63B3241D58";
paths = (
{
closed = 1;
nodes = (
"621 577 LINE",
"623 582 OFFCURVE",
"622 588 OFFCURVE",
"617 597 CURVE SMOOTH",
"612 604 OFFCURVE",
"608 610 OFFCURVE",
"603 616 CURVE SMOOTH",
"597 623 OFFCURVE",
"591 628 OFFCURVE",
"585 629 CURVE SMOOTH",
"577 630 OFFCURVE",
"571 630 OFFCURVE",
"565 628 CURVE",
"497 623 OFFCURVE",
"496 551 OFFCURVE",
"471 504 CURVE",
"469 503 LINE SMOOTH",
"444 492 OFFCURVE",
"446 480 OFFCURVE",
"450 458 CURVE",
"427 415 OFFCURVE",
"427 374 OFFCURVE",
"436 331 CURVE",
"433 322 OFFCURVE",
"426 315 OFFCURVE",
"426 304 CURVE SMOOTH",
"426 294 OFFCURVE",
"430 285 OFFCURVE",
"437 278 CURVE",
"440 276 LINE",
"440 269 LINE",
"440 264 LINE SMOOTH",
"438 195 OFFCURVE",
"435 198 OFFCURVE",
"471 154 CURVE",
"474 147 OFFCURVE",
"476 142 OFFCURVE",
"475 139 CURVE",
"476 127 OFFCURVE",
"408 -12 OFFCURVE",
"283 -58 CURVE SMOOTH",
"244 -72 OFFCURVE",
"205 -77 OFFCURVE",
"170 -74 CURVE",
"167 -71 OFFCURVE",
"164 -68 OFFCURVE",
"159 -67 CURVE SMOOTH",
"128 -59 OFFCURVE",
"102 -54 OFFCURVE",
"77 -33 CURVE",
"76 -22 OFFCURVE",
"73 -13 OFFCURVE",
"62 -8 CURVE",
"63 5 OFFCURVE",
"59 15 OFFCURVE",
"50 22 CURVE",
"49 25 OFFCURVE",
"49 27 OFFCURVE",
"49 29 CURVE",
"62 45 OFFCURVE",
"60 57 OFFCURVE",
"55 68 CURVE",
"63 90 OFFCURVE",
"79 110 OFFCURVE",
"100 128 CURVE SMOOTH",
"134 157 OFFCURVE",
"187 177 OFFCURVE",
"204 161 CURVE SMOOTH",
"227 139 OFFCURVE",
"241 108 OFFCURVE",
"212 79 CURVE",
"196 67 OFFCURVE",
"182 61 OFFCURVE",
"169 72 CURVE SMOOTH",
"153 84 OFFCURVE",
"126 74 OFFCURVE",
"145 55 CURVE SMOOTH",
"155 45 OFFCURVE",
"172 19 OFFCURVE",
"215 35 CURVE SMOOTH",
"254 49 OFFCURVE",
"271 98 OFFCURVE",
"263 131 CURVE SMOOTH",
"251 182 OFFCURVE",
"218 197 OFFCURVE",
"191 198 CURVE",
"188 201 OFFCURVE",
"185 203 OFFCURVE",
"181 204 CURVE SMOOTH",
"125 219 OFFCURVE",
"74 182 OFFCURVE",
"44 145 CURVE SMOOTH",
"30 128 OFFCURVE",
"-8 98 OFFCURVE",
"19 53 CURVE",
"20 52 LINE",
"-9 24 OFFCURVE",
"4 16 OFFCURVE",
"25 -6 CURVE",
"23 -19 OFFCURVE",
"20 -37 OFFCURVE",
"39 -39 CURVE",
"40 -40 LINE",
"40 -41 LINE SMOOTH",
"43 -60 OFFCURVE",
"64 -74 OFFCURVE",
"89 -84 CURVE",
"152 -120 OFFCURVE",
"246 -116 OFFCURVE",
"304 -94 CURVE SMOOTH",
"402 -58 OFFCURVE",
"441 -8 OFFCURVE",
"498 68 CURVE",
"499 68 LINE SMOOTH",
"511 66 OFFCURVE",
"523 39 OFFCURVE",
"526 32 CURVE SMOOTH",
"530 24 OFFCURVE",
"547 17 OFFCURVE",
"555 22 CURVE SMOOTH",
"559 25 OFFCURVE",
"559 29 OFFCURVE",
"557 32 CURVE",
"551 49 OFFCURVE",
"538 61 OFFCURVE",
"531 77 CURVE SMOOTH",
"523 93 OFFCURVE",
"524 112 OFFCURVE",
"525 116 CURVE",
"535 136 OFFCURVE",
"552 170 OFFCURVE",
"569 211 CURVE SMOOTH",
"618 321 OFFCURVE",
"661 456 OFFCURVE",
"621 576 CURVE"
);
},
{
closed = 1;
nodes = (
"586 469 LINE",
"576 370 OFFCURVE",
"532 224 OFFCURVE",
"499 178 CURVE",
"496 181 LINE SMOOTH",
"493 184 OFFCURVE",
"490 188 OFFCURVE",
"487 191 CURVE",
"483 203 LINE SMOOTH",
"479 213 OFFCURVE",
"477 223 OFFCURVE",
"474 233 CURVE",
"475 257 OFFCURVE",
"485 277 OFFCURVE",
"467 300 CURVE",
"467 304 OFFCURVE",
"467 307 OFFCURVE",
"467 311 CURVE",
"471 320 OFFCURVE",
"474 329 OFFCURVE",
"472 339 CURVE SMOOTH",
"471 343 OFFCURVE",
"470 347 OFFCURVE",
"470 351 CURVE SMOOTH",
"474 387 OFFCURVE",
"482 421 OFFCURVE",
"491 446 CURVE SMOOTH",
"497 461 OFFCURVE",
"502 479 OFFCURVE",
"509 496 CURVE SMOOTH",
"512 503 OFFCURVE",
"514 511 OFFCURVE",
"517 519 CURVE SMOOTH",
"524 537 OFFCURVE",
"533 554 OFFCURVE",
"543 569 CURVE SMOOTH",
"550 579 OFFCURVE",
"556 586 OFFCURVE",
"562 590 CURVE",
"565 591 OFFCURVE",
"569 591 OFFCURVE",
"573 591 CURVE SMOOTH",
"576 591 OFFCURVE",
"579 587 OFFCURVE",
"580 585 CURVE SMOOTH",
"582 582 OFFCURVE",
"584 580 OFFCURVE",
"586 579 CURVE",
"593 556 OFFCURVE",
"592 512 OFFCURVE",
"587 469 CURVE"
);
},
{
closed = 1;
nodes = (
"695 787 OFFCURVE",
"694 810 OFFCURVE",
"672 810 CURVE SMOOTH",
"629 810 OFFCURVE",
"590 744 OFFCURVE",
"556 722 CURVE SMOOTH",
"552 719 OFFCURVE",
"551 716 OFFCURVE",
"550 713 CURVE",
"548 711 LINE SMOOTH",
"536 702 OFFCURVE",
"542 687 OFFCURVE",
"558 689 CURVE SMOOTH",
"583 693 OFFCURVE",
"600 707 OFFCURVE",
"619 718 CURVE SMOOTH",
"635 726 OFFCURVE",
"653 735 OFFCURVE",
"667 746 CURVE",
"679 751 OFFCURVE",
"695 758 OFFCURVE",
"695 771 CURVE SMOOTH"
);
}
);
width = 642;
}
);
note = Iacute;
unicode = 00CD;
},
{
glyphname = Icircumflex;
lastChange = "2021-04-16 08:59:17 +0000";
layers = (
{
hints = (
{
horizontal = 1;
place = "{626, -20}";
target = down;
type = TopGhost;
}
);
layerId = "5C71BA0D-BC2C-47B0-9323-6F63B3241D58";
paths = (
{
closed = 1;
nodes = (
"621 577 LINE",
"623 582 OFFCURVE",
"622 588 OFFCURVE",
"617 597 CURVE SMOOTH",
"612 604 OFFCURVE",
"608 610 OFFCURVE",
"603 616 CURVE SMOOTH",
"597 623 OFFCURVE",
"591 628 OFFCURVE",
"585 629 CURVE SMOOTH",
"577 630 OFFCURVE",
"571 630 OFFCURVE",
"565 628 CURVE",
"497 623 OFFCURVE",
"496 551 OFFCURVE",
"471 504 CURVE",
"469 503 LINE SMOOTH",
"444 492 OFFCURVE",
"446 480 OFFCURVE",
"450 458 CURVE",
"427 415 OFFCURVE",
"427 374 OFFCURVE",
"436 331 CURVE",
"433 322 OFFCURVE",
"426 315 OFFCURVE",
"426 304 CURVE SMOOTH",
"426 294 OFFCURVE",
"430 285 OFFCURVE",
"437 278 CURVE",
"440 276 LINE",
"440 269 LINE",
"440 264 LINE SMOOTH",
"438 195 OFFCURVE",
"435 198 OFFCURVE",
"471 154 CURVE",
"474 147 OFFCURVE",
"476 142 OFFCURVE",
"475 139 CURVE",
"476 127 OFFCURVE",
"408 -12 OFFCURVE",
"283 -58 CURVE SMOOTH",
"244 -72 OFFCURVE",
"205 -77 OFFCURVE",
"170 -74 CURVE",
"167 -71 OFFCURVE",
"164 -68 OFFCURVE",
"159 -67 CURVE SMOOTH",
"128 -59 OFFCURVE",
"102 -54 OFFCURVE",
"77 -33 CURVE",
"76 -22 OFFCURVE",
"73 -13 OFFCURVE",
"62 -8 CURVE",
"63 5 OFFCURVE",
"59 15 OFFCURVE",
"50 22 CURVE",
"49 25 OFFCURVE",
"49 27 OFFCURVE",
"49 29 CURVE",
"62 45 OFFCURVE",
"60 57 OFFCURVE",
"55 68 CURVE",
"63 90 OFFCURVE",
"79 110 OFFCURVE",
"100 128 CURVE SMOOTH",
"134 157 OFFCURVE",
"187 177 OFFCURVE",
"204 161 CURVE SMOOTH",
"227 139 OFFCURVE",
"241 108 OFFCURVE",
"212 79 CURVE",
"196 67 OFFCURVE",
"182 61 OFFCURVE",
"169 72 CURVE SMOOTH",
"153 84 OFFCURVE",
"126 74 OFFCURVE",
"145 55 CURVE SMOOTH",
"155 45 OFFCURVE",
"172 19 OFFCURVE",
"215 35 CURVE SMOOTH",
"254 49 OFFCURVE",
"271 98 OFFCURVE",
"263 131 CURVE SMOOTH",
"251 182 OFFCURVE",
"218 197 OFFCURVE",
"191 198 CURVE",
"188 201 OFFCURVE",
"185 203 OFFCURVE",
"181 204 CURVE SMOOTH",
"125 219 OFFCURVE",
"74 182 OFFCURVE",
"44 145 CURVE SMOOTH",
"30 128 OFFCURVE",
"-8 98 OFFCURVE",
"19 53 CURVE",
"20 52 LINE",
"-9 24 OFFCURVE",
"4 16 OFFCURVE",
"25 -6 CURVE",
"23 -19 OFFCURVE",
"20 -37 OFFCURVE",
"39 -39 CURVE",
"40 -40 LINE",
"40 -41 LINE SMOOTH",
"43 -60 OFFCURVE",
"64 -74 OFFCURVE",
"89 -84 CURVE",
"152 -120 OFFCURVE",
"246 -116 OFFCURVE",
"304 -94 CURVE SMOOTH",
"402 -58 OFFCURVE",
"441 -8 OFFCURVE",
"498 68 CURVE",
"499 68 LINE SMOOTH",
"511 66 OFFCURVE",
"523 39 OFFCURVE",
"526 32 CURVE SMOOTH",
"530 24 OFFCURVE",
"547 17 OFFCURVE",
"555 22 CURVE SMOOTH",
"559 25 OFFCURVE",
"559 29 OFFCURVE",
"557 32 CURVE",
"551 49 OFFCURVE",
"538 61 OFFCURVE",
"531 77 CURVE SMOOTH",
"523 93 OFFCURVE",
"524 112 OFFCURVE",
"525 116 CURVE",
"535 136 OFFCURVE",
"552 170 OFFCURVE",
"569 211 CURVE SMOOTH",
"618 321 OFFCURVE",
"661 456 OFFCURVE",
"621 576 CURVE"
);
},
{
closed = 1;
nodes = (
"586 469 LINE",
"576 370 OFFCURVE",
"532 224 OFFCURVE",
"499 178 CURVE",
"496 181 LINE SMOOTH",
"493 184 OFFCURVE",
"490 188 OFFCURVE",
"487 191 CURVE",
"483 203 LINE SMOOTH",
"479 213 OFFCURVE",
"477 223 OFFCURVE",
"474 233 CURVE",
"475 257 OFFCURVE",
"485 277 OFFCURVE",
"467 300 CURVE",
"467 304 OFFCURVE",
"467 307 OFFCURVE",
"467 311 CURVE",
"471 320 OFFCURVE",
"474 329 OFFCURVE",
"472 339 CURVE SMOOTH",
"471 343 OFFCURVE",
"470 347 OFFCURVE",
"470 351 CURVE SMOOTH",
"474 387 OFFCURVE",
"482 421 OFFCURVE",
"491 446 CURVE SMOOTH",
"497 461 OFFCURVE",
"502 479 OFFCURVE",
"509 496 CURVE SMOOTH",
"512 503 OFFCURVE",
"514 511 OFFCURVE",
"517 519 CURVE SMOOTH",
"524 537 OFFCURVE",
"533 554 OFFCURVE",
"543 569 CURVE SMOOTH",
"550 579 OFFCURVE",
"556 586 OFFCURVE",
"562 590 CURVE",
"565 591 OFFCURVE",
"569 591 OFFCURVE",
"573 591 CURVE SMOOTH",
"576 591 OFFCURVE",
"579 587 OFFCURVE",
"580 585 CURVE SMOOTH",
"582 582 OFFCURVE",
"584 580 OFFCURVE",
"586 579 CURVE",
"593 556 OFFCURVE",
"592 512 OFFCURVE",
"587 469 CURVE"
);
},
{
closed = 1;
nodes = (
"715 676 OFFCURVE",
"715 677 OFFCURVE",
"713 679 CURVE",
"698 701 OFFCURVE",
"673 712 OFFCURVE",
"656 733 CURVE SMOOTH",
"644 748 OFFCURVE",
"634 764 OFFCURVE",
"619 777 CURVE SMOOTH",
"616 779 OFFCURVE",
"614 781 OFFCURVE",
"612 784 CURVE SMOOTH",
"608 788 OFFCURVE",
"604 791 OFFCURVE",
"599 793 CURVE SMOOTH",
"597 794 OFFCURVE",
"594 795 OFFCURVE",
"591 795 CURVE SMOOTH",
"589 795 OFFCURVE",
"576 785 OFFCURVE",
"574 784 CURVE",
"558 782 OFFCURVE",
"555 780 OFFCURVE",
"553 767 CURVE SMOOTH",
"553 766 OFFCURVE",
"544 760 OFFCURVE",
"543 761 CURVE",
"535 752 LINE SMOOTH",
"532 748 OFFCURVE",
"526 750 OFFCURVE",
"519 742 CURVE SMOOTH",
"496 713 OFFCURVE",
"483 707 OFFCURVE",
"458 679 CURVE SMOOTH",
"451 671 OFFCURVE",
"463 657 OFFCURVE",
"470 665 CURVE SMOOTH",
"495 693 OFFCURVE",
"504 693 OFFCURVE",
"528 722 CURVE SMOOTH",
"531 726 OFFCURVE",
"546 738 OFFCURVE",
"551 738 CURVE",
"555 737 LINE",
"572 736 OFFCURVE",
"576 742 OFFCURVE",
"576 751 CURVE",
"582 753 OFFCURVE",
"589 749 OFFCURVE",
"593 745 CURVE",
"596 736 OFFCURVE",
"599 738 OFFCURVE",
"605 735 CURVE",
"605 735 OFFCURVE",
"606 735 OFFCURVE",
"607 734 CURVE",
"607 730 OFFCURVE",
"612 733 OFFCURVE",
"613 729 CURVE SMOOTH",
"619 710 OFFCURVE",
"642 694 OFFCURVE",
"645 685 CURVE SMOOTH",
"647 680 OFFCURVE",
"652 686 OFFCURVE",
"655 682 CURVE SMOOTH",
"658 678 OFFCURVE",
"680 658 OFFCURVE",
"687 658 CURVE SMOOTH",
"694 658 OFFCURVE",
"717 668 OFFCURVE",
"715 674 CURVE"
);
}
);
width = 642;
}
);
note = Icircumflex;
unicode = 00CE;
},
{
glyphname = Idieresis;
lastChange = "2021-04-16 08:59:17 +0000";
layers = (
{
hints = (
{
horizontal = 1;
place = "{626, -20}";
target = down;
type = TopGhost;
}
);
layerId = "5C71BA0D-BC2C-47B0-9323-6F63B3241D58";
paths = (
{
closed = 1;
nodes = (
"621 577 LINE",
"623 582 OFFCURVE",
"622 588 OFFCURVE",
"617 597 CURVE SMOOTH",
"612 604 OFFCURVE",
"608 610 OFFCURVE",
"603 616 CURVE SMOOTH",
"597 623 OFFCURVE",
"591 628 OFFCURVE",
"585 629 CURVE SMOOTH",
"577 630 OFFCURVE",
"571 630 OFFCURVE",
"565 628 CURVE",
"497 623 OFFCURVE",
"496 551 OFFCURVE",
"471 504 CURVE",
"469 503 LINE SMOOTH",
"444 492 OFFCURVE",
"446 480 OFFCURVE",
"450 458 CURVE",
"427 415 OFFCURVE",
"427 374 OFFCURVE",
"436 331 CURVE",
"433 322 OFFCURVE",
"426 315 OFFCURVE",
"426 304 CURVE SMOOTH",
"426 294 OFFCURVE",
"430 285 OFFCURVE",
"437 278 CURVE",
"440 276 LINE",
"440 269 LINE",
"440 264 LINE SMOOTH",
"438 195 OFFCURVE",
"435 198 OFFCURVE",
"471 154 CURVE",
"474 147 OFFCURVE",
"476 142 OFFCURVE",
"475 139 CURVE",
"476 127 OFFCURVE",
"408 -12 OFFCURVE",
"283 -58 CURVE SMOOTH",
"244 -72 OFFCURVE",
"205 -77 OFFCURVE",
"170 -74 CURVE",
"167 -71 OFFCURVE",
"164 -68 OFFCURVE",
"159 -67 CURVE SMOOTH",
"128 -59 OFFCURVE",
"102 -54 OFFCURVE",
"77 -33 CURVE",
"76 -22 OFFCURVE",
"73 -13 OFFCURVE",
"62 -8 CURVE",
"63 5 OFFCURVE",
"59 15 OFFCURVE",
"50 22 CURVE",
"49 25 OFFCURVE",
"49 27 OFFCURVE",
"49 29 CURVE",
"62 45 OFFCURVE",
"60 57 OFFCURVE",
"55 68 CURVE",
"63 90 OFFCURVE",
"79 110 OFFCURVE",
"100 128 CURVE SMOOTH",
"134 157 OFFCURVE",
"187 177 OFFCURVE",
"204 161 CURVE SMOOTH",
"227 139 OFFCURVE",
"241 108 OFFCURVE",
"212 79 CURVE",
"196 67 OFFCURVE",
"182 61 OFFCURVE",
"169 72 CURVE SMOOTH",
"153 84 OFFCURVE",
"126 74 OFFCURVE",
"145 55 CURVE SMOOTH",
"155 45 OFFCURVE",
"172 19 OFFCURVE",
"215 35 CURVE SMOOTH",
"254 49 OFFCURVE",
"271 98 OFFCURVE",
"263 131 CURVE SMOOTH",
"251 182 OFFCURVE",
"218 197 OFFCURVE",
"191 198 CURVE",
"188 201 OFFCURVE",
"185 203 OFFCURVE",
"181 204 CURVE SMOOTH",
"125 219 OFFCURVE",
"74 182 OFFCURVE",
"44 145 CURVE SMOOTH",
"30 128 OFFCURVE",
"-8 98 OFFCURVE",
"19 53 CURVE",
"20 52 LINE",
"-9 24 OFFCURVE",
"4 16 OFFCURVE",
"25 -6 CURVE",
"23 -19 OFFCURVE",
"20 -37 OFFCURVE",
"39 -39 CURVE",
"40 -40 LINE",
"40 -41 LINE SMOOTH",
"43 -60 OFFCURVE",
"64 -74 OFFCURVE",
"89 -84 CURVE",
"152 -120 OFFCURVE",
"246 -116 OFFCURVE",
"304 -94 CURVE SMOOTH",
"402 -58 OFFCURVE",
"441 -8 OFFCURVE",
"498 68 CURVE",
"499 68 LINE SMOOTH",
"511 66 OFFCURVE",
"523 39 OFFCURVE",
"526 32 CURVE SMOOTH",
"530 24 OFFCURVE",
"547 17 OFFCURVE",
"555 22 CURVE SMOOTH",
"559 25 OFFCURVE",
"559 29 OFFCURVE",
"557 32 CURVE",
"551 49 OFFCURVE",
"538 61 OFFCURVE",
"531 77 CURVE SMOOTH",
"523 93 OFFCURVE",
"524 112 OFFCURVE",
"525 116 CURVE",
"535 136 OFFCURVE",
"552 170 OFFCURVE",
"569 211 CURVE SMOOTH",
"618 321 OFFCURVE",
"661 456 OFFCURVE",
"621 576 CURVE"
);
},
{
closed = 1;
nodes = (
"586 469 LINE",
"576 370 OFFCURVE",
"532 224 OFFCURVE",
"499 178 CURVE",
"496 181 LINE SMOOTH",
"493 184 OFFCURVE",
"490 188 OFFCURVE",
"487 191 CURVE",
"483 203 LINE SMOOTH",
"479 213 OFFCURVE",
"477 223 OFFCURVE",
"474 233 CURVE",
"475 257 OFFCURVE",
"485 277 OFFCURVE",
"467 300 CURVE",
"467 304 OFFCURVE",
"467 307 OFFCURVE",
"467 311 CURVE",
"471 320 OFFCURVE",
"474 329 OFFCURVE",
"472 339 CURVE SMOOTH",
"471 343 OFFCURVE",
"470 347 OFFCURVE",
"470 351 CURVE SMOOTH",
"474 387 OFFCURVE",
"482 421 OFFCURVE",
"491 446 CURVE SMOOTH",
"497 461 OFFCURVE",
"502 479 OFFCURVE",
"509 496 CURVE SMOOTH",
"512 503 OFFCURVE",
"514 511 OFFCURVE",
"517 519 CURVE SMOOTH",
"524 537 OFFCURVE",
"533 554 OFFCURVE",
"543 569 CURVE SMOOTH",
"550 579 OFFCURVE",
"556 586 OFFCURVE",
"562 590 CURVE",
"565 591 OFFCURVE",
"569 591 OFFCURVE",
"573 591 CURVE SMOOTH",
"576 591 OFFCURVE",
"579 587 OFFCURVE",
"580 585 CURVE SMOOTH",
"582 582 OFFCURVE",
"584 580 OFFCURVE",
"586 579 CURVE",
"593 556 OFFCURVE",
"592 512 OFFCURVE",
"587 469 CURVE"
);
},
{
closed = 1;
nodes = (
"689 803 OFFCURVE",
"672 817 OFFCURVE",
"647 814 CURVE SMOOTH",
"638 813 OFFCURVE",
"618 792 OFFCURVE",
"619 782 CURVE SMOOTH",
"621 766 OFFCURVE",
"629 741 OFFCURVE",
"660 742 CURVE SMOOTH",
"663 742 OFFCURVE",
"664 741 OFFCURVE",
"668 739 CURVE",
"668 739 OFFCURVE",
"669 738 OFFCURVE",
"670 738 CURVE SMOOTH",
"689 741 OFFCURVE",
"693 776 OFFCURVE",
"692 784 CURVE SMOOTH"
);
},
{
closed = 1;
nodes = (
"560 801 OFFCURVE",
"543 816 OFFCURVE",
"518 812 CURVE SMOOTH",
"509 811 OFFCURVE",
"489 790 OFFCURVE",
"490 780 CURVE SMOOTH",
"492 764 OFFCURVE",
"500 739 OFFCURVE",
"531 740 CURVE",
"534 741 OFFCURVE",
"535 739 OFFCURVE",
"538 737 CURVE",
"538 737 OFFCURVE",
"540 736 OFFCURVE",
"541 737 CURVE",
"559 739 OFFCURVE",
"564 774 OFFCURVE",
"562 782 CURVE"
);
}
);
width = 642;
}
);
note = Idieresis;
unicode = 00CF;
},
{
glyphname = Igrave;
lastChange = "2021-04-16 08:59:17 +0000";
layers = (
{
hints = (
{
horizontal = 1;
place = "{626, -20}";
target = down;
type = TopGhost;
}
);
layerId = "5C71BA0D-BC2C-47B0-9323-6F63B3241D58";
paths = (
{
closed = 1;
nodes = (
"621 577 LINE",
"623 582 OFFCURVE",
"622 588 OFFCURVE",
"617 597 CURVE SMOOTH",
"612 604 OFFCURVE",
"608 610 OFFCURVE",
"603 616 CURVE SMOOTH",
"597 623 OFFCURVE",
"591 628 OFFCURVE",
"585 629 CURVE SMOOTH",
"577 630 OFFCURVE",
"571 630 OFFCURVE",
"565 628 CURVE",
"497 623 OFFCURVE",
"496 551 OFFCURVE",
"471 504 CURVE",
"469 503 LINE SMOOTH",
"444 492 OFFCURVE",
"446 480 OFFCURVE",
"450 458 CURVE",
"427 415 OFFCURVE",
"427 374 OFFCURVE",
"436 331 CURVE",
"433 322 OFFCURVE",
"426 315 OFFCURVE",
"426 304 CURVE SMOOTH",
"426 294 OFFCURVE",
"430 285 OFFCURVE",
"437 278 CURVE",
"440 276 LINE",
"440 269 LINE",
"440 264 LINE SMOOTH",
"438 195 OFFCURVE",
"435 198 OFFCURVE",
"471 154 CURVE",
"474 147 OFFCURVE",
"476 142 OFFCURVE",
"475 139 CURVE",
"476 127 OFFCURVE",
"408 -12 OFFCURVE",
"283 -58 CURVE SMOOTH",
"244 -72 OFFCURVE",
"205 -77 OFFCURVE",
"170 -74 CURVE",
"167 -71 OFFCURVE",
"164 -68 OFFCURVE",
"159 -67 CURVE SMOOTH",
"128 -59 OFFCURVE",
"102 -54 OFFCURVE",
"77 -33 CURVE",
"76 -22 OFFCURVE",
"73 -13 OFFCURVE",
"62 -8 CURVE",
"63 5 OFFCURVE",
"59 15 OFFCURVE",
"50 22 CURVE",
"49 25 OFFCURVE",
"49 27 OFFCURVE",
"49 29 CURVE",
"62 45 OFFCURVE",
"60 57 OFFCURVE",
"55 68 CURVE",
"63 90 OFFCURVE",
"79 110 OFFCURVE",
"100 128 CURVE SMOOTH",
"134 157 OFFCURVE",
"187 177 OFFCURVE",
"204 161 CURVE SMOOTH",
"227 139 OFFCURVE",
"241 108 OFFCURVE",
"212 79 CURVE",
"196 67 OFFCURVE",
"182 61 OFFCURVE",
"169 72 CURVE SMOOTH",
"153 84 OFFCURVE",
"126 74 OFFCURVE",
"145 55 CURVE SMOOTH",
"155 45 OFFCURVE",
"172 19 OFFCURVE",
"215 35 CURVE SMOOTH",
"254 49 OFFCURVE",
"271 98 OFFCURVE",
"263 131 CURVE SMOOTH",
"251 182 OFFCURVE",
"218 197 OFFCURVE",
"191 198 CURVE",
"188 201 OFFCURVE",
"185 203 OFFCURVE",
"181 204 CURVE SMOOTH",
"125 219 OFFCURVE",
"74 182 OFFCURVE",
"44 145 CURVE SMOOTH",
"30 128 OFFCURVE",
"-8 98 OFFCURVE",
"19 53 CURVE",
"20 52 LINE",
"-9 24 OFFCURVE",
"4 16 OFFCURVE",
"25 -6 CURVE",
"23 -19 OFFCURVE",
"20 -37 OFFCURVE",
"39 -39 CURVE",
"40 -40 LINE",
"40 -41 LINE SMOOTH",
"43 -60 OFFCURVE",
"64 -74 OFFCURVE",
"89 -84 CURVE",
"152 -120 OFFCURVE",
"246 -116 OFFCURVE",
"304 -94 CURVE SMOOTH",
"402 -58 OFFCURVE",
"441 -8 OFFCURVE",
"498 68 CURVE",
"499 68 LINE SMOOTH",
"511 66 OFFCURVE",
"523 39 OFFCURVE",
"526 32 CURVE SMOOTH",
"530 24 OFFCURVE",
"547 17 OFFCURVE",
"555 22 CURVE SMOOTH",
"559 25 OFFCURVE",
"559 29 OFFCURVE",
"557 32 CURVE",
"551 49 OFFCURVE",
"538 61 OFFCURVE",
"531 77 CURVE SMOOTH",
"523 93 OFFCURVE",
"524 112 OFFCURVE",
"525 116 CURVE",
"535 136 OFFCURVE",
"552 170 OFFCURVE",
"569 211 CURVE SMOOTH",
"618 321 OFFCURVE",
"661 456 OFFCURVE",
"621 576 CURVE"
);
},
{
closed = 1;
nodes = (
"586 469 LINE",
"576 370 OFFCURVE",
"532 224 OFFCURVE",
"499 178 CURVE",
"496 181 LINE SMOOTH",
"493 184 OFFCURVE",
"490 188 OFFCURVE",
"487 191 CURVE",
"483 203 LINE SMOOTH",
"479 213 OFFCURVE",
"477 223 OFFCURVE",
"474 233 CURVE",
"475 257 OFFCURVE",
"485 277 OFFCURVE",
"467 300 CURVE",
"467 304 OFFCURVE",
"467 307 OFFCURVE",
"467 311 CURVE",
"471 320 OFFCURVE",
"474 329 OFFCURVE",
"472 339 CURVE SMOOTH",
"471 343 OFFCURVE",
"470 347 OFFCURVE",
"470 351 CURVE SMOOTH",
"474 387 OFFCURVE",
"482 421 OFFCURVE",
"491 446 CURVE SMOOTH",
"497 461 OFFCURVE",
"502 479 OFFCURVE",
"509 496 CURVE SMOOTH",
"512 503 OFFCURVE",
"514 511 OFFCURVE",
"517 519 CURVE SMOOTH",
"524 537 OFFCURVE",
"533 554 OFFCURVE",
"543 569 CURVE SMOOTH",
"550 579 OFFCURVE",
"556 586 OFFCURVE",
"562 590 CURVE",
"565 591 OFFCURVE",
"569 591 OFFCURVE",
"573 591 CURVE SMOOTH",
"576 591 OFFCURVE",
"579 587 OFFCURVE",
"580 585 CURVE SMOOTH",
"582 582 OFFCURVE",
"584 580 OFFCURVE",
"586 579 CURVE",
"593 556 OFFCURVE",
"592 512 OFFCURVE",
"587 469 CURVE"
);
},
{
closed = 1;
nodes = (
"616 741 LINE",
"616 745 OFFCURVE",
"614 748 OFFCURVE",
"610 750 CURVE SMOOTH",
"576 773 OFFCURVE",
"538 838 OFFCURVE",
"494 838 CURVE SMOOTH",
"472 838 OFFCURVE",
"471 815 OFFCURVE",
"471 800 CURVE SMOOTH",
"471 787 OFFCURVE",
"487 779 OFFCURVE",
"499 774 CURVE",
"513 763 OFFCURVE",
"531 754 OFFCURVE",
"547 746 CURVE SMOOTH",
"566 735 OFFCURVE",
"583 721 OFFCURVE",
"608 717 CURVE SMOOTH",
"624 715 OFFCURVE",
"630 730 OFFCURVE",
"618 740 CURVE"
);
}
);
width = 642;
}
);
note = Igrave;
unicode = 00CC;
},
{
glyphname = J;
lastChange = "2021-04-16 08:59:17 +0000";
layers = (
{
hints = (
{
horizontal = 1;
place = "{-146, 28}";
type = Stem;
},
{
horizontal = 1;
place = "{38, 22}";
type = Stem;
},
{
horizontal = 1;
place = "{156, 62}";
type = Stem;
},
{
horizontal = 1;
place = "{434, -20}";
target = down;
type = TopGhost;
},
{
horizontal = 1;
place = "{589, 19}";
type = Stem;
},
{
horizontal = 1;
place = "{632, 21}";
target = up;
type = BottomGhost;
},
{
place = "{135, 28}";
type = Stem;
},
{
place = "{219, 49}";
type = Stem;
},
{
place = "{351, 28}";
type = Stem;
},
{
place = "{505, 52}";
type = Stem;
}
);
layerId = "5C71BA0D-BC2C-47B0-9323-6F63B3241D58";
paths = (
{
closed = 1;
nodes = (
"702 636 OFFCURVE",
"678 651 OFFCURVE",
"661 631 CURVE SMOOTH",
"655 624 OFFCURVE",
"650 612 OFFCURVE",
"640 612 CURVE SMOOTH",
"637 612 OFFCURVE",
"631 615 OFFCURVE",
"625 619 CURVE SMOOTH",
"616 624 LINE SMOOTH",
"610 627 OFFCURVE",
"603 630 OFFCURVE",
"597 631 CURVE",
"594 633 OFFCURVE",
"591 633 OFFCURVE",
"587 633 CURVE SMOOTH",
"586 633 OFFCURVE",
"584 633 OFFCURVE",
"583 633 CURVE SMOOTH",
"571 634 OFFCURVE",
"558 634 OFFCURVE",
"546 635 CURVE SMOOTH",
"537 637 OFFCURVE",
"528 639 OFFCURVE",
"518 639 CURVE SMOOTH",
"507 639 OFFCURVE",
"494 655 OFFCURVE",
"472 655 CURVE SMOOTH",
"455 655 OFFCURVE",
"440 665 OFFCURVE",
"422 665 CURVE SMOOTH",
"412 665 OFFCURVE",
"404 660 OFFCURVE",
"396 657 CURVE",
"391 657 LINE",
"390 658 LINE SMOOTH",
"383 663 OFFCURVE",
"376 667 OFFCURVE",
"367 667 CURVE SMOOTH",
"357 667 OFFCURVE",
"350 660 OFFCURVE",
"341 660 CURVE SMOOTH",
"337 660 OFFCURVE",
"333 663 OFFCURVE",
"328 663 CURVE SMOOTH",
"308 663 OFFCURVE",
"308 653 OFFCURVE",
"295 646 CURVE",
"275 660 OFFCURVE",
"259 648 OFFCURVE",
"251 629 CURVE",
"226 620 OFFCURVE",
"183 600 OFFCURVE",
"193 567 CURVE",
"171 561 OFFCURVE",
"163 539 OFFCURVE",
"182 523 CURVE",
"173 518 OFFCURVE",
"167 510 OFFCURVE",
"167 500 CURVE SMOOTH",
"167 491 OFFCURVE",
"173 482 OFFCURVE",
"181 478 CURVE",
"181 473 OFFCURVE",
"181 466 OFFCURVE",
"184 453 CURVE",
"192 436 OFFCURVE",
"195 419 OFFCURVE",
"221 419 CURVE SMOOTH",
"224 419 OFFCURVE",
"226 420 OFFCURVE",
"229 421 CURVE",
"231 419 OFFCURVE",
"234 417 OFFCURVE",
"237 416 CURVE",
"243 411 OFFCURVE",
"250 409 OFFCURVE",
"255 410 CURVE",
"260 409 OFFCURVE",
"265 409 OFFCURVE",
"270 409 CURVE SMOOTH",
"330 409 OFFCURVE",
"367 433 OFFCURVE",
"367 491 CURVE SMOOTH",
"367 520 OFFCURVE",
"366 524 OFFCURVE",
"355 553 CURVE SMOOTH",
"346 578 OFFCURVE",
"321 553 OFFCURVE",
"331 528 CURVE SMOOTH",
"339 510 OFFCURVE",
"335 482 OFFCURVE",
"326 465 CURVE SMOOTH",
"318 447 OFFCURVE",
"314 442 OFFCURVE",
"308 440 CURVE SMOOTH",
"300 437 OFFCURVE",
"278 438 OFFCURVE",
"270 438 CURVE SMOOTH",
"269 438 LINE",
"267 441 OFFCURVE",
"265 443 OFFCURVE",
"261 445 CURVE",
"257 451 OFFCURVE",
"252 456 OFFCURVE",
"245 458 CURVE",
"241 472 OFFCURVE",
"241 491 OFFCURVE",
"241 508 CURVE SMOOTH",
"241 558 OFFCURVE",
"263 590 OFFCURVE",
"300 608 CURVE",
"306 609 OFFCURVE",
"311 611 OFFCURVE",
"316 615 CURVE",
"332 621 OFFCURVE",
"351 624 OFFCURVE",
"370 626 CURVE SMOOTH",
"371 626 LINE",
"390 611 OFFCURVE",
"401 620 OFFCURVE",
"420 627 CURVE",
"438 627 OFFCURVE",
"454 617 OFFCURVE",
"472 617 CURVE SMOOTH",
"481 617 OFFCURVE",
"496 601 OFFCURVE",
"518 601 CURVE SMOOTH",
"537 601 OFFCURVE",
"555 593 OFFCURVE",
"574 593 CURVE SMOOTH",
"579 593 OFFCURVE",
"582 596 OFFCURVE",
"586 596 CURVE SMOOTH",
"590 595 OFFCURVE",
"593 594 OFFCURVE",
"597 593 CURVE SMOOTH",
"608 589 OFFCURVE",
"617 585 OFFCURVE",
"629 585 CURVE SMOOTH",
"654 585 OFFCURVE",
"676 605 OFFCURVE",
"685 616 CURVE SMOOTH"
);
},
{
closed = 1;
nodes = (
"542 143 LINE",
"546 180 OFFCURVE",
"549 219 OFFCURVE",
"533 237 CURVE",
"533 238 LINE",
"531 247 LINE",
"544 266 OFFCURVE",
"555 290 OFFCURVE",
"535 310 CURVE SMOOTH",
"534 311 LINE",
"545 325 OFFCURVE",
"543 348 OFFCURVE",
"525 355 CURVE",
"529 365 OFFCURVE",
"533 371 OFFCURVE",
"533 383 CURVE SMOOTH",
"533 389 OFFCURVE",
"529 395 OFFCURVE",
"523 399 CURVE",
"528 410 OFFCURVE",
"526 420 OFFCURVE",
"518 428 CURVE",
"528 445 OFFCURVE",
"509 453 OFFCURVE",
"511 464 CURVE SMOOTH",
"516 491 OFFCURVE",
"500 511 OFFCURVE",
"502 534 CURVE",
"503 537 OFFCURVE",
"506 539 OFFCURVE",
"508 541 CURVE",
"519 548 OFFCURVE",
"512 567 OFFCURVE",
"499 581 CURVE SMOOTH",
"485 596 OFFCURVE",
"466 605 OFFCURVE",
"457 598 CURVE SMOOTH",
"442 588 OFFCURVE",
"435 574 OFFCURVE",
"431 557 CURVE SMOOTH",
"428 541 OFFCURVE",
"427 522 OFFCURVE",
"426 501 CURVE",
"488 231 LINE",
"501 143 LINE",
"494 99 OFFCURVE",
"492 73 OFFCURVE",
"488 50 CURVE SMOOTH",
"484 26 OFFCURVE",
"479 5 OFFCURVE",
"467 -30 CURVE SMOOTH",
"454 -66 OFFCURVE",
"441 -95 OFFCURVE",
"416 -119 CURVE SMOOTH",
"371 -162 OFFCURVE",
"279 -236 OFFCURVE",
"196 -236 CURVE SMOOTH",
"177 -236 OFFCURVE",
"164 -232 OFFCURVE",
"151 -227 CURVE SMOOTH",
"139 -222 OFFCURVE",
"127 -216 OFFCURVE",
"113 -212 CURVE SMOOTH",
"55 -195 OFFCURVE",
"33 -155 OFFCURVE",
"33 -78 CURVE SMOOTH",
"33 -40 OFFCURVE",
"45 -18 OFFCURVE",
"63 -1 CURVE SMOOTH",
"81 17 OFFCURVE",
"99 59 OFFCURVE",
"118 75 CURVE SMOOTH",
"146 98 OFFCURVE",
"154 78 OFFCURVE",
"196 78 CURVE SMOOTH",
"238 78 OFFCURVE",
"245 64 OFFCURVE",
"245 22 CURVE SMOOTH",
"245 -7 OFFCURVE",
"229 -27 OFFCURVE",
"202 -28 CURVE",
"203 -24 OFFCURVE",
"204 -21 OFFCURVE",
"203 -17 CURVE SMOOTH",
"197 10 OFFCURVE",
"156 0 OFFCURVE",
"163 -26 CURVE SMOOTH",
"170 -52 OFFCURVE",
"184 -61 OFFCURVE",
"211 -61 CURVE SMOOTH",
"264 -62 OFFCURVE",
"288 -33 OFFCURVE",
"287 22 CURVE SMOOTH",
"287 84 OFFCURVE",
"263 159 OFFCURVE",
"195 159 CURVE SMOOTH",
"142 159 OFFCURVE",
"118 133 OFFCURVE",
"82 102 CURVE SMOOTH",
"31 58 OFFCURVE",
"-10 15 OFFCURVE",
"-9 -78 CURVE SMOOTH",
"-9 -176 OFFCURVE",
"24 -231 OFFCURVE",
"104 -252 CURVE SMOOTH",
"118 -256 OFFCURVE",
"130 -262 OFFCURVE",
"144 -267 CURVE SMOOTH",
"158 -273 OFFCURVE",
"174 -277 OFFCURVE",
"196 -277 CURVE SMOOTH",
"291 -277 OFFCURVE",
"395 -197 OFFCURVE",
"445 -148 CURVE SMOOTH",
"473 -120 OFFCURVE",
"491 -87 OFFCURVE",
"506 -44 CURVE SMOOTH",
"531 26 OFFCURVE",
"529 28 OFFCURVE",
"544 118 CURVE"
);
}
);
width = 580;
}
);
note = J;
unicode = 004A;
},
{
glyphname = K;
lastChange = "2021-04-16 08:59:17 +0000";
layers = (
{
hints = (
{
horizontal = 1;
place = "{-131, 27}";
type = Stem;
},
{
horizontal = 1;
place = "{-85, 18}";
type = Stem;
},
{
horizontal = 1;
place = "{171, 27}";
type = Stem;
},
{
horizontal = 1;
place = "{224, 21}";
type = Stem;
},
{
horizontal = 1;
place = "{431, 22}";
type = Stem;
},
{
horizontal = 1;
place = "{571, 58}";
type = Stem;
},
{
horizontal = 1;
place = "{642, 46}";
type = Stem;
},
{
place = "{13, 27}";
type = Stem;
},
{
place = "{282, 24}";
type = Stem;
},
{
place = "{376, 27}";
type = Stem;
},
{
place = "{805, 40}";
type = Stem;
}
);
layerId = "5C71BA0D-BC2C-47B0-9323-6F63B3241D58";
paths = (
{
closed = 1;
nodes = (
"820 660 OFFCURVE",
"809 663 OFFCURVE",
"792 663 CURVE SMOOTH",
"782 663 OFFCURVE",
"775 660 OFFCURVE",
"768 654 CURVE",
"767 654 OFFCURVE",
"765 654 OFFCURVE",
"763 653 CURVE SMOOTH",
"752 647 OFFCURVE",
"739 644 OFFCURVE",
"729 639 CURVE",
"725 639 LINE SMOOTH",
"669 635 OFFCURVE",
"661 556 OFFCURVE",
"633 533 CURVE SMOOTH",
"629 530 LINE SMOOTH",
"601 508 OFFCURVE",
"588 458 OFFCURVE",
"569 424 CURVE SMOOTH",
"567 421 OFFCURVE",
"566 418 OFFCURVE",
"565 414 CURVE",
"529 387 OFFCURVE",
"518 315 OFFCURVE",
"483 260 CURVE SMOOTH",
"476 250 OFFCURVE",
"467 241 OFFCURVE",
"459 233 CURVE",
"455 240 OFFCURVE",
"451 248 OFFCURVE",
"446 255 CURVE",
"442 275 OFFCURVE",
"433 292 OFFCURVE",
"403 302 CURVE",
"397 307 OFFCURVE",
"389 310 OFFCURVE",
"381 312 CURVE",
"385 330 OFFCURVE",
"389 348 OFFCURVE",
"392 366 CURVE",
"409 402 OFFCURVE",
"427 443 OFFCURVE",
"427 486 CURVE SMOOTH",
"427 497 OFFCURVE",
"427 510 OFFCURVE",
"420 519 CURVE SMOOTH",
"418 521 LINE",
"422 525 OFFCURVE",
"424 529 OFFCURVE",
"426 534 CURVE SMOOTH",
"434 556 OFFCURVE",
"423 563 OFFCURVE",
"412 570 CURVE",
"433 603 OFFCURVE",
"376 677 OFFCURVE",
"328 677 CURVE SMOOTH",
"325 677 LINE",
"316 679 OFFCURVE",
"307 681 OFFCURVE",
"297 681 CURVE SMOOTH",
"288 681 OFFCURVE",
"280 680 OFFCURVE",
"271 680 CURVE SMOOTH",
"270 680 OFFCURVE",
"268 680 OFFCURVE",
"266 680 CURVE SMOOTH",
"244 681 OFFCURVE",
"236 683 OFFCURVE",
"220 683 CURVE SMOOTH",
"205 683 OFFCURVE",
"170 675 OFFCURVE",
"166 656 CURVE",
"162 654 OFFCURVE",
"157 652 OFFCURVE",
"152 650 CURVE",
"146 650 LINE SMOOTH",
"123 650 OFFCURVE",
"80 642 OFFCURVE",
"90 610 CURVE",
"64 588 OFFCURVE",
"42 559 OFFCURVE",
"26 525 CURVE SMOOTH",
"19 509 OFFCURVE",
"21 494 OFFCURVE",
"22 483 CURVE SMOOTH",
"22 480 LINE",
"17 476 OFFCURVE",
"14 471 OFFCURVE",
"13 462 CURVE SMOOTH",
"11 452 OFFCURVE",
"13 446 OFFCURVE",
"18 441 CURVE",
"13 427 OFFCURVE",
"7 415 OFFCURVE",
"7 395 CURVE SMOOTH",
"7 381 OFFCURVE",
"10 363 OFFCURVE",
"16 344 CURVE",
"-10 332 OFFCURVE",
"12 310 OFFCURVE",
"32 304 CURVE",
"52 268 OFFCURVE",
"83 237 OFFCURVE",
"130 237 CURVE SMOOTH",
"217 237 OFFCURVE",
"293 265 OFFCURVE",
"293 372 CURVE SMOOTH",
"293 402 OFFCURVE",
"286 446 OFFCURVE",
"260 466 CURVE",
"261 484 OFFCURVE",
"246 491 OFFCURVE",
"232 491 CURVE SMOOTH",
"225 491 OFFCURVE",
"218 487 OFFCURVE",
"211 487 CURVE",
"207 491 OFFCURVE",
"199 497 OFFCURVE",
"186 497 CURVE SMOOTH",
"138 497 OFFCURVE",
"125 434 OFFCURVE",
"166 450 CURVE SMOOTH",
"170 451 OFFCURVE",
"183 460 OFFCURVE",
"186 460 CURVE",
"189 457 LINE SMOOTH",
"195 452 OFFCURVE",
"202 449 OFFCURVE",
"210 449 CURVE SMOOTH",
"214 449 OFFCURVE",
"219 450 OFFCURVE",
"222 451 CURVE",
"229 433 OFFCURVE",
"256 444 OFFCURVE",
"256 372 CURVE SMOOTH",
"256 298 OFFCURVE",
"211 275 OFFCURVE",
"132 275 CURVE SMOOTH",
"131 275 OFFCURVE",
"129 275 OFFCURVE",
"127 275 CURVE SMOOTH",
"99 278 OFFCURVE",
"78 297 OFFCURVE",
"78 330 CURVE SMOOTH",
"78 344 OFFCURVE",
"71 349 OFFCURVE",
"62 349 CURVE",
"65 362 OFFCURVE",
"64 375 OFFCURVE",
"57 386 CURVE",
"58 393 OFFCURVE",
"58 399 OFFCURVE",
"56 406 CURVE",
"80 424 OFFCURVE",
"77 441 OFFCURVE",
"62 454 CURVE",
"83 459 OFFCURVE",
"94 470 OFFCURVE",
"79 505 CURVE",
"80 507 LINE SMOOTH",
"85 514 OFFCURVE",
"93 524 OFFCURVE",
"93 532 CURVE",
"92 534 LINE",
"106 535 OFFCURVE",
"119 544 OFFCURVE",
"119 559 CURVE SMOOTH",
"119 562 OFFCURVE",
"118 564 OFFCURVE",
"118 567 CURVE SMOOTH",
"117 572 LINE",
"137 575 OFFCURVE",
"146 586 OFFCURVE",
"139 602 CURVE",
"146 606 OFFCURVE",
"154 610 OFFCURVE",
"162 613 CURVE",
"179 614 OFFCURVE",
"197 617 OFFCURVE",
"204 628 CURVE",
"237 637 OFFCURVE",
"268 642 OFFCURVE",
"290 643 CURVE",
"293 641 OFFCURVE",
"297 639 OFFCURVE",
"302 639 CURVE SMOOTH",
"317 639 LINE",
"354 623 OFFCURVE",
"364 562 OFFCURVE",
"367 518 CURVE",
"365 515 OFFCURVE",
"365 511 OFFCURVE",
"367 508 CURVE",
"367 501 OFFCURVE",
"367 495 OFFCURVE",
"367 489 CURVE SMOOTH",
"367 455 OFFCURVE",
"364 421 OFFCURVE",
"358 388 CURVE",
"342 360 OFFCURVE",
"325 335 OFFCURVE",
"326 305 CURVE",
"305 296 OFFCURVE",
"283 280 OFFCURVE",
"283 259 CURVE SMOOTH",
"283 239 OFFCURVE",
"289 214 OFFCURVE",
"302 194 CURVE",
"301 188 OFFCURVE",
"301 183 OFFCURVE",
"301 178 CURVE SMOOTH",
"300 165 OFFCURVE",
"282 147 OFFCURVE",
"282 129 CURVE SMOOTH",
"282 102 OFFCURVE",
"301 107 OFFCURVE",
"276 83 CURVE SMOOTH",
"242 49 OFFCURVE",
"227 -23 OFFCURVE",
"189 -63 CURVE",
"173 -75 OFFCURVE",
"156 -82 OFFCURVE",
"138 -82 CURVE SMOOTH",
"83 -82 OFFCURVE",
"52 -33 OFFCURVE",
"52 27 CURVE SMOOTH",
"52 51 OFFCURVE",
"64 128 OFFCURVE",
"99 128 CURVE SMOOTH",
"148 128 OFFCURVE",
"157 71 OFFCURVE",
"128 54 CURVE SMOOTH",
"107 41 OFFCURVE",
"127 9 OFFCURVE",
"148 22 CURVE SMOOTH",
"218 65 OFFCURVE",
"174 157 OFFCURVE",
"107 164 CURVE",
"104 166 OFFCURVE",
"101 166 OFFCURVE",
"97 166 CURVE SMOOTH",
"63 166 LINE SMOOTH",
"44 166 OFFCURVE",
"12 109 OFFCURVE",
"18 83 CURVE",
"19 82 LINE",
"8 67 OFFCURVE",
"-1 59 OFFCURVE",
"-1 47 CURVE",
"-6 43 OFFCURVE",
"-10 37 OFFCURVE",
"-10 31 CURVE SMOOTH",
"-10 22 OFFCURVE",
"-2 10 OFFCURVE",
"3 3 CURVE",
"-13 -26 OFFCURVE",
"6 -79 OFFCURVE",
"37 -91 CURVE",
"50 -125 OFFCURVE",
"98 -127 OFFCURVE",
"128 -127 CURVE SMOOTH",
"170 -127 OFFCURVE",
"200 -110 OFFCURVE",
"223 -85 CURVE",
"246 -65 OFFCURVE",
"263 -39 OFFCURVE",
"277 -14 CURVE SMOOTH",
"287 2 OFFCURVE",
"295 19 OFFCURVE",
"304 36 CURVE",
"312 44 OFFCURVE",
"319 51 OFFCURVE",
"319 67 CURVE",
"331 96 OFFCURVE",
"342 126 OFFCURVE",
"350 158 CURVE",
"356 156 OFFCURVE",
"364 156 OFFCURVE",
"372 156 CURVE SMOOTH",
"394 156 OFFCURVE",
"415 162 OFFCURVE",
"436 172 CURVE",
"440 169 OFFCURVE",
"445 166 OFFCURVE",
"452 164 CURVE",
"451 162 LINE SMOOTH",
"447 148 OFFCURVE",
"452 135 OFFCURVE",
"462 125 CURVE",
"470 119 OFFCURVE",
"464 100 OFFCURVE",
"490 85 CURVE SMOOTH",
"494 82 LINE",
"480 62 OFFCURVE",
"494 47 OFFCURVE",
"505 31 CURVE",
"527 -30 OFFCURVE",
"536 -27 OFFCURVE",
"572 -45 CURVE",
"578 -56 OFFCURVE",
"590 -60 OFFCURVE",
"603 -63 CURVE SMOOTH",
"606 -64 LINE",
"611 -68 OFFCURVE",
"615 -68 OFFCURVE",
"620 -67 CURVE",
"647 -79 OFFCURVE",
"665 -109 OFFCURVE",
"692 -109 CURVE SMOOTH",
"732 -109 OFFCURVE",
"784 -98 OFFCURVE",
"784 -47 CURVE SMOOTH",
"784 -22 OFFCURVE",
"746 -22 OFFCURVE",
"746 -47 CURVE SMOOTH",
"746 -71 OFFCURVE",
"708 -71 OFFCURVE",
"692 -71 CURVE",
"686 -69 OFFCURVE",
"680 -64 OFFCURVE",
"675 -60 CURVE SMOOTH",
"655 -45 OFFCURVE",
"648 -39 OFFCURVE",
"640 -35 CURVE SMOOTH",
"635 -33 OFFCURVE",
"629 -32 OFFCURVE",
"619 -29 CURVE",
"614 -26 OFFCURVE",
"609 -23 OFFCURVE",
"603 -20 CURVE",
"597 15 OFFCURVE",
"556 15 OFFCURVE",
"554 59 CURVE SMOOTH",
"553 101 OFFCURVE",
"519 141 OFFCURVE",
"492 178 CURVE",
"491 186 OFFCURVE",
"487 190 OFFCURVE",
"482 193 CURVE",
"479 197 LINE",
"490 208 OFFCURVE",
"499 219 OFFCURVE",
"508 231 CURVE SMOOTH",
"519 246 OFFCURVE",
"530 261 OFFCURVE",
"538 276 CURVE SMOOTH",
"549 300 OFFCURVE",
"556 326 OFFCURVE",
"568 349 CURVE",
"569 350 OFFCURVE",
"570 350 OFFCURVE",
"572 351 CURVE SMOOTH",
"606 366 OFFCURVE",
"600 375 OFFCURVE",
"599 391 CURVE",
"613 398 OFFCURVE",
"629 410 OFFCURVE",
"621 437 CURVE",
"643 446 OFFCURVE",
"661 454 OFFCURVE",
"658 482 CURVE",
"681 487 OFFCURVE",
"686 505 OFFCURVE",
"686 525 CURVE SMOOTH",
"686 527 OFFCURVE",
"686 529 OFFCURVE",
"686 531 CURVE",
"688 531 LINE SMOOTH",
"709 531 OFFCURVE",
"726 539 OFFCURVE",
"725 563 CURVE SMOOTH",
"725 565 LINE",
"745 572 OFFCURVE",
"756 584 OFFCURVE",
"751 604 CURVE",
"762 604 OFFCURVE",
"775 605 OFFCURVE",
"792 626 CURVE",
"803 626 OFFCURVE",
"810 624 OFFCURVE",
"820 620 CURVE SMOOTH",
"843 610 OFFCURVE",
"857 645 OFFCURVE",
"834 654 CURVE SMOOTH"
);
},
{
closed = 1;
nodes = (
"405 197 OFFCURVE",
"389 192 OFFCURVE",
"372 192 CURVE SMOOTH",
"367 192 OFFCURVE",
"362 193 OFFCURVE",
"357 195 CURVE",
"362 222 OFFCURVE",
"367 248 OFFCURVE",
"373 275 CURVE",
"375 272 OFFCURVE",
"378 271 OFFCURVE",
"382 270 CURVE SMOOTH",
"384 270 OFFCURVE",
"385 269 OFFCURVE",
"386 269 CURVE",
"396 262 OFFCURVE",
"405 252 OFFCURVE",
"412 240 CURVE",
"416 229 OFFCURVE",
"417 216 OFFCURVE",
"420 204 CURVE"
);
},
{
closed = 1;
nodes = (
"321 252 LINE",
"321 257 LINE SMOOTH",
"321 258 OFFCURVE",
"322 259 OFFCURVE",
"323 260 CURVE"
);
}
);
width = 676;
}
);
note = K;
unicode = 004B;
},
{
glyphname = L;
lastChange = "2021-06-16 04:05:37 +0000";
layers = (
{
anchors = (
{
name = bottom;
position = "{317, -96}";
},
{
name = center;
position = "{335, 344}";
},
{
name = top;
position = "{335, 687}";
},
{
name = topright;
position = "{650, 687}";
}
);
hints = (
{
horizontal = 1;
place = "{-138, 33}";
type = Stem;
},
{
horizontal = 1;
place = "{-56, 20}";
type = Stem;
},
{
horizontal = 1;
place = "{40, 20}";
type = Stem;
},
{
horizontal = 1;
place = "{203, 20}";
type = Stem;
},
{
horizontal = 1;
place = "{564, -20}";
target = down;
type = TopGhost;
},
{
horizontal = 1;
place = "{642, 36}";
type = Stem;
},
{
place = "{16, 36}";
type = Stem;
},
{
place = "{59, 50}";
type = Stem;
},
{
place = "{339, 20}";
type = Stem;
},
{
place = "{627, 28}";
type = Stem;
}
);
layerId = "5C71BA0D-BC2C-47B0-9323-6F63B3241D58";
paths = (
{
closed = 1;
nodes = (
"726 594 OFFCURVE",
"676 687 OFFCURVE",
"571 687 CURVE SMOOTH",
"543 687 OFFCURVE",
"517 676 OFFCURVE",
"494 660 CURVE SMOOTH",
"491 658 OFFCURVE",
"488 657 OFFCURVE",
"486 655 CURVE",
"453 638 OFFCURVE",
"446 628 OFFCURVE",
"443 608 CURVE",
"432 593 OFFCURVE",
"423 578 OFFCURVE",
"415 561 CURVE",
"404 556 OFFCURVE",
"395 549 OFFCURVE",
"391 531 CURVE SMOOTH",
"376 464 OFFCURVE",
"382 452 OFFCURVE",
"353 392 CURVE SMOOTH",
"341 369 OFFCURVE",
"335 330 OFFCURVE",
"331 325 CURVE SMOOTH",
"313 300 OFFCURVE",
"321 298 OFFCURVE",
"321 274 CURVE",
"312 265 OFFCURVE",
"300 259 OFFCURVE",
"300 243 CURVE SMOOTH",
"300 239 OFFCURVE",
"301 235 OFFCURVE",
"303 232 CURVE",
"249 236 OFFCURVE",
"197 245 OFFCURVE",
"149 262 CURVE SMOOTH",
"139 266 OFFCURVE",
"127 265 OFFCURVE",
"118 270 CURVE",
"95 305 OFFCURVE",
"84 345 OFFCURVE",
"72 385 CURVE",
"72 453 OFFCURVE",
"116 524 OFFCURVE",
"177 525 CURVE",
"181 523 OFFCURVE",
"185 521 OFFCURVE",
"191 521 CURVE SMOOTH",
"199 521 OFFCURVE",
"206 525 OFFCURVE",
"210 528 CURVE",
"219 515 OFFCURVE",
"242 517 OFFCURVE",
"244 535 CURVE",
"265 535 OFFCURVE",
"287 520 OFFCURVE",
"287 499 CURVE SMOOTH",
"287 497 OFFCURVE",
"280 467 OFFCURVE",
"277 463 CURVE",
"256 450 OFFCURVE",
"257 451 OFFCURVE",
"249 426 CURVE",
"249 424 LINE",
"231 426 OFFCURVE",
"198 398 OFFCURVE",
"236 389 CURVE SMOOTH",
"272 381 OFFCURVE",
"279 399 OFFCURVE",
"288 428 CURVE",
"314 443 OFFCURVE",
"324 467 OFFCURVE",
"324 499 CURVE SMOOTH",
"324 550 OFFCURVE",
"274 573 OFFCURVE",
"243 573 CURVE SMOOTH",
"239 573 OFFCURVE",
"234 572 OFFCURVE",
"230 570 CURVE",
"226 573 OFFCURVE",
"221 575 OFFCURVE",
"215 575 CURVE SMOOTH",
"206 575 OFFCURVE",
"199 569 OFFCURVE",
"193 563 CURVE SMOOTH",
"190 560 LINE",
"187 561 OFFCURVE",
"183 563 OFFCURVE",
"179 563 CURVE SMOOTH",
"86 563 OFFCURVE",
"35 462 OFFCURVE",
"35 385 CURVE SMOOTH",
"35 381 OFFCURVE",
"36 378 OFFCURVE",
"37 376 CURVE",
"49 333 OFFCURVE",
"68 240 OFFCURVE",
"117 231 CURVE SMOOTH",
"211 214 OFFCURVE",
"234 201 OFFCURVE",
"290 195 CURVE",
"282 174 OFFCURVE",
"278 147 OFFCURVE",
"271 130 CURVE",
"236 110 OFFCURVE",
"253 95 OFFCURVE",
"227 64 CURVE SMOOTH",
"222 59 OFFCURVE",
"216 47 OFFCURVE",
"211 35 CURVE",
"178 39 OFFCURVE",
"156 67 OFFCURVE",
"119 67 CURVE SMOOTH",
"106 67 OFFCURVE",
"101 71 OFFCURVE",
"85 71 CURVE SMOOTH",
"79 71 OFFCURVE",
"70 68 OFFCURVE",
"64 67 CURVE SMOOTH",
"63 67 OFFCURVE",
"62 67 OFFCURVE",
"61 66 CURVE",
"27 65 OFFCURVE",
"-3 53 OFFCURVE",
"-3 12 CURVE SMOOTH",
"-3 -41 OFFCURVE",
"44 -65 OFFCURVE",
"89 -65 CURVE SMOOTH",
"125 -65 OFFCURVE",
"158 -36 OFFCURVE",
"195 -36 CURVE SMOOTH",
"198 -36 OFFCURVE",
"202 -36 OFFCURVE",
"206 -35 CURVE",
"214 -41 LINE SMOOTH",
"218 -44 OFFCURVE",
"222 -46 OFFCURVE",
"226 -48 CURVE",
"237 -61 OFFCURVE",
"252 -73 OFFCURVE",
"266 -73 CURVE SMOOTH",
"277 -73 OFFCURVE",
"293 -97 OFFCURVE",
"322 -97 CURVE SMOOTH",
"328 -97 OFFCURVE",
"331 -96 OFFCURVE",
"334 -95 CURVE SMOOTH",
"336 -94 LINE",
"336 -94 LINE",
"337 -95 LINE SMOOTH",
"342 -100 OFFCURVE",
"347 -100 OFFCURVE",
"352 -100 CURVE",
"362 -104 OFFCURVE",
"374 -109 OFFCURVE",
"386 -112 CURVE",
"390 -116 OFFCURVE",
"396 -119 OFFCURVE",
"401 -122 CURVE",
"418 -147 OFFCURVE",
"457 -144 OFFCURVE",
"487 -143 CURVE",
"503 -145 OFFCURVE",
"518 -145 OFFCURVE",
"532 -145 CURVE",
"537 -146 OFFCURVE",
"540 -146 OFFCURVE",
"541 -146 CURVE SMOOTH",
"600 -146 OFFCURVE",
"666 -78 OFFCURVE",
"666 -17 CURVE SMOOTH",
"666 59 OFFCURVE",
"586 73 OFFCURVE",
"546 73 CURVE SMOOTH",
"502 73 OFFCURVE",
"409 62 OFFCURVE",
"409 0 CURVE SMOOTH",
"409 -16 OFFCURVE",
"417 -31 OFFCURVE",
"431 -39 CURVE SMOOTH",
"479 -65 OFFCURVE",
"501 -17 OFFCURVE",
"467 -11 CURVE SMOOTH",
"460 -9 OFFCURVE",
"454 -9 OFFCURVE",
"447 -5 CURVE",
"447 -5 OFFCURVE",
"446 -3 OFFCURVE",
"446 0 CURVE SMOOTH",
"446 30 OFFCURVE",
"527 36 OFFCURVE",
"546 36 CURVE SMOOTH",
"549 36 OFFCURVE",
"552 35 OFFCURVE",
"555 35 CURVE",
"558 31 OFFCURVE",
"563 27 OFFCURVE",
"570 27 CURVE SMOOTH",
"574 27 OFFCURVE",
"577 27 OFFCURVE",
"579 27 CURVE",
"579 26 LINE SMOOTH",
"579 21 OFFCURVE",
"580 15 OFFCURVE",
"584 10 CURVE SMOOTH",
"589 3 OFFCURVE",
"594 0 OFFCURVE",
"600 -1 CURVE",
"600 -21 OFFCURVE",
"612 -50 OFFCURVE",
"603 -68 CURVE SMOOTH",
"602 -71 OFFCURVE",
"601 -74 OFFCURVE",
"601 -77 CURVE",
"586 -93 OFFCURVE",
"566 -106 OFFCURVE",
"549 -109 CURVE SMOOTH",
"548 -109 OFFCURVE",
"546 -109 OFFCURVE",
"545 -109 CURVE SMOOTH",
"541 -109 OFFCURVE",
"536 -108 OFFCURVE",
"531 -108 CURVE SMOOTH",
"522 -107 OFFCURVE",
"509 -105 OFFCURVE",
"504 -105 CURVE SMOOTH",
"500 -105 OFFCURVE",
"495 -106 OFFCURVE",
"491 -106 CURVE SMOOTH",
"469 -104 OFFCURVE",
"446 -100 OFFCURVE",
"427 -93 CURVE",
"422 -84 OFFCURVE",
"414 -78 OFFCURVE",
"401 -78 CURVE",
"400 -76 OFFCURVE",
"399 -75 OFFCURVE",
"397 -74 CURVE",
"393 -69 LINE SMOOTH",
"376 -48 OFFCURVE",
"370 -53 OFFCURVE",
"348 -48 CURVE",
"345 -45 OFFCURVE",
"343 -41 OFFCURVE",
"341 -37 CURVE SMOOTH",
"317 10 OFFCURVE",
"288 -11 OFFCURVE",
"276 -1 CURVE",
"274 4 LINE",
"283 13 OFFCURVE",
"289 22 OFFCURVE",
"286 29 CURVE",
"302 40 OFFCURVE",
"313 52 OFFCURVE",
"327 80 CURVE",
"337 89 OFFCURVE",
"344 95 OFFCURVE",
"344 110 CURVE SMOOTH",
"344 120 OFFCURVE",
"344 130 OFFCURVE",
"352 171 CURVE",
"352 169 OFFCURVE",
"353 167 OFFCURVE",
"355 165 CURVE",
"354 163 OFFCURVE",
"355 163 OFFCURVE",
"355 161 CURVE",
"363 169 OFFCURVE",
"376 177 OFFCURVE",
"376 189 CURVE SMOOTH",
"376 192 LINE",
"388 192 LINE SMOOTH",
"449 192 OFFCURVE",
"492 213 OFFCURVE",
"535 240 CURVE SMOOTH",
"596 279 OFFCURVE",
"641 262 OFFCURVE",
"666 356 CURVE SMOOTH",
"674 385 OFFCURVE",
"709 393 OFFCURVE",
"709 438 CURVE SMOOTH",
"709 447 OFFCURVE",
"707 456 OFFCURVE",
"705 465 CURVE",
"708 472 OFFCURVE",
"721 478 OFFCURVE",
"725 489 CURVE",
"721 499 LINE",
"727 505 OFFCURVE",
"726 510 OFFCURVE",
"726 512 CURVE SMOOTH"
);
},
{
closed = 1;
nodes = (
"686 513 OFFCURVE",
"681 501 OFFCURVE",
"684 496 CURVE",
"681 493 LINE SMOOTH",
"657 469 OFFCURVE",
"672 460 OFFCURVE",
"672 438 CURVE SMOOTH",
"672 423 OFFCURVE",
"661 413 OFFCURVE",
"651 403 CURVE SMOOTH",
"612 360 OFFCURVE",
"643 325 OFFCURVE",
"569 297 CURVE SMOOTH",
"508 272 OFFCURVE",
"458 228 OFFCURVE",
"388 228 CURVE",
"378 229 LINE",
"384 235 OFFCURVE",
"387 243 OFFCURVE",
"387 252 CURVE SMOOTH",
"387 266 OFFCURVE",
"374 295 OFFCURVE",
"380 305 CURVE SMOOTH",
"391 328 OFFCURVE",
"401 352 OFFCURVE",
"408 379 CURVE",
"421 400 OFFCURVE",
"416 420 OFFCURVE",
"420 447 CURVE",
"421 449 OFFCURVE",
"421 451 OFFCURVE",
"420 453 CURVE",
"420 455 LINE SMOOTH",
"420 480 OFFCURVE",
"430 508 OFFCURVE",
"443 535 CURVE",
"489 561 OFFCURVE",
"475 574 OFFCURVE",
"476 590 CURVE",
"488 605 OFFCURVE",
"501 618 OFFCURVE",
"515 629 CURVE",
"519 631 LINE SMOOTH",
"525 634 OFFCURVE",
"529 637 OFFCURVE",
"533 640 CURVE",
"545 646 OFFCURVE",
"558 650 OFFCURVE",
"571 650 CURVE SMOOTH",
"645 650 OFFCURVE",
"687 586 OFFCURVE",
"689 518 CURVE"
);
},
{
closed = 1;
nodes = (
"134 -12 OFFCURVE",
"108 -28 OFFCURVE",
"89 -28 CURVE SMOOTH",
"54 -28 OFFCURVE",
"34 -11 OFFCURVE",
"34 12 CURVE SMOOTH",
"34 30 OFFCURVE",
"52 30 OFFCURVE",
"66 30 CURVE SMOOTH",
"104 30 OFFCURVE",
"134 15 OFFCURVE",
"162 -4 CURVE"
);
}
);
width = 670;
}
);
note = L;
unicode = 004C;
},
{
color = 11;
glyphname = Lslash;
lastChange = "2021-06-15 19:38:17 +0000";
layers = (
{
hints = (
{
horizontal = 1;
place = "{-138, 33}";
type = Stem;
},
{
horizontal = 1;
place = "{-56, 20}";
type = Stem;
},
{
horizontal = 1;
place = "{40, 20}";
type = Stem;
},
{
horizontal = 1;
place = "{203, 20}";
type = Stem;
},
{
horizontal = 1;
place = "{564, -20}";
target = down;
type = TopGhost;
},
{
horizontal = 1;
place = "{642, 36}";
type = Stem;
},
{
place = "{16, 36}";
type = Stem;
},
{
place = "{59, 50}";
type = Stem;
},
{
place = "{339, 20}";
type = Stem;
},
{
place = "{627, 28}";
type = Stem;
},
{
horizontal = 1;
place = "{103, 26}";
type = Stem;
}
);
layerId = "5C71BA0D-BC2C-47B0-9323-6F63B3241D58";
paths = (
{
closed = 1;
nodes = (
"726 594 OFFCURVE",
"676 687 OFFCURVE",
"571 687 CURVE SMOOTH",
"543 687 OFFCURVE",
"517 676 OFFCURVE",
"494 660 CURVE SMOOTH",
"491 658 OFFCURVE",
"488 657 OFFCURVE",
"486 655 CURVE",
"453 638 OFFCURVE",
"446 628 OFFCURVE",
"443 608 CURVE",
"432 593 OFFCURVE",
"423 578 OFFCURVE",
"415 561 CURVE",
"404 556 OFFCURVE",
"395 549 OFFCURVE",
"391 531 CURVE SMOOTH",
"376 464 OFFCURVE",
"382 452 OFFCURVE",
"353 392 CURVE SMOOTH",
"341 369 OFFCURVE",
"335 330 OFFCURVE",
"331 325 CURVE SMOOTH",
"313 300 OFFCURVE",
"321 298 OFFCURVE",
"321 274 CURVE",
"312 265 OFFCURVE",
"300 259 OFFCURVE",
"300 243 CURVE SMOOTH",
"300 239 OFFCURVE",
"301 235 OFFCURVE",
"303 232 CURVE",
"249 236 OFFCURVE",
"197 245 OFFCURVE",
"149 262 CURVE SMOOTH",
"139 266 OFFCURVE",
"127 265 OFFCURVE",
"118 270 CURVE",
"95 305 OFFCURVE",
"84 345 OFFCURVE",
"72 385 CURVE",
"72 453 OFFCURVE",
"116 524 OFFCURVE",
"177 525 CURVE",
"181 523 OFFCURVE",
"185 521 OFFCURVE",
"191 521 CURVE SMOOTH",
"199 521 OFFCURVE",
"206 525 OFFCURVE",
"210 528 CURVE",
"219 515 OFFCURVE",
"242 517 OFFCURVE",
"244 535 CURVE",
"265 535 OFFCURVE",
"287 520 OFFCURVE",
"287 499 CURVE SMOOTH",
"287 497 OFFCURVE",
"280 467 OFFCURVE",
"277 463 CURVE",
"256 450 OFFCURVE",
"257 451 OFFCURVE",
"249 426 CURVE",
"249 424 LINE",
"231 426 OFFCURVE",
"198 398 OFFCURVE",
"236 389 CURVE SMOOTH",
"272 381 OFFCURVE",
"279 399 OFFCURVE",
"288 428 CURVE",
"314 443 OFFCURVE",
"324 467 OFFCURVE",
"324 499 CURVE SMOOTH",
"324 550 OFFCURVE",
"274 573 OFFCURVE",
"243 573 CURVE SMOOTH",
"239 573 OFFCURVE",
"234 572 OFFCURVE",
"230 570 CURVE",
"226 573 OFFCURVE",
"221 575 OFFCURVE",
"215 575 CURVE SMOOTH",
"206 575 OFFCURVE",
"198 570 OFFCURVE",
"193 563 CURVE SMOOTH",
"190 560 LINE",
"187 561 OFFCURVE",
"183 563 OFFCURVE",
"179 563 CURVE SMOOTH",
"86 563 OFFCURVE",
"35 462 OFFCURVE",
"35 385 CURVE SMOOTH",
"35 381 OFFCURVE",
"36 378 OFFCURVE",
"37 376 CURVE",
"49 333 OFFCURVE",
"68 240 OFFCURVE",
"117 231 CURVE SMOOTH",
"211 214 OFFCURVE",
"234 201 OFFCURVE",
"290 195 CURVE",
"282 174 OFFCURVE",
"278 147 OFFCURVE",
"271 130 CURVE",
"236 110 OFFCURVE",
"253 95 OFFCURVE",
"227 64 CURVE SMOOTH",
"222 59 OFFCURVE",
"216 47 OFFCURVE",
"211 35 CURVE",
"178 39 OFFCURVE",
"156 67 OFFCURVE",
"119 67 CURVE SMOOTH",
"106 67 OFFCURVE",
"101 71 OFFCURVE",
"85 71 CURVE SMOOTH",
"79 71 OFFCURVE",
"70 68 OFFCURVE",
"64 67 CURVE SMOOTH",
"63 67 OFFCURVE",
"62 67 OFFCURVE",
"61 66 CURVE",
"27 65 OFFCURVE",
"-3 53 OFFCURVE",
"-3 12 CURVE SMOOTH",
"-3 -41 OFFCURVE",
"44 -65 OFFCURVE",
"89 -65 CURVE SMOOTH",
"125 -65 OFFCURVE",
"158 -36 OFFCURVE",
"195 -36 CURVE SMOOTH",
"198 -36 OFFCURVE",
"202 -36 OFFCURVE",
"206 -35 CURVE",
"214 -41 LINE SMOOTH",
"218 -44 OFFCURVE",
"222 -46 OFFCURVE",
"226 -48 CURVE",
"237 -61 OFFCURVE",
"252 -73 OFFCURVE",
"266 -73 CURVE SMOOTH",
"277 -73 OFFCURVE",
"293 -97 OFFCURVE",
"322 -97 CURVE SMOOTH",
"328 -97 OFFCURVE",
"331 -96 OFFCURVE",
"334 -95 CURVE SMOOTH",
"336 -94 LINE",
"336 -94 LINE",
"337 -95 LINE SMOOTH",
"342 -99 OFFCURVE",
"347 -100 OFFCURVE",
"352 -100 CURVE",
"362 -104 OFFCURVE",
"374 -109 OFFCURVE",
"386 -112 CURVE",
"390 -116 OFFCURVE",
"396 -119 OFFCURVE",
"401 -122 CURVE",
"418 -147 OFFCURVE",
"457 -144 OFFCURVE",
"487 -143 CURVE",
"503 -145 OFFCURVE",
"518 -145 OFFCURVE",
"532 -145 CURVE",
"537 -146 OFFCURVE",
"540 -146 OFFCURVE",
"541 -146 CURVE SMOOTH",
"600 -146 OFFCURVE",
"666 -78 OFFCURVE",
"666 -17 CURVE SMOOTH",
"666 59 OFFCURVE",
"586 73 OFFCURVE",
"546 73 CURVE SMOOTH",
"502 73 OFFCURVE",
"409 62 OFFCURVE",
"409 0 CURVE SMOOTH",
"409 -16 OFFCURVE",
"417 -31 OFFCURVE",
"431 -39 CURVE SMOOTH",
"479 -65 OFFCURVE",
"501 -17 OFFCURVE",
"467 -11 CURVE SMOOTH",
"460 -9 OFFCURVE",
"454 -9 OFFCURVE",
"447 -5 CURVE",
"447 -5 OFFCURVE",
"446 -3 OFFCURVE",
"446 0 CURVE SMOOTH",
"446 30 OFFCURVE",
"527 36 OFFCURVE",
"546 36 CURVE SMOOTH",
"549 36 OFFCURVE",
"552 35 OFFCURVE",
"555 35 CURVE",
"558 31 OFFCURVE",
"563 27 OFFCURVE",
"570 27 CURVE SMOOTH",
"574 27 OFFCURVE",
"577 27 OFFCURVE",
"579 27 CURVE",
"579 26 LINE SMOOTH",
"580 21 OFFCURVE",
"580 15 OFFCURVE",
"584 10 CURVE SMOOTH",
"589 3 OFFCURVE",
"594 0 OFFCURVE",
"600 -1 CURVE",
"600 -21 OFFCURVE",
"612 -50 OFFCURVE",
"603 -68 CURVE SMOOTH",
"602 -71 OFFCURVE",
"601 -74 OFFCURVE",
"601 -77 CURVE",
"586 -93 OFFCURVE",
"566 -106 OFFCURVE",
"549 -109 CURVE SMOOTH",
"548 -109 OFFCURVE",
"546 -109 OFFCURVE",
"545 -109 CURVE SMOOTH",
"541 -109 OFFCURVE",
"536 -108 OFFCURVE",
"531 -108 CURVE SMOOTH",
"522 -107 OFFCURVE",
"509 -105 OFFCURVE",
"504 -105 CURVE SMOOTH",
"500 -105 OFFCURVE",
"495 -106 OFFCURVE",
"491 -106 CURVE SMOOTH",
"469 -104 OFFCURVE",
"446 -100 OFFCURVE",
"427 -93 CURVE",
"422 -84 OFFCURVE",
"414 -78 OFFCURVE",
"401 -78 CURVE",
"400 -76 OFFCURVE",
"399 -75 OFFCURVE",
"397 -74 CURVE",
"393 -69 LINE SMOOTH",
"376 -48 OFFCURVE",
"370 -53 OFFCURVE",
"348 -48 CURVE",
"345 -45 OFFCURVE",
"343 -41 OFFCURVE",
"341 -37 CURVE SMOOTH",
"317 10 OFFCURVE",
"288 -11 OFFCURVE",
"276 -1 CURVE",
"274 4 LINE",
"283 13 OFFCURVE",
"289 22 OFFCURVE",
"286 29 CURVE",
"302 40 OFFCURVE",
"313 52 OFFCURVE",
"327 80 CURVE",
"337 89 OFFCURVE",
"344 95 OFFCURVE",
"344 110 CURVE SMOOTH",
"344 120 OFFCURVE",
"344 130 OFFCURVE",
"352 171 CURVE",
"352 169 OFFCURVE",
"353 167 OFFCURVE",
"355 165 CURVE",
"354 163 OFFCURVE",
"355 163 OFFCURVE",
"355 161 CURVE",
"363 169 OFFCURVE",
"377 177 OFFCURVE",
"376 189 CURVE SMOOTH",
"376 192 LINE",
"388 192 LINE SMOOTH",
"449 191 OFFCURVE",
"492 213 OFFCURVE",
"535 240 CURVE SMOOTH",
"596 279 OFFCURVE",
"641 262 OFFCURVE",
"666 356 CURVE SMOOTH",
"674 385 OFFCURVE",
"709 393 OFFCURVE",
"709 438 CURVE SMOOTH",
"709 447 OFFCURVE",
"707 456 OFFCURVE",
"705 465 CURVE",
"708 472 OFFCURVE",
"721 478 OFFCURVE",
"725 489 CURVE",
"721 499 LINE",
"721 499 LINE",
"727 505 OFFCURVE",
"726 510 OFFCURVE",
"726 512 CURVE SMOOTH"
);
},
{
closed = 1;
nodes = (
"686 513 OFFCURVE",
"681 501 OFFCURVE",
"684 496 CURVE",
"681 493 LINE SMOOTH",
"658 468 OFFCURVE",
"672 460 OFFCURVE",
"672 438 CURVE SMOOTH",
"672 423 OFFCURVE",
"661 413 OFFCURVE",
"651 403 CURVE SMOOTH",
"612 360 OFFCURVE",
"643 325 OFFCURVE",
"569 297 CURVE SMOOTH",
"508 272 OFFCURVE",
"458 228 OFFCURVE",
"388 228 CURVE",
"378 229 LINE",
"384 235 OFFCURVE",
"387 243 OFFCURVE",
"387 252 CURVE SMOOTH",
"387 266 OFFCURVE",
"374 295 OFFCURVE",
"380 305 CURVE SMOOTH",
"391 328 OFFCURVE",
"401 352 OFFCURVE",
"408 379 CURVE",
"421 400 OFFCURVE",
"416 420 OFFCURVE",
"420 447 CURVE",
"421 449 OFFCURVE",
"421 451 OFFCURVE",
"420 453 CURVE",
"420 455 LINE SMOOTH",
"422 480 OFFCURVE",
"430 508 OFFCURVE",
"443 535 CURVE",
"489 561 OFFCURVE",
"475 574 OFFCURVE",
"476 590 CURVE",
"488 605 OFFCURVE",
"501 618 OFFCURVE",
"515 629 CURVE",
"519 631 LINE SMOOTH",
"525 634 OFFCURVE",
"529 637 OFFCURVE",
"533 640 CURVE",
"545 646 OFFCURVE",
"558 650 OFFCURVE",
"571 650 CURVE SMOOTH",
"645 650 OFFCURVE",
"687 586 OFFCURVE",
"689 518 CURVE"
);
},
{
closed = 1;
nodes = (
"134 -12 OFFCURVE",
"108 -28 OFFCURVE",
"89 -28 CURVE SMOOTH",
"54 -28 OFFCURVE",
"34 -11 OFFCURVE",
"34 12 CURVE SMOOTH",
"34 30 OFFCURVE",
"52 30 OFFCURVE",
"66 30 CURVE SMOOTH",
"104 30 OFFCURVE",
"134 15 OFFCURVE",
"162 -4 CURVE"
);
},
{
closed = 1;
nodes = (
"434 109 OFFCURVE",
"434 136 OFFCURVE",
"420 136 CURVE SMOOTH",
"416 136 OFFCURVE",
"412 134 OFFCURVE",
"407 133 CURVE SMOOTH",
"402 131 OFFCURVE",
"397 129 OFFCURVE",
"391 129 CURVE SMOOTH",
"371 129 OFFCURVE",
"249 134 OFFCURVE",
"235 134 CURVE SMOOTH",
"216 134 OFFCURVE",
"205 134 OFFCURVE",
"187 131 CURVE SMOOTH",
"180 130 OFFCURVE",
"175 121 OFFCURVE",
"174 110 CURVE SMOOTH",
"173 98 OFFCURVE",
"177 93 OFFCURVE",
"182 94 CURVE SMOOTH",
"199 96 OFFCURVE",
"210 96 OFFCURVE",
"227 96 CURVE SMOOTH",
"241 96 OFFCURVE",
"371 103 OFFCURVE",
"391 103 CURVE SMOOTH",
"399 103 OFFCURVE",
"405 106 OFFCURVE",
"412 108 CURVE SMOOTH",
"415 109 OFFCURVE",
"418 109 OFFCURVE",
"420 109 CURVE SMOOTH"
);
}
);
width = 670;
}
);
note = Lslash;
unicode = 0141;
},
{
glyphname = M;
lastChange = "2021-04-16 08:59:17 +0000";
layers = (
{
hints = (
{
place = "{804, 27}";
type = Stem;
}
);
layerId = "5C71BA0D-BC2C-47B0-9323-6F63B3241D58";
paths = (
{
closed = 1;
nodes = (
"939 -81 OFFCURVE",
"920 -59 OFFCURVE",
"874 -63 CURVE SMOOTH",
"850 -65 OFFCURVE",
"853 -102 OFFCURVE",
"878 -99 CURVE SMOOTH",
"900 -97 OFFCURVE",
"902 -101 OFFCURVE",
"902 -119 CURVE SMOOTH",
"902 -140 OFFCURVE",
"899 -146 OFFCURVE",
"871 -146 CURVE SMOOTH",
"868 -146 OFFCURVE",
"865 -145 OFFCURVE",
"863 -144 CURVE",
"857 -138 OFFCURVE",
"851 -131 OFFCURVE",
"847 -124 CURVE",
"839 -103 OFFCURVE",
"839 -73 OFFCURVE",
"839 -60 CURVE SMOOTH",
"839 -59 LINE SMOOTH",
"839 -27 OFFCURVE",
"844 6 OFFCURVE",
"851 39 CURVE SMOOTH",
"860 85 OFFCURVE",
"878 129 OFFCURVE",
"878 176 CURVE SMOOTH",
"878 182 OFFCURVE",
"878 186 OFFCURVE",
"881 192 CURVE",
"930 238 OFFCURVE",
"886 264 OFFCURVE",
"910 289 CURVE SMOOTH",
"941 322 OFFCURVE",
"936 323 OFFCURVE",
"936 367 CURVE SMOOTH",
"936 383 OFFCURVE",
"933 400 OFFCURVE",
"924 415 CURVE",
"925 436 OFFCURVE",
"882 452 OFFCURVE",
"858 452 CURVE SMOOTH",
"855 452 OFFCURVE",
"853 451 OFFCURVE",
"851 450 CURVE",
"805 448 OFFCURVE",
"766 433 OFFCURVE",
"734 405 CURVE",
"731 411 OFFCURVE",
"726 416 OFFCURVE",
"719 421 CURVE SMOOTH",
"699 436 OFFCURVE",
"690 455 OFFCURVE",
"680 473 CURVE",
"685 490 OFFCURVE",
"668 515 OFFCURVE",
"640 515 CURVE SMOOTH",
"637 515 OFFCURVE",
"634 514 OFFCURVE",
"630 514 CURVE",
"623 516 OFFCURVE",
"615 516 OFFCURVE",
"605 516 CURVE SMOOTH",
"553 516 OFFCURVE",
"533 477 OFFCURVE",
"524 431 CURVE",
"512 390 OFFCURVE",
"517 350 OFFCURVE",
"507 305 CURVE SMOOTH",
"504 292 LINE",
"502 294 OFFCURVE",
"500 297 OFFCURVE",
"497 299 CURVE",
"505 317 OFFCURVE",
"486 401 OFFCURVE",
"464 411 CURVE SMOOTH",
"462 412 OFFCURVE",
"460 414 OFFCURVE",
"458 416 CURVE",
"453 449 OFFCURVE",
"442 469 OFFCURVE",
"421 493 CURVE SMOOTH",
"414 501 LINE SMOOTH",
"406 511 OFFCURVE",
"397 522 OFFCURVE",
"388 531 CURVE SMOOTH",
"353 569 OFFCURVE",
"317 601 OFFCURVE",
"261 607 CURVE",
"248 611 OFFCURVE",
"236 613 OFFCURVE",
"224 613 CURVE SMOOTH",
"214 613 OFFCURVE",
"208 611 OFFCURVE",
"198 609 CURVE",
"194 610 OFFCURVE",
"190 611 OFFCURVE",
"186 612 CURVE",
"180 617 OFFCURVE",
"172 618 OFFCURVE",
"164 614 CURVE",
"162 614 LINE SMOOTH",
"83 616 OFFCURVE",
"48 529 OFFCURVE",
"3 481 CURVE SMOOTH",
"-15 463 OFFCURVE",
"-10 440 OFFCURVE",
"-18 419 CURVE",
"-21 418 LINE SMOOTH",
"-37 412 OFFCURVE",
"-49 397 OFFCURVE",
"-40 379 CURVE",
"-40 378 LINE",
"-45 374 OFFCURVE",
"-49 368 OFFCURVE",
"-49 361 CURVE SMOOTH",
"-49 328 OFFCURVE",
"-28 301 OFFCURVE",
"-31 269 CURVE SMOOTH",
"-37 187 OFFCURVE",
"-5 189 OFFCURVE",
"16 177 CURVE",
"20 170 OFFCURVE",
"25 164 OFFCURVE",
"29 158 CURVE",
"29 137 OFFCURVE",
"37 119 OFFCURVE",
"63 123 CURVE SMOOTH",
"85 127 OFFCURVE",
"104 113 OFFCURVE",
"126 113 CURVE SMOOTH",
"145 113 OFFCURVE",
"156 116 OFFCURVE",
"175 116 CURVE SMOOTH",
"191 116 OFFCURVE",
"206 118 OFFCURVE",
"220 121 CURVE SMOOTH",
"224 122 OFFCURVE",
"228 122 OFFCURVE",
"231 123 CURVE SMOOTH",
"272 132 OFFCURVE",
"295 148 OFFCURVE",
"308 168 CURVE",
"325 184 OFFCURVE",
"339 203 OFFCURVE",
"350 223 CURVE SMOOTH",
"366 252 OFFCURVE",
"345 267 OFFCURVE",
"347 286 CURVE",
"347 286 LINE",
"350 288 OFFCURVE",
"359 296 OFFCURVE",
"359 308 CURVE SMOOTH",
"359 326 OFFCURVE",
"343 332 OFFCURVE",
"338 333 CURVE",
"336 334 LINE",
"336 335 LINE SMOOTH",
"336 346 OFFCURVE",
"331 361 OFFCURVE",
"311 367 CURVE SMOOTH",
"300 370 OFFCURVE",
"290 374 OFFCURVE",
"280 377 CURVE",
"269 383 OFFCURVE",
"256 387 OFFCURVE",
"242 387 CURVE SMOOTH",
"212 387 OFFCURVE",
"147 363 OFFCURVE",
"147 304 CURVE SMOOTH",
"147 286 OFFCURVE",
"152 275 OFFCURVE",
"160 261 CURVE SMOOTH",
"172 239 OFFCURVE",
"204 258 OFFCURVE",
"192 279 CURVE SMOOTH",
"186 289 OFFCURVE",
"184 294 OFFCURVE",
"184 304 CURVE SMOOTH",
"184 329 OFFCURVE",
"213 347 OFFCURVE",
"236 349 CURVE",
"239 346 OFFCURVE",
"244 344 OFFCURVE",
"249 344 CURVE SMOOTH",
"254 344 OFFCURVE",
"260 344 OFFCURVE",
"265 343 CURVE",
"278 334 OFFCURVE",
"288 317 OFFCURVE",
"288 298 CURVE SMOOTH",
"288 266 OFFCURVE",
"292 221 OFFCURVE",
"278 191 CURVE SMOOTH",
"277 189 OFFCURVE",
"277 188 OFFCURVE",
"275 186 CURVE",
"249 170 OFFCURVE",
"217 159 OFFCURVE",
"194 155 CURVE SMOOTH",
"176 153 OFFCURVE",
"158 153 OFFCURVE",
"147 153 CURVE SMOOTH",
"131 153 OFFCURVE",
"90 157 OFFCURVE",
"74 164 CURVE",
"71 166 OFFCURVE",
"69 169 OFFCURVE",
"67 172 CURVE",
"65 187 OFFCURVE",
"57 195 OFFCURVE",
"46 200 CURVE",
"26 236 OFFCURVE",
"14 283 OFFCURVE",
"14 324 CURVE SMOOTH",
"14 446 OFFCURVE",
"90 504 OFFCURVE",
"173 574 CURVE",
"176 572 OFFCURVE",
"180 572 OFFCURVE",
"184 572 CURVE SMOOTH",
"190 572 OFFCURVE",
"194 572 OFFCURVE",
"198 572 CURVE SMOOTH",
"202 572 OFFCURVE",
"205 572 OFFCURVE",
"209 572 CURVE SMOOTH",
"238 572 LINE SMOOTH",
"246 572 OFFCURVE",
"254 571 OFFCURVE",
"262 570 CURVE",
"320 552 OFFCURVE",
"375 497 OFFCURVE",
"403 445 CURVE SMOOTH",
"410 432 OFFCURVE",
"405 410 OFFCURVE",
"413 392 CURVE SMOOTH",
"443 326 OFFCURVE",
"446 242 OFFCURVE",
"446 157 CURVE SMOOTH",
"446 140 LINE SMOOTH",
"446 64 OFFCURVE",
"413 -7 OFFCURVE",
"413 -83 CURVE SMOOTH",
"413 -93 OFFCURVE",
"422 -102 OFFCURVE",
"432 -102 CURVE SMOOTH",
"433 -102 OFFCURVE",
"435 -101 OFFCURVE",
"438 -101 CURVE SMOOTH",
"446 -100 LINE SMOOTH",
"540 -84 OFFCURVE",
"512 -76 OFFCURVE",
"512 9 CURVE SMOOTH",
"512 106 OFFCURVE",
"534 199 OFFCURVE",
"549 295 CURVE SMOOTH",
"553 318 OFFCURVE",
"550 375 OFFCURVE",
"559 420 CURVE",
"566 442 OFFCURVE",
"578 461 OFFCURVE",
"601 471 CURVE",
"603 468 LINE SMOOTH",
"614 456 OFFCURVE",
"628 446 OFFCURVE",
"640 433 CURVE SMOOTH",
"665 404 OFFCURVE",
"634 398 OFFCURVE",
"669 382 CURVE",
"674 363 OFFCURVE",
"675 349 OFFCURVE",
"681 331 CURVE",
"631 249 OFFCURVE",
"599 222 OFFCURVE",
"599 99 CURVE SMOOTH",
"599 76 OFFCURVE",
"606 5 OFFCURVE",
"642 5 CURVE SMOOTH",
"742 5 OFFCURVE",
"748 100 OFFCURVE",
"733 173 CURVE",
"733 177 OFFCURVE",
"733 180 OFFCURVE",
"731 183 CURVE",
"729 191 LINE",
"729 195 OFFCURVE",
"729 198 OFFCURVE",
"728 202 CURVE",
"749 230 OFFCURVE",
"744 253 OFFCURVE",
"744 287 CURVE SMOOTH",
"744 298 OFFCURVE",
"739 308 OFFCURVE",
"730 312 CURVE",
"729 312 LINE",
"729 325 OFFCURVE",
"733 338 OFFCURVE",
"736 351 CURVE",
"765 392 OFFCURVE",
"804 414 OFFCURVE",
"861 414 CURVE SMOOTH",
"865 414 OFFCURVE",
"870 413 OFFCURVE",
"873 412 CURVE",
"871 408 OFFCURVE",
"869 404 OFFCURVE",
"869 398 CURVE SMOOTH",
"869 384 OFFCURVE",
"876 377 OFFCURVE",
"884 368 CURVE",
"882 366 LINE",
"880 365 OFFCURVE",
"878 364 OFFCURVE",
"876 362 CURVE SMOOTH",
"856 344 OFFCURVE",
"845 234 OFFCURVE",
"837 204 CURVE SMOOTH",
"826 161 OFFCURVE",
"831 141 OFFCURVE",
"823 103 CURVE SMOOTH",
"811 51 OFFCURVE",
"793 2 OFFCURVE",
"793 -52 CURVE SMOOTH",
"793 -86 OFFCURVE",
"799 -114 OFFCURVE",
"812 -138 CURVE",
"821 -163 OFFCURVE",
"841 -183 OFFCURVE",
"871 -183 CURVE SMOOTH",
"917 -183 OFFCURVE",
"939 -162 OFFCURVE",
"939 -119 CURVE SMOOTH"
);
},
{
closed = 1;
nodes = (
"700 261 OFFCURVE",
"693 245 OFFCURVE",
"692 212 CURVE",
"691 210 LINE SMOOTH",
"681 183 OFFCURVE",
"744 47 OFFCURVE",
"647 43 CURVE",
"639 59 OFFCURVE",
"636 81 OFFCURVE",
"636 99 CURVE SMOOTH",
"636 176 OFFCURVE",
"655 241 OFFCURVE",
"695 288 CURVE"
);
}
);
width = 929;
}
);
note = M;
unicode = 004D;
},
{
glyphname = N;
lastChange = "2021-04-16 08:59:17 +0000";
layers = (
{
hints = (
{
place = "{651, 27}";
type = Stem;
}
);
layerId = "5C71BA0D-BC2C-47B0-9323-6F63B3241D58";
paths = (
{
closed = 1;
nodes = (
"837 19 LINE",
"852 38 OFFCURVE",
"840 51 OFFCURVE",
"824 55 CURVE",
"802 56 OFFCURVE",
"802 -6 OFFCURVE",
"773 0 CURVE SMOOTH",
"756 3 OFFCURVE",
"737 -9 OFFCURVE",
"717 0 CURVE SMOOTH",
"699 8 OFFCURVE",
"682 36 OFFCURVE",
"682 122 CURVE SMOOTH",
"682 141 OFFCURVE",
"687 164 OFFCURVE",
"695 189 CURVE SMOOTH",
"698 198 OFFCURVE",
"701 207 OFFCURVE",
"705 217 CURVE",
"726 232 OFFCURVE",
"735 240 OFFCURVE",
"735 263 CURVE",
"739 274 OFFCURVE",
"741 286 OFFCURVE",
"739 296 CURVE",
"740 297 LINE",
"749 312 OFFCURVE",
"756 347 OFFCURVE",
"756 364 CURVE SMOOTH",
"756 381 OFFCURVE",
"766 393 OFFCURVE",
"753 399 CURVE",
"754 403 LINE",
"758 409 OFFCURVE",
"761 416 OFFCURVE",
"761 425 CURVE SMOOTH",
"761 428 OFFCURVE",
"760 431 OFFCURVE",
"759 433 CURVE",
"760 440 OFFCURVE",
"760 446 OFFCURVE",
"760 453 CURVE SMOOTH",
"760 490 OFFCURVE",
"719 549 OFFCURVE",
"674 549 CURVE",
"674 548 LINE",
"670 551 OFFCURVE",
"666 553 OFFCURVE",
"660 553 CURVE SMOOTH",
"653 553 OFFCURVE",
"648 551 OFFCURVE",
"643 549 CURVE",
"618 553 OFFCURVE",
"586 547 OFFCURVE",
"562 527 CURVE SMOOTH",
"555 521 OFFCURVE",
"551 515 OFFCURVE",
"549 510 CURVE",
"520 469 OFFCURVE",
"482 411 OFFCURVE",
"481 366 CURVE SMOOTH",
"480 353 OFFCURVE",
"479 345 OFFCURVE",
"478 340 CURVE",
"477 339 OFFCURVE",
"478 338 OFFCURVE",
"477 338 CURVE",
"474 341 OFFCURVE",
"468 354 OFFCURVE",
"464 373 CURVE",
"432 462 OFFCURVE",
"377 581 OFFCURVE",
"261 593 CURVE",
"255 596 OFFCURVE",
"249 599 OFFCURVE",
"241 599 CURVE SMOOTH",
"235 599 OFFCURVE",
"229 597 OFFCURVE",
"224 593 CURVE",
"222 593 OFFCURVE",
"219 593 OFFCURVE",
"216 593 CURVE",
"212 595 OFFCURVE",
"207 597 OFFCURVE",
"201 597 CURVE SMOOTH",
"191 597 OFFCURVE",
"185 595 OFFCURVE",
"175 595 CURVE",
"164 585 LINE SMOOTH",
"163 584 OFFCURVE",
"162 584 OFFCURVE",
"161 584 CURVE SMOOTH",
"153 584 OFFCURVE",
"146 589 OFFCURVE",
"138 589 CURVE SMOOTH",
"126 589 OFFCURVE",
"113 583 OFFCURVE",
"107 572 CURVE",
"87 563 OFFCURVE",
"32 536 OFFCURVE",
"45 507 CURVE",
"21 502 OFFCURVE",
"12 491 OFFCURVE",
"20 469 CURVE",
"18 468 OFFCURVE",
"16 466 OFFCURVE",
"15 465 CURVE",
"9 441 LINE",
"9 442 OFFCURVE",
"9 443 OFFCURVE",
"8 443 CURVE",
"9 444 OFFCURVE",
"9 446 OFFCURVE",
"9 447 CURVE",
"0 438 OFFCURVE",
"-9 431 OFFCURVE",
"-9 417 CURVE SMOOTH",
"-9 393 OFFCURVE",
"-3 381 OFFCURVE",
"5 359 CURVE",
"4 358 LINE",
"1 355 LINE SMOOTH",
"-14 335 OFFCURVE",
"-3 315 OFFCURVE",
"16 304 CURVE",
"25 290 OFFCURVE",
"23 283 OFFCURVE",
"23 268 CURVE SMOOTH",
"23 247 OFFCURVE",
"46 240 OFFCURVE",
"62 236 CURVE SMOOTH",
"65 235 LINE",
"72 231 OFFCURVE",
"80 226 OFFCURVE",
"87 222 CURVE",
"132 185 OFFCURVE",
"192 169 OFFCURVE",
"236 185 CURVE SMOOTH",
"275 199 OFFCURVE",
"331 274 OFFCURVE",
"313 336 CURVE SMOOTH",
"303 369 OFFCURVE",
"280 398 OFFCURVE",
"258 408 CURVE SMOOTH",
"211 428 OFFCURVE",
"199 396 OFFCURVE",
"223 383 CURVE SMOOTH",
"280 354 OFFCURVE",
"280 257 OFFCURVE",
"211 225 CURVE",
"210 225 OFFCURVE",
"208 225 OFFCURVE",
"206 225 CURVE SMOOTH",
"125 225 OFFCURVE",
"149 247 OFFCURVE",
"89 267 CURVE",
"77 278 OFFCURVE",
"67 292 OFFCURVE",
"62 306 CURVE SMOOTH",
"35 380 OFFCURVE",
"42 436 OFFCURVE",
"68 476 CURVE",
"75 479 OFFCURVE",
"84 486 OFFCURVE",
"86 499 CURVE",
"109 522 OFFCURVE",
"138 539 OFFCURVE",
"170 548 CURVE",
"172 549 OFFCURVE",
"176 549 OFFCURVE",
"179 551 CURVE",
"187 553 OFFCURVE",
"195 555 OFFCURVE",
"203 556 CURVE SMOOTH",
"206 556 LINE",
"211 554 OFFCURVE",
"216 551 OFFCURVE",
"223 551 CURVE SMOOTH",
"230 551 OFFCURVE",
"236 554 OFFCURVE",
"241 558 CURVE",
"243 558 OFFCURVE",
"246 558 OFFCURVE",
"248 558 CURVE",
"257 554 OFFCURVE",
"263 554 OFFCURVE",
"268 555 CURVE",
"330 543 OFFCURVE",
"382 496 OFFCURVE",
"402 410 CURVE SMOOTH",
"405 398 OFFCURVE",
"408 385 OFFCURVE",
"411 373 CURVE",
"405 361 OFFCURVE",
"393 347 OFFCURVE",
"410 336 CURVE SMOOTH",
"433 322 OFFCURVE",
"417 282 OFFCURVE",
"424 258 CURVE",
"404 236 OFFCURVE",
"430 220 OFFCURVE",
"432 201 CURVE",
"415 188 OFFCURVE",
"412 172 OFFCURVE",
"424 157 CURVE",
"413 147 OFFCURVE",
"414 132 OFFCURVE",
"425 120 CURVE",
"414 116 OFFCURVE",
"406 111 OFFCURVE",
"417 78 CURVE SMOOTH",
"419 72 LINE",
"410 69 OFFCURVE",
"406 60 OFFCURVE",
"410 49 CURVE SMOOTH",
"413 38 OFFCURVE",
"412 29 OFFCURVE",
"413 19 CURVE",
"407 4 OFFCURVE",
"394 -39 OFFCURVE",
"416 -39 CURVE SMOOTH",
"429 -39 OFFCURVE",
"474 -49 OFFCURVE",
"476 -19 CURVE SMOOTH",
"480 23 OFFCURVE",
"488 123 OFFCURVE",
"500 235 CURVE SMOOTH",
"517 388 OFFCURVE",
"579 498 OFFCURVE",
"616 503 CURVE SMOOTH",
"659 508 OFFCURVE",
"708 438 OFFCURVE",
"692 370 CURVE SMOOTH",
"679 313 OFFCURVE",
"653 179 OFFCURVE",
"648 92 CURVE SMOOTH",
"644 29 OFFCURVE",
"682 -11 OFFCURVE",
"705 -24 CURVE SMOOTH",
"735 -40 OFFCURVE",
"796 -36 OFFCURVE",
"836 19 CURVE"
);
}
);
width = 773;
}
);
note = N;
unicode = 004E;
},
